<svg xmlns="http://www.w3.org/2000/svg" xmlns:xlink="http://www.w3.org/1999/xlink" viewBox="0 0 1023 349"><defs><style>.cls-1{opacity:0.4;}.cls-10,.cls-11,.cls-12,.cls-13,.cls-14,.cls-15,.cls-16,.cls-17,.cls-18,.cls-19,.cls-2,.cls-20,.cls-21,.cls-22,.cls-23,.cls-24,.cls-25,.cls-26,.cls-27,.cls-28,.cls-29,.cls-3,.cls-30,.cls-31,.cls-32,.cls-33,.cls-34,.cls-35,.cls-36,.cls-37,.cls-38,.cls-39,.cls-4,.cls-40,.cls-41,.cls-42,.cls-43,.cls-44,.cls-45,.cls-46,.cls-47,.cls-48,.cls-49,.cls-5,.cls-50,.cls-51,.cls-52,.cls-53,.cls-54,.cls-55,.cls-56,.cls-57,.cls-58,.cls-59,.cls-6,.cls-60,.cls-61,.cls-62,.cls-63,.cls-64,.cls-65,.cls-66,.cls-67,.cls-68,.cls-69,.cls-7,.cls-70,.cls-71,.cls-72,.cls-73,.cls-74,.cls-75,.cls-76,.cls-77,.cls-78,.cls-79,.cls-8,.cls-80,.cls-81,.cls-82,.cls-83,.cls-84,.cls-85,.cls-86,.cls-87,.cls-88,.cls-89,.cls-9,.cls-91{fill:none;}.cls-10,.cls-11,.cls-12,.cls-13,.cls-14,.cls-15,.cls-16,.cls-17,.cls-18,.cls-19,.cls-2,.cls-20,.cls-21,.cls-22,.cls-24,.cls-25,.cls-26,.cls-27,.cls-28,.cls-29,.cls-3,.cls-30,.cls-31,.cls-32,.cls-33,.cls-34,.cls-35,.cls-36,.cls-37,.cls-38,.cls-39,.cls-4,.cls-40,.cls-41,.cls-42,.cls-43,.cls-44,.cls-46,.cls-47,.cls-48,.cls-49,.cls-5,.cls-50,.cls-51,.cls-52,.cls-53,.cls-54,.cls-55,.cls-56,.cls-57,.cls-58,.cls-59,.cls-6,.cls-60,.cls-61,.cls-62,.cls-63,.cls-64,.cls-65,.cls-66,.cls-68,.cls-69,.cls-7,.cls-70,.cls-71,.cls-72,.cls-73,.cls-74,.cls-75,.cls-76,.cls-77,.cls-78,.cls-79,.cls-8,.cls-80,.cls-81,.cls-82,.cls-83,.cls-84,.cls-85,.cls-86,.cls-87,.cls-88,.cls-89,.cls-9{stroke-linejoin:round;}.cls-10,.cls-11,.cls-12,.cls-13,.cls-14,.cls-15,.cls-16,.cls-17,.cls-18,.cls-19,.cls-2,.cls-20,.cls-21,.cls-22,.cls-24,.cls-25,.cls-26,.cls-27,.cls-28,.cls-29,.cls-3,.cls-30,.cls-31,.cls-32,.cls-33,.cls-34,.cls-35,.cls-36,.cls-37,.cls-38,.cls-39,.cls-4,.cls-40,.cls-41,.cls-42,.cls-43,.cls-44,.cls-46,.cls-47,.cls-48,.cls-49,.cls-5,.cls-50,.cls-51,.cls-52,.cls-53,.cls-54,.cls-55,.cls-56,.cls-57,.cls-58,.cls-59,.cls-6,.cls-60,.cls-61,.cls-62,.cls-63,.cls-64,.cls-65,.cls-66,.cls-7,.cls-8,.cls-9{stroke-width:0.21px;}.cls-2{stroke:url(#linear-gradient);}.cls-15,.cls-25,.cls-3,.cls-37,.cls-47,.cls-59{stroke-dasharray:2.11 2.11;}.cls-3{stroke:url(#linear-gradient-2);}.cls-4{stroke:url(#linear-gradient-3);}.cls-13,.cls-27,.cls-35,.cls-49,.cls-5,.cls-57{stroke-dasharray:2.1 2.1;}.cls-5{stroke:url(#linear-gradient-4);}.cls-6{stroke:url(#linear-gradient-5);}.cls-11,.cls-29,.cls-33,.cls-51,.cls-55,.cls-7{stroke-dasharray:2.1 2.1;}.cls-7{stroke:url(#linear-gradient-6);}.cls-8{stroke:url(#linear-gradient-7);}.cls-31,.cls-53,.cls-9{stroke-dasharray:2 2;}.cls-9{stroke:url(#linear-gradient-8);}.cls-10{stroke:url(#linear-gradient-9);}.cls-11{stroke:url(#linear-gradient-10);}.cls-12{stroke:url(#linear-gradient-11);}.cls-13{stroke:url(#linear-gradient-12);}.cls-14{stroke:url(#linear-gradient-13);}.cls-15{stroke:url(#linear-gradient-14);}.cls-16{stroke:url(#linear-gradient-15);}.cls-17,.cls-39,.cls-61{stroke-dasharray:2.11 2.11;}.cls-17{stroke:url(#linear-gradient-16);}.cls-18{stroke:url(#linear-gradient-17);}.cls-19,.cls-41,.cls-63{stroke-dasharray:2.12 2.12;}.cls-19{stroke:url(#linear-gradient-18);}.cls-20{stroke:url(#linear-gradient-19);}.cls-21,.cls-43,.cls-65{stroke-dasharray:2.12 2.12;}.cls-21{stroke:url(#linear-gradient-20);}.cls-22{stroke:url(#linear-gradient-21);}.cls-23,.cls-45,.cls-67{stroke-miterlimit:10;stroke-width:0.61px;}.cls-23{stroke:url(#linear-gradient-22);}.cls-24{stroke:url(#linear-gradient-23);}.cls-25{stroke:url(#linear-gradient-24);}.cls-26{stroke:url(#linear-gradient-25);}.cls-27{stroke:url(#linear-gradient-26);}.cls-28{stroke:url(#linear-gradient-27);}.cls-29{stroke:url(#linear-gradient-28);}.cls-30{stroke:url(#linear-gradient-29);}.cls-31{stroke:url(#linear-gradient-30);}.cls-32{stroke:url(#linear-gradient-31);}.cls-33{stroke:url(#linear-gradient-32);}.cls-34{stroke:url(#linear-gradient-33);}.cls-35{stroke:url(#linear-gradient-34);}.cls-36{stroke:url(#linear-gradient-35);}.cls-37{stroke:url(#linear-gradient-36);}.cls-38{stroke:url(#linear-gradient-37);}.cls-39{stroke:url(#linear-gradient-38);}.cls-40{stroke:url(#linear-gradient-39);}.cls-41{stroke:url(#linear-gradient-40);}.cls-42{stroke:url(#linear-gradient-41);}.cls-43{stroke:url(#linear-gradient-42);}.cls-44{stroke:url(#linear-gradient-43);}.cls-45{stroke:url(#linear-gradient-44);}.cls-46{stroke:url(#linear-gradient-45);}.cls-47{stroke:url(#linear-gradient-46);}.cls-48{stroke:url(#linear-gradient-47);}.cls-49{stroke:url(#linear-gradient-48);}.cls-50{stroke:url(#linear-gradient-49);}.cls-51{stroke:url(#linear-gradient-50);}.cls-52{stroke:url(#linear-gradient-51);}.cls-53{stroke:url(#linear-gradient-52);}.cls-54{stroke:url(#linear-gradient-53);}.cls-55{stroke:url(#linear-gradient-54);}.cls-56{stroke:url(#linear-gradient-55);}.cls-57{stroke:url(#linear-gradient-56);}.cls-58{stroke:url(#linear-gradient-57);}.cls-59{stroke:url(#linear-gradient-58);}.cls-60{stroke:url(#linear-gradient-59);}.cls-61{stroke:url(#linear-gradient-60);}.cls-62{stroke:url(#linear-gradient-61);}.cls-63{stroke:url(#linear-gradient-62);}.cls-64{stroke:url(#linear-gradient-63);}.cls-65{stroke:url(#linear-gradient-64);}.cls-66{stroke:url(#linear-gradient-65);}.cls-67{stroke:url(#linear-gradient-66);}.cls-68,.cls-69,.cls-70,.cls-71,.cls-72,.cls-73,.cls-74,.cls-75,.cls-76,.cls-77,.cls-78,.cls-79,.cls-80,.cls-81,.cls-82,.cls-83,.cls-84,.cls-85,.cls-86,.cls-87,.cls-88{stroke-width:0.57px;}.cls-68{stroke:url(#linear-gradient-67);}.cls-69,.cls-81{stroke-dasharray:1.24 1.24;}.cls-69{stroke:url(#linear-gradient-68);}.cls-70{stroke:url(#linear-gradient-69);}.cls-71,.cls-79{stroke-dasharray:1.28 1.28;}.cls-71{stroke:url(#linear-gradient-70);}.cls-72{stroke:url(#linear-gradient-71);}.cls-73,.cls-77{stroke-dasharray:1.28 1.28;}.cls-73{stroke:url(#linear-gradient-72);}.cls-74{stroke:url(#linear-gradient-73);}.cls-75{stroke-dasharray:1.23 1.23;stroke:url(#linear-gradient-74);}.cls-76{stroke:url(#linear-gradient-75);}.cls-77{stroke:url(#linear-gradient-76);}.cls-78{stroke:url(#linear-gradient-77);}.cls-79{stroke:url(#linear-gradient-78);}.cls-80{stroke:url(#linear-gradient-79);}.cls-81{stroke:url(#linear-gradient-80);}.cls-82{stroke:url(#linear-gradient-81);}.cls-83{stroke-dasharray:1.24 1.24;stroke:url(#linear-gradient-82);}.cls-84{stroke:url(#linear-gradient-83);}.cls-85{stroke-dasharray:1.29 1.29;stroke:url(#linear-gradient-84);}.cls-86{stroke:url(#linear-gradient-85);}.cls-87{stroke-dasharray:1.29 1.29;stroke:url(#linear-gradient-86);}.cls-88{stroke:url(#linear-gradient-87);}.cls-89{stroke-width:1.84px;stroke:url(#linear-gradient-88);}.cls-90{fill:#fff;}</style><linearGradient id="linear-gradient" x1="43.23" y1="231.03" x2="108.58" y2="117.82" gradientUnits="userSpaceOnUse"><stop offset="0" stop-color="#9553ff"/><stop offset="0.5" stop-color="#ff4eeb"/><stop offset="1" stop-color="#00d4cf"/></linearGradient><linearGradient id="linear-gradient-2" x1="-262.83" y1="790.66" x2="438.43" y2="-423.96" xlink:href="#linear-gradient"/><linearGradient id="linear-gradient-3" x1="72.44" y1="238.38" x2="126.1" y2="145.43" xlink:href="#linear-gradient"/><linearGradient id="linear-gradient-4" x1="75.64" y1="241.93" x2="130.68" y2="146.59" xlink:href="#linear-gradient"/><linearGradient id="linear-gradient-5" x1="79.8" y1="241.81" x2="133.47" y2="148.86" xlink:href="#linear-gradient"/><linearGradient id="linear-gradient-6" x1="77.81" y1="236.84" x2="129.32" y2="147.62" xlink:href="#linear-gradient"/><linearGradient id="linear-gradient-7" x1="81.92" y1="231.99" x2="118.95" y2="167.86" xlink:href="#linear-gradient"/><linearGradient id="linear-gradient-8" x1="71.14" y1="223.36" x2="102.75" y2="168.62" xlink:href="#linear-gradient"/><linearGradient id="linear-gradient-9" x1="59.48" y1="216.62" x2="94.39" y2="156.14" xlink:href="#linear-gradient"/><linearGradient id="linear-gradient-10" x1="35.94" y1="203.51" x2="77.22" y2="132.02" xlink:href="#linear-gradient"/><linearGradient id="linear-gradient-11" x1="17.25" y1="185.39" x2="47.72" y2="132.61" xlink:href="#linear-gradient"/><linearGradient id="linear-gradient-12" x1="26.64" y1="196.57" x2="65.86" y2="128.64" xlink:href="#linear-gradient"/><linearGradient id="linear-gradient-13" x1="36.87" y1="203.7" x2="78.4" y2="131.76" xlink:href="#linear-gradient"/><linearGradient id="linear-gradient-14" x1="43.78" y1="210.62" x2="91.06" y2="128.73" xlink:href="#linear-gradient"/><linearGradient id="linear-gradient-15" x1="48.74" y1="219.92" x2="101.78" y2="128.04" xlink:href="#linear-gradient"/><linearGradient id="linear-gradient-16" x1="44.92" y1="214.65" x2="95.63" y2="126.82" xlink:href="#linear-gradient"/><linearGradient id="linear-gradient-17" x1="45.18" y1="199.78" x2="87.62" y2="126.28" xlink:href="#linear-gradient"/><linearGradient id="linear-gradient-18" x1="5.97" y1="235.14" x2="79.49" y2="107.8" xlink:href="#linear-gradient"/><linearGradient id="linear-gradient-19" x1="-2.87" y1="220.52" x2="64.59" y2="103.67" xlink:href="#linear-gradient"/><linearGradient id="linear-gradient-20" x1="24.66" y1="229.13" x2="87.81" y2="119.75" xlink:href="#linear-gradient"/><linearGradient id="linear-gradient-21" x1="56.42" y1="226.86" x2="110.56" y2="133.08" xlink:href="#linear-gradient"/><linearGradient id="linear-gradient-22" x1="37.22" y1="195.89" x2="119.98" y2="148.1" gradientUnits="userSpaceOnUse"><stop offset="0" stop-color="#adff82" stop-opacity="0.9"/><stop offset="1" stop-color="#daff54" stop-opacity="0.9"/></linearGradient><linearGradient id="linear-gradient-23" x1="41.16" y1="238.75" x2="113.14" y2="114.07" xlink:href="#linear-gradient"/><linearGradient id="linear-gradient-24" x1="-279.44" y1="816.32" x2="454.85" y2="-455.52" xlink:href="#linear-gradient"/><linearGradient id="linear-gradient-25" x1="73.03" y1="226.87" x2="122.36" y2="141.42" xlink:href="#linear-gradient"/><linearGradient id="linear-gradient-26" x1="85.03" y1="221.26" x2="123.94" y2="153.86" xlink:href="#linear-gradient"/><linearGradient id="linear-gradient-27" x1="92.31" y1="224.95" x2="130.8" y2="158.29" xlink:href="#linear-gradient"/><linearGradient id="linear-gradient-28" x1="79.91" y1="228.58" x2="124.61" y2="151.14" xlink:href="#linear-gradient"/><linearGradient id="linear-gradient-29" x1="77.09" y1="230.31" x2="128.6" y2="141.09" xlink:href="#linear-gradient"/><linearGradient id="linear-gradient-30" x1="70.39" y1="226" x2="120.65" y2="138.94" xlink:href="#linear-gradient"/><linearGradient id="linear-gradient-31" x1="63.58" y1="222.1" x2="106.3" y2="148.1" xlink:href="#linear-gradient"/><linearGradient id="linear-gradient-32" x1="38.21" y1="207.77" x2="86.3" y2="124.46" xlink:href="#linear-gradient"/><linearGradient id="linear-gradient-33" x1="5.86" y1="203.88" x2="75.53" y2="83.23" xlink:href="#linear-gradient"/><linearGradient id="linear-gradient-34" x1="27.37" y1="206.52" x2="82.4" y2="111.19" xlink:href="#linear-gradient"/><linearGradient id="linear-gradient-35" x1="43.61" y1="212.38" x2="91.07" y2="130.18" xlink:href="#linear-gradient"/><linearGradient id="linear-gradient-36" x1="48.42" y1="215.4" x2="96.53" y2="132.06" xlink:href="#linear-gradient"/><linearGradient id="linear-gradient-37" x1="54.95" y1="213.74" x2="98.27" y2="138.7" xlink:href="#linear-gradient"/><linearGradient id="linear-gradient-38" x1="49.96" y1="208.49" x2="91.24" y2="137" xlink:href="#linear-gradient"/><linearGradient id="linear-gradient-39" x1="37.28" y1="215.37" x2="86.32" y2="130.43" xlink:href="#linear-gradient"/><linearGradient id="linear-gradient-40" x1="40.06" y1="171.05" x2="64.38" y2="128.93" xlink:href="#linear-gradient"/><linearGradient id="linear-gradient-41" x1="26.11" y1="157.92" x2="47.43" y2="120.99" xlink:href="#linear-gradient"/><linearGradient id="linear-gradient-42" x1="49.95" y1="191.09" x2="83.05" y2="133.76" xlink:href="#linear-gradient"/><linearGradient id="linear-gradient-43" x1="77.27" y1="214.28" x2="113.55" y2="151.43" xlink:href="#linear-gradient"/><linearGradient id="linear-gradient-44" x1="32.14" y1="189.27" x2="111.76" y2="143.3" gradientUnits="userSpaceOnUse"><stop offset="0" stop-color="#ff4eeb"/><stop offset="1" stop-color="#00d4cf"/></linearGradient><linearGradient id="linear-gradient-45" x1="12.97" y1="196.42" x2="141.13" y2="161.52" xlink:href="#linear-gradient"/><linearGradient id="linear-gradient-46" x1="-764.73" y1="426.68" x2="923.9" y2="-33.29" xlink:href="#linear-gradient"/><linearGradient id="linear-gradient-47" x1="41.27" y1="224.79" x2="122.47" y2="202.68" xlink:href="#linear-gradient"/><linearGradient id="linear-gradient-48" x1="39.78" y1="222.66" x2="122.48" y2="200.13" xlink:href="#linear-gradient"/><linearGradient id="linear-gradient-49" x1="34.5" y1="221.32" x2="122.99" y2="197.21" xlink:href="#linear-gradient"/><linearGradient id="linear-gradient-50" x1="42.01" y1="226.97" x2="123.38" y2="204.8" xlink:href="#linear-gradient"/><linearGradient id="linear-gradient-51" x1="45.97" y1="233" x2="117.08" y2="213.62" xlink:href="#linear-gradient"/><linearGradient id="linear-gradient-52" x1="40.06" y1="213.24" x2="115.08" y2="192.81" xlink:href="#linear-gradient"/><linearGradient id="linear-gradient-53" x1="34.44" y1="193.48" x2="118.45" y2="170.6" xlink:href="#linear-gradient"/><linearGradient id="linear-gradient-54" x1="27.45" y1="168.46" x2="112.59" y2="145.27" xlink:href="#linear-gradient"/><linearGradient id="linear-gradient-55" x1="23.08" y1="143.56" x2="100.51" y2="122.47" xlink:href="#linear-gradient"/><linearGradient id="linear-gradient-56" x1="27.01" y1="158.5" x2="105.2" y2="137.2" xlink:href="#linear-gradient"/><linearGradient id="linear-gradient-57" x1="26.81" y1="173.52" x2="125.78" y2="146.55" xlink:href="#linear-gradient"/><linearGradient id="linear-gradient-58" x1="32.37" y1="182.34" x2="117.65" y2="159.11" xlink:href="#linear-gradient"/><linearGradient id="linear-gradient-59" x1="36" y1="189.25" x2="117.84" y2="166.95" xlink:href="#linear-gradient"/><linearGradient id="linear-gradient-60" x1="26.72" y1="182.79" x2="121.87" y2="156.87" xlink:href="#linear-gradient"/><linearGradient id="linear-gradient-61" x1="20.52" y1="176.68" x2="121.17" y2="149.26" xlink:href="#linear-gradient"/><linearGradient id="linear-gradient-62" x1="29.57" y1="154.49" x2="113.14" y2="131.73" xlink:href="#linear-gradient"/><linearGradient id="linear-gradient-63" x1="15.71" y1="137.66" x2="111.7" y2="111.51" xlink:href="#linear-gradient"/><linearGradient id="linear-gradient-64" x1="35.79" y1="166.49" x2="115.5" y2="144.77" xlink:href="#linear-gradient"/><linearGradient id="linear-gradient-65" x1="33.41" y1="197.25" x2="123.24" y2="172.78" xlink:href="#linear-gradient"/><linearGradient id="linear-gradient-66" x1="31.44" y1="165.06" x2="119.66" y2="188.31" gradientUnits="userSpaceOnUse"><stop offset="0" stop-color="#9553ff"/><stop offset="1" stop-color="#ff4eeb"/></linearGradient><linearGradient id="linear-gradient-67" x1="52.21" y1="213.78" x2="97.67" y2="135.04" xlink:href="#linear-gradient"/><linearGradient id="linear-gradient-68" x1="66.22" y1="221.88" x2="111.69" y2="143.13" xlink:href="#linear-gradient"/><linearGradient id="linear-gradient-69" x1="79.85" y1="229.75" x2="125.32" y2="151" xlink:href="#linear-gradient"/><linearGradient id="linear-gradient-70" x1="81.66" y1="230.79" x2="127.13" y2="152.04" xlink:href="#linear-gradient"/><linearGradient id="linear-gradient-71" x1="83.25" y1="231.7" x2="128.71" y2="152.96" xlink:href="#linear-gradient"/><linearGradient id="linear-gradient-72" x1="81.51" y1="230.7" x2="126.98" y2="151.95" xlink:href="#linear-gradient"/><linearGradient id="linear-gradient-73" x1="82.98" y1="231.55" x2="128.45" y2="152.8" xlink:href="#linear-gradient"/><linearGradient id="linear-gradient-74" x1="69.99" y1="224.05" x2="115.46" y2="145.3" xlink:href="#linear-gradient"/><linearGradient id="linear-gradient-75" x1="57.29" y1="216.72" x2="102.76" y2="137.97" xlink:href="#linear-gradient"/><linearGradient id="linear-gradient-76" x1="36.18" y1="204.53" x2="81.65" y2="125.78" xlink:href="#linear-gradient"/><linearGradient id="linear-gradient-77" x1="15.5" y1="192.59" x2="60.97" y2="113.84" xlink:href="#linear-gradient"/><linearGradient id="linear-gradient-78" x1="26.87" y1="199.16" x2="72.34" y2="120.41" xlink:href="#linear-gradient"/><linearGradient id="linear-gradient-79" x1="37.85" y1="205.5" x2="83.32" y2="126.75" xlink:href="#linear-gradient"/><linearGradient id="linear-gradient-80" x1="45.06" y1="209.65" x2="90.52" y2="130.91" xlink:href="#linear-gradient"/><linearGradient id="linear-gradient-81" x1="51.81" y1="213.56" x2="97.28" y2="134.81" xlink:href="#linear-gradient"/><linearGradient id="linear-gradient-82" x1="44.8" y1="209.51" x2="90.27" y2="130.76" xlink:href="#linear-gradient"/><linearGradient id="linear-gradient-83" x1="37.89" y1="205.52" x2="83.35" y2="126.77" xlink:href="#linear-gradient"/><linearGradient id="linear-gradient-84" x1="26.33" y1="198.84" x2="71.79" y2="120.09" xlink:href="#linear-gradient"/><linearGradient id="linear-gradient-85" x1="15.41" y1="192.54" x2="60.87" y2="113.79" xlink:href="#linear-gradient"/><linearGradient id="linear-gradient-86" x1="36.72" y1="204.84" x2="82.19" y2="126.1" xlink:href="#linear-gradient"/><linearGradient id="linear-gradient-87" x1="57.29" y1="216.72" x2="102.75" y2="137.97" xlink:href="#linear-gradient"/><linearGradient id="linear-gradient-88" x1="37.18" y1="195.96" x2="112.21" y2="152.64" gradientUnits="userSpaceOnUse"><stop offset="0" stop-color="#9553ff"/><stop offset="0.33" stop-color="#ff4eeb"/><stop offset="0.67" stop-color="#ff9670"/><stop offset="1" stop-color="#00d4cf"/></linearGradient></defs><title>ec-long-white</title><g id="Layer_2" data-name="Layer 2"><g id="white-long"><g id="black"><g id="background" class="cls-1"><path class="cls-2" d="M75.53,174.16l.75.53"/><path class="cls-3" d="M77.75,175.74c6.58,4.76,12.88,9.82,20.15,15.13"/><path class="cls-4" d="M98.71,191.46l.82.6.87-.87"/><path class="cls-5" d="M102.15,189.45a260.18,260.18,0,0,0,19.59-20.83"/><path class="cls-6" d="M122.5,167.68l.76-1-.76,1"/><path class="cls-7" d="M121,169.56c-6.42,7.82-14.18,15.3-21.43,22.5-5.62,8.87-10.32,17.49-10.3,25.92"/><path class="cls-8" d="M89.25,219c0,.32,0,.65.07,1l-.88-.09"/><path class="cls-9" d="M86.8,219.64l-25.39-2.82"/><path class="cls-10" d="M60.59,216.73l-.87-.09-.88-1"/><path class="cls-11" d="M57.2,213.71c-6.52-8.08-9.47-16-12.25-23.64-4.55-6.9-9.55-13.49-17-19.73"/><path class="cls-12" d="M27.06,169.62l-.89-.72.89.72"/><path class="cls-13" d="M28.77,171.06a83.46,83.46,0,0,1,15.11,17.42"/><path class="cls-14" d="M44.42,189.27c.18.27.36.53.53.8l.78-.46"/><path class="cls-15" d="M47.31,188.68c7.21-4.22,16.33-8.69,26.06-13.45"/><path class="cls-16" d="M74.45,174.7l1.08-.54c.12-.35.23-.7.34-1.06"/><path class="cls-17" d="M76.54,171c3-9.49,5.42-19,3.57-28.47"/><path class="cls-18" d="M79.89,141.48c-.08-.35-.17-.71-.26-1.06l-1.24,0"/><path class="cls-19" d="M75.91,140.33c-9.59-.22-19.75-.37-30.16-.43"/><path class="cls-20" d="M44.4,139.89h0"/><path class="cls-21" d="M47.11,139.91c11.29.08,22.26.25,32.52.51,10.05-2.09,19.59-4.26,29.06-6.54"/><path class="cls-22" d="M109.79,133.61l1.09-.26"/></g><path id="foreground" class="cls-23" d="M75.53,174.16c11.63-5.63,23.53-11.67,33.81-18.18,3.74,8.1,6.67,16.55,11.37,25.29-4.7-8.74-7.63-17.19-11.37-25.29-1.47-9.69-4.23-19.14-13.23-28.3l-21.23,2.37,21.23-2.37a143,143,0,0,1,14.77,5.67c7.54,10.67,8.87,21.83,12.38,33.38Q122,174,120.71,181.27c-8,11.51-18.48,22.47-23.17,33a60.46,60.46,0,0,0-8.22,5.66l-14.83-1.64-14.77-1.64c-4.3-2.38-8.21-4.71-11.79-7-8-10.24-11.7-20-19.32-29.29L26.17,168.9c4.73-9.25,13.15-18.89,16.87-29a90.08,90.08,0,0,0,10.56-7.47l21.28-2.36L53.6,132.41c1.43,9.12-2.54,18-7,26.55-7.2,7.45-14.08,14.56-18,21.39,4-6.83,10.84-13.94,18-21.39a134.2,134.2,0,0,1,28.88,15.2c-3.58,11.15-7.33,22.3-5.14,33.44-8.17.77-15.47,1.45-22.46,2,7-.59,14.29-1.27,22.46-2,8.71,2.13,18,4.35,27.15,6.66"/></g><g id="black-2" data-name="black"><g id="background-2" data-name="background" class="cls-1"><path class="cls-24" d="M76.8,176.27l.7.28"/><path class="cls-25" d="M78.88,177.08c6.13,2.33,11.66,4.15,17.71,6.54"/><path class="cls-26" d="M97.26,183.89l.68.27.66-.76"/><path class="cls-27" d="M100,182c5.24-5.44,12.43-8.66,21.46-10.23"/><path class="cls-28" d="M122.6,171.51l1.19-.19-1.19.19"/><path class="cls-29" d="M120.26,171.94c-9.72,1.83-17,5.76-22.32,12.22C94,191.41,90.62,201,87.74,211"/><path class="cls-30" d="M87.43,212.19c-.1.39-.2.79-.29,1.17l-.71.26"/><path class="cls-31" d="M85.11,214.11c-6.8,2.5-13.31,5-20,7.46"/><path class="cls-32" d="M64.42,221.81l-.69.25c-.11-.28-.23-.56-.34-.85"/><path class="cls-33" d="M62.7,219.52c-2.91-7-6-14.48-9.79-22.66-5.7-7.11-12.86-15-23.77-27.61"/><path class="cls-34" d="M27.87,167.76l-1.32-1.55,1.32,1.55"/><path class="cls-35" d="M30.38,170.69c9.4,10.85,15.93,18.08,21.18,24.52"/><path class="cls-36" d="M52.24,196c.23.27.45.55.67.82l.76-.64"/><path class="cls-37" d="M55.2,194.94c7-5.74,13.59-11.79,20.12-17.43"/><path class="cls-38" d="M76.06,176.89l.74-.62c0-.29,0-.58,0-.88"/><path class="cls-39" d="M76.94,173.64c.33-8,1.23-14.75.45-24.55"/><path class="cls-40" d="M77.29,148c0-.39-.08-.78-.13-1.17l-1.25-.37"/><path class="cls-41" d="M73.4,145.66A187.48,187.48,0,0,1,43,133.56"/><path class="cls-42" d="M41.58,132.83l-1.43-.75,1.43.75"/><path class="cls-43" d="M44.41,134.27A197.16,197.16,0,0,0,77.16,146.8a203.5,203.5,0,0,1,34.13,4.42"/><path class="cls-44" d="M112.7,151.54l1.4.33"/></g><path id="foreground-2" data-name="foreground" class="cls-45" d="M76.8,176.27A56,56,0,0,1,108.73,163c3.76,4.85,7,9.39,11.72,15.07-4.69-5.68-8-10.22-11.72-15.07-.64-5.67-2.42-9.92-8.43-23.84-8.93-3.55-17.79-6.6-26.35-9.33,8.56,2.73,17.42,5.78,26.35,9.33a142.45,142.45,0,0,0,15.59,12.28c6,9.27,7.31,13.49,10.31,20.34a47,47,0,0,0-5.75,6.29c-12,3.61-18.52,13.34-24.4,26.84-3.08,3.35-5.92,6.81-8.49,10.16-4.1,1.49-8.11,2.93-12.1,4.4s-8,2.93-12,4.4c-2.73-1.2-5.56-2.38-8.63-3.77a366.28,366.28,0,0,0-25.47-36.3c-1.91-6.07-3.84-12.42-5.71-19C29.4,152.89,35.87,144.21,38,129.1A50.29,50.29,0,0,0,49,122c8.1,2.59,16.38,5,25,7.77-8.58-2.75-16.85-5.17-25-7.77,1.37,17.13-.56,27.46-2.65,37.72-5.21,7.7-12.21,14.88-17,24,4.82-9.13,11.82-16.32,17-24A123.74,123.74,0,0,0,76.8,176.27c-.4,9.64-1,20.55-1.41,32-6.88,4.26-13.59,8.21-20.6,11.78,7-3.57,13.72-7.51,20.6-11.78,6.77-1.3,13.48-2.5,20.66-3.41"/></g><g id="black-3" data-name="black"><g id="background-3" data-name="background" class="cls-1"><path class="cls-46" d="M77,178.46c.05.34.12.68.19,1"/><path class="cls-47" d="M77.52,181.54c1.65,9.29,3.1,19.17,4.26,30.26"/><path class="cls-48" d="M81.91,213c0,.42.09.84.13,1.26l.83-.42"/><path class="cls-49" d="M84.53,213c6.35-3.27,12.58-7.29,19.6-10.46"/><path class="cls-50" d="M105.05,202.17l.94-.4-.94.4"/><path class="cls-51" d="M103.21,203C95.68,206.52,89,210.94,82,214.29A85,85,0,0,1,61.25,229"/><path class="cls-52" d="M60.46,229.41l-.8.36c-.19-.31-.4-.62-.59-.93"/><path class="cls-53" d="M57.94,227.08c-5.94-9-12.93-19.32-21.7-31.5"/><path class="cls-54" d="M35.38,194.4q-.45-.63-.93-1.26c.11-.3.2-.6.31-.9"/><path class="cls-55" d="M35.41,190.47c2.78-7.35,6.86-14.35,10.27-22,.83-9.29,1.23-18.87,1.13-29.46"/><path class="cls-56" d="M46.79,137.76c0-.41,0-.82,0-1.23,0,.41,0,.81,0,1.23"/><path class="cls-57" d="M46.82,140.18c.06,9.31-.29,17.84-1,26.09"/><path class="cls-58" d="M45.77,167.35l-.09,1.08,1.18.58"/><path class="cls-59" d="M49.18,170.12c10.33,5,18.63,7.25,26.12,8.14"/><path class="cls-60" d="M76.13,178.36l.83.1.63-.94"/><path class="cls-61" d="M78.86,175.67c5.65-8.29,12.47-15.63,21.22-19.93"/><path class="cls-62" d="M101,155.27c.32-.15.65-.31,1-.45-.18-.26-.34-.53-.52-.8"/><path class="cls-63" d="M100.42,152.37a268.54,268.54,0,0,1-17-29.75"/><path class="cls-64" d="M82.47,120.66l-1-2,1,2"/><path class="cls-65" d="M84.4,124.52A273.1,273.1,0,0,0,102,154.82c6.67,5.85,12.46,10.75,19.59,17"/><path class="cls-66" d="M122.44,172.52l.84.73"/></g><path id="foreground-3" data-name="foreground" class="cls-67" d="M77,178.46c8.76,1,16.57.72,26.27,2.82-2.63,8.88-3.83,20.8-5.75,35.43,1.91-14.64,3.13-26.54,5.75-35.43,4.77-8.57,12.38-13.47,20.08-16.54-3.7-4.12-7.24-8.06-11.34-13,4.09,4.9,7.65,8.84,11.34,13,0,2.71-.12,5.51,0,8.51-8,5.49-13.73,13.53-17.29,28.52a145.44,145.44,0,0,0-8.51,14.94c-9.68,8-18.92,14.48-28.07,18-3.23-1.58-6.42-3.14-9.75-4.91-3.33-5.26-7-10.67-11.17-16.75s-8.74-12.7-14-19.88c-1.88-5.37-3.9-10.72-5.94-15.67,2.4-10.16,7-19.37,9.75-30.12a53.8,53.8,0,0,0,8.51-10.82c10.85-5.91,21.5-14.43,34.7-17.89,5.44,3.89,10.91,8.44,16.27,12.92A150,150,0,0,0,112,151.78a149.11,149.11,0,0,1-14.23-20.22c-11.2.15-20.89,5.72-29.74,10.88-9.84,1.93-19.3,3-29.74,4.91,10.43-1.89,19.91-3,29.74-4.91a345.11,345.11,0,0,1,9,36c-6.43,10-13.84,20-21.55,27.6-7.29-7.68-16-17.7-26.9-28.59,10.93,10.9,19.62,20.91,26.9,28.59a318,318,0,0,1,14,28.62"/></g><g id="black-4" data-name="black"><g id="background-4" data-name="background"><line class="cls-68" x1="74.68" y1="174.24" x2="75.23" y2="174.55"/><line class="cls-69" x1="76.3" y1="175.18" x2="101.63" y2="189.79"/><polyline class="cls-70" points="102.17 190.1 102.72 190.42 103.11 189.91"/><line class="cls-71" x1="103.89" y1="188.9" x2="119.2" y2="169.17"/><polyline class="cls-72" points="119.59 168.66 119.98 168.16 119.59 168.66"/><polyline class="cls-73" points="118.81 169.67 102.72 190.42 92.42 215.29"/><polyline class="cls-74" points="92.17 215.88 91.93 216.47 91.29 216.47"/><line class="cls-75" x1="90.06" y1="216.47" x2="58.68" y2="216.47"/><polyline class="cls-76" points="58.06 216.47 57.42 216.47 57.18 215.88"/><polyline class="cls-77" points="56.69 214.7 46.63 190.42 30.15 169.17"/><polyline class="cls-78" points="29.76 168.66 29.37 168.16 29.76 168.66"/><line class="cls-79" x1="30.54" y1="169.67" x2="45.85" y2="189.41"/><polyline class="cls-80" points="46.24 189.91 46.63 190.42 47.18 190.1"/><line class="cls-81" x1="48.26" y1="189.48" x2="73.59" y2="174.86"/><polyline class="cls-82" points="74.12 174.55 74.67 174.24 74.67 173.6"/><line class="cls-83" x1="74.68" y1="172.36" x2="74.68" y2="143.19"/><polyline class="cls-84" points="74.67 142.57 74.67 141.93 74.05 141.85"/><line class="cls-85" x1="72.76" y1="141.68" x2="47.76" y2="138.45"/><polyline class="cls-86" points="47.12 138.37 46.49 138.29 47.12 138.37"/><polyline class="cls-87" points="48.4 138.54 74.67 141.93 101.59 138.45"/><line class="cls-88" x1="102.23" y1="138.37" x2="102.86" y2="138.29"/></g><polyline id="foreground-4" data-name="foreground" class="cls-89" points="74.67 174.24 102.78 158.25 119.98 180.59 102.78 158.25 91.94 132 74.67 132 91.94 132 102.86 138.29 119.98 168.16 119.98 180.59 102.72 210.41 91.93 216.47 74.67 216.47 57.42 216.47 46.63 210.41 29.37 180.59 29.37 168.16 46.49 138.29 57.41 132 74.67 132 57.41 132 46.57 158.25 29.37 180.59 46.57 158.25 74.67 174.24 74.67 206.25 46.63 210.41 74.67 206.25 102.72 210.41"/></g><path class="cls-90" d="M214.31,198l5.2,8.34a34.56,34.56,0,0,1-8.65,4.17,29,29,0,0,1-9,1.52,29.59,29.59,0,0,1-14.57-3.45,24.24,24.24,0,0,1-9.61-9.49,27.56,27.56,0,0,1-3.38-13.66A25.64,25.64,0,0,1,178,172a26.85,26.85,0,0,1,10.1-9.68,28.44,28.44,0,0,1,14-3.56q9.78,0,16.38,5.74t9,16l-39.66,13.9a15.72,15.72,0,0,0,5.86,5.87,16.6,16.6,0,0,0,8.41,2.11A20.4,20.4,0,0,0,214.31,198Zm-24.43-25.51a17.44,17.44,0,0,0-4.47,12.33,24.14,24.14,0,0,0,.12,2.78l29.14-10.76a16.67,16.67,0,0,0-5.14-6.65,13.27,13.27,0,0,0-8.28-2.54A14.84,14.84,0,0,0,189.88,172.52Z"/><path class="cls-90" d="M287.33,160.79,260.61,212.3H260L232.2,160.79h13.42l15.11,31.92,14-31.92Z"/><path class="cls-90" d="M333.88,198l5.2,8.34a34.56,34.56,0,0,1-8.65,4.17,29,29,0,0,1-9,1.52,29.56,29.56,0,0,1-14.57-3.45,24.2,24.2,0,0,1-9.62-9.49,27.56,27.56,0,0,1-3.38-13.66A25.55,25.55,0,0,1,297.55,172a26.75,26.75,0,0,1,10.09-9.68,28.44,28.44,0,0,1,14-3.56q9.79,0,16.38,5.74t9,16L307.4,194.4a15.72,15.72,0,0,0,5.86,5.87,16.6,16.6,0,0,0,8.41,2.11A20.4,20.4,0,0,0,333.88,198Zm-24.42-25.51A17.4,17.4,0,0,0,305,184.85a24.14,24.14,0,0,0,.12,2.78l29.14-10.76a16.67,16.67,0,0,0-5.14-6.65,13.27,13.27,0,0,0-8.28-2.54A14.82,14.82,0,0,0,309.46,172.52Z"/><path class="cls-90" d="M377.46,165.39a27.92,27.92,0,0,1,7.56-4.84,20.44,20.44,0,0,1,7-1.81L391.55,170a18.47,18.47,0,0,0-9.86,2.18,17.51,17.51,0,0,0-6.89,6.71,18,18,0,0,0-2.48,9.13v22.85H361.08V160.79h10l.85,11.85A22.12,22.12,0,0,1,377.46,165.39Z"/><path class="cls-90" d="M454.18,160.79l-32.29,74.12H410.77l11.49-25.76L399,160.79h12.7l16.2,35.67,15.84-35.67Z"/><path class="cls-90" d="M463.91,171.85a25.58,25.58,0,0,1,9.91-9.61,29.21,29.21,0,0,1,14.33-3.5,28.5,28.5,0,0,1,14.2,3.5,25.1,25.1,0,0,1,9.68,9.55,27,27,0,0,1,3.44,13.55,27.27,27.27,0,0,1-3.44,13.6,24.87,24.87,0,0,1-9.74,9.61,29,29,0,0,1-14.38,3.51,29.76,29.76,0,0,1-14.15-3.33,24.49,24.49,0,0,1-9.85-9.37,27,27,0,0,1-3.57-14A26.27,26.27,0,0,1,463.91,171.85Zm9.91,22.31a16.23,16.23,0,0,0,5.8,6.29,15.89,15.89,0,0,0,19.77-2.66,17.48,17.48,0,0,0,4.6-12.33,17.71,17.71,0,0,0-4.6-12.4,15.06,15.06,0,0,0-11.6-5,14.78,14.78,0,0,0-8.23,2.35,16.93,16.93,0,0,0-5.74,6.35,19,19,0,0,0,0,17.41Z"/><path class="cls-90" d="M573.27,163A14.32,14.32,0,0,1,578,173.85v37H566.61V177.72a10.14,10.14,0,0,0-2.53-6.65c-1.54-1.61-3.83-2.46-6.9-2.54a13.61,13.61,0,0,0-11,5.32q-4.35,5.33-4.35,13.54v23.46H530.59V160.79h10.15l.73,9.67a19.65,19.65,0,0,1,8-8.52,23.92,23.92,0,0,1,12.21-3.08A16.64,16.64,0,0,1,573.27,163Z"/><path class="cls-90" d="M633.11,198l5.2,8.34a34.49,34.49,0,0,1-8.64,4.17,29.11,29.11,0,0,1-9,1.52,29.59,29.59,0,0,1-14.57-3.45,24.18,24.18,0,0,1-9.61-9.49,27.46,27.46,0,0,1-3.39-13.66A25.55,25.55,0,0,1,596.78,172a26.77,26.77,0,0,1,10.1-9.68,28.4,28.4,0,0,1,14-3.56q9.79,0,16.38,5.74t9,16l-39.66,13.9a15.75,15.75,0,0,0,5.87,5.87,16.58,16.58,0,0,0,8.4,2.11A20.4,20.4,0,0,0,633.11,198Zm-24.42-25.51a17.44,17.44,0,0,0-4.47,12.33,24.14,24.14,0,0,0,.12,2.78l29.13-10.76a16.65,16.65,0,0,0-5.13-6.65,13.28,13.28,0,0,0-8.29-2.54A14.82,14.82,0,0,0,608.69,172.52Z"/><path class="cls-90" d="M731.1,210.48a29.43,29.43,0,0,1-9.49,1.58,30.37,30.37,0,0,1-14.33-3.27,23.56,23.56,0,0,1-9.67-9.25,27.2,27.2,0,0,1-3.44-13.84A25.91,25.91,0,0,1,697.79,172a25,25,0,0,1,9.68-9.25,27,27,0,0,1,13-3.27q11.49,0,19,6.29l-5.68,7.37a24.85,24.85,0,0,0-5.56-3.08,17.84,17.84,0,0,0-6.77-1.27,15.45,15.45,0,0,0-8.16,2.24,15.9,15.9,0,0,0-5.8,6.1,17.53,17.53,0,0,0-2.12,8.59,16.92,16.92,0,0,0,8.34,14.75,17.91,17.91,0,0,0,19.59-1.33l5.8,7A25,25,0,0,1,731.1,210.48Z"/><path class="cls-90" d="M752.86,171.85a25.68,25.68,0,0,1,9.92-9.61,29.17,29.17,0,0,1,14.32-3.5,28.54,28.54,0,0,1,14.21,3.5,25.07,25.07,0,0,1,9.67,9.55,26.88,26.88,0,0,1,3.45,13.55,27.18,27.18,0,0,1-3.45,13.6,24.78,24.78,0,0,1-9.73,9.61,29,29,0,0,1-14.39,3.51,29.72,29.72,0,0,1-14.14-3.33,24.52,24.52,0,0,1-9.86-9.37,27,27,0,0,1-3.56-14A26.26,26.26,0,0,1,752.86,171.85Zm9.92,22.31a16.15,16.15,0,0,0,5.8,6.29,15.89,15.89,0,0,0,19.77-2.66,17.47,17.47,0,0,0,4.59-12.33,17.7,17.7,0,0,0-4.59-12.4,15.08,15.08,0,0,0-11.61-5,14.77,14.77,0,0,0-8.22,2.35,16.85,16.85,0,0,0-5.74,6.35,18.93,18.93,0,0,0,0,17.41Z"/><path class="cls-90" d="M871.77,117.15v93.7H860.41V203a25.63,25.63,0,0,1-8.89,6.65A27.37,27.37,0,0,1,840,212.06a24.3,24.3,0,0,1-12.69-3.39,23.54,23.54,0,0,1-8.89-9.49,30,30,0,0,1-3.2-14.09A28.19,28.19,0,0,1,818.57,171a22.85,22.85,0,0,1,9.31-9.13,28.27,28.27,0,0,1,13.42-3.14,26.53,26.53,0,0,1,11,2.35,20.49,20.49,0,0,1,8.28,6.47V117.15Zm-17.23,81.73a15.91,15.91,0,0,0,5.87-9.43V180a15.84,15.84,0,0,0-6.17-8.89,17.75,17.75,0,0,0-10.76-3.45,16.79,16.79,0,0,0-14.63,8.41,18.2,18.2,0,0,0,0,17.71,17.08,17.08,0,0,0,6.17,6.29,16.28,16.28,0,0,0,8.46,2.29A17.51,17.51,0,0,0,854.54,198.88Z"/><path class="cls-90" d="M926.9,198l5.2,8.34a34.49,34.49,0,0,1-8.64,4.17,29.11,29.11,0,0,1-9,1.52,29.59,29.59,0,0,1-14.57-3.45,24.18,24.18,0,0,1-9.61-9.49,27.46,27.46,0,0,1-3.39-13.66A25.55,25.55,0,0,1,890.57,172a26.77,26.77,0,0,1,10.1-9.68,28.4,28.4,0,0,1,14-3.56q9.79,0,16.38,5.74t9,16l-39.66,13.9a15.82,15.82,0,0,0,5.87,5.87,16.58,16.58,0,0,0,8.4,2.11A20.4,20.4,0,0,0,926.9,198Zm-24.42-25.51A17.44,17.44,0,0,0,898,184.85a24.14,24.14,0,0,0,.12,2.78l29.14-10.76a16.76,16.76,0,0,0-5.14-6.65,13.27,13.27,0,0,0-8.28-2.54A14.82,14.82,0,0,0,902.48,172.52Z"/><path class="cls-90" d="M957.67,210a19.61,19.61,0,0,1-8.16-5.68l4.84-6.53a23.94,23.94,0,0,0,6.34,4.47,15.32,15.32,0,0,0,6.59,1.57,12.21,12.21,0,0,0,6.53-1.57,5.29,5.29,0,0,0,2.54-4.83,5.56,5.56,0,0,0-1.57-4.12,9.75,9.75,0,0,0-3.57-2.29c-1.33-.49-3.57-1.21-6.71-2.18q-12.81-4.11-12.81-14.63a14.41,14.41,0,0,1,4.65-10.76q4.65-4.47,13-4.47a30.55,30.55,0,0,1,9.43,1.33,23.15,23.15,0,0,1,7.62,4.23l-4.48,6.89a13.67,13.67,0,0,0-4.89-3.26,16.88,16.88,0,0,0-5.63-1.33,10.11,10.11,0,0,0-5.8,1.63,5.31,5.31,0,0,0-.85,8.22,10,10,0,0,0,3.27,2.18c1.13.44,3.34,1.19,6.65,2.23a25.78,25.78,0,0,1,9.61,5.32,11.58,11.58,0,0,1,3.45,8.83,15.63,15.63,0,0,1-5.08,12q-5.08,4.71-14.39,4.71A29.12,29.12,0,0,1,957.67,210Z"/><rect class="cls-91" width="1023" height="349"/></g></g></svg>