<svg xmlns="http://www.w3.org/2000/svg" xmlns:xlink="http://www.w3.org/1999/xlink" viewBox="0 0 549.07 479.79"><defs><linearGradient id="_ÂÁ_Ï_ÌÌ_È_ËÂÌÚ_33" x1="512.39" y1="363.76" x2="545" y2="363.76" gradientUnits="userSpaceOnUse"><stop offset="0" stop-color="#e39a65"/><stop offset="1" stop-color="#e95f8d"/></linearGradient><linearGradient id="_ÂÁ_Ï_ÌÌ_È_ËÂÌÚ_33-2" x1="464.28" y1="41.19" x2="519.06" y2="41.19" xlink:href="#_ÂÁ_Ï_ÌÌ_È_ËÂÌÚ_33"/><linearGradient id="_ÂÁ_Ï_ÌÌ_È_ËÂÌÚ_33-3" x1="0" y1="398.03" x2="54.78" y2="398.03" xlink:href="#_ÂÁ_Ï_ÌÌ_È_ËÂÌÚ_33"/><linearGradient id="_ÂÁ_Ï_ÌÌ_È_ËÂÌÚ_33-4" x1="238.15" y1="275.85" x2="530.5" y2="275.85" xlink:href="#_ÂÁ_Ï_ÌÌ_È_ËÂÌÚ_33"/><radialGradient id="_ÂÁ_Ï_ÌÌ_È_ËÂÌÚ_113" cx="399.63" cy="59.39" r="223.3" gradientUnits="userSpaceOnUse"><stop offset="0" stop-color="#e39a65"/><stop offset="0.47" stop-color="#a92ffb"/><stop offset="0.59" stop-color="#891cfb"/><stop offset="0.74" stop-color="#6507fa"/><stop offset="0.8" stop-color="#0d0c6f"/></radialGradient><radialGradient id="_ÂÁ_Ï_ÌÌ_È_ËÂÌÚ_109" cx="263.06" cy="238.71" r="244.17" gradientUnits="userSpaceOnUse"><stop offset="0" stop-color="#e39a65"/><stop offset="0.47" stop-color="#a92ffb"/><stop offset="0.57" stop-color="#891cfb"/><stop offset="0.68" stop-color="#6507fa"/><stop offset="0.74" stop-color="#0d0c6f"/></radialGradient><radialGradient id="radial-gradient" cx="285.52" cy="189.7" r="218.96" gradientUnits="userSpaceOnUse"><stop offset="0" stop-color="#ffc75f"/><stop offset="0.47" stop-color="#9554ff"/><stop offset="0.6" stop-color="#7a44d3"/><stop offset="0.88" stop-color="#432378"/><stop offset="1" stop-color="#2d1654"/></radialGradient><radialGradient id="_ÂÁ_Ï_ÌÌ_È_ËÂÌÚ_343" cx="340.07" cy="105.97" r="223.34" gradientUnits="userSpaceOnUse"><stop offset="0" stop-color="#e39a65"/><stop offset="0.47" stop-color="#a92ffb"/><stop offset="0.59" stop-color="#891cfb"/><stop offset="0.73" stop-color="#6507fa"/><stop offset="1" stop-color="#3919bb"/></radialGradient><linearGradient id="_ÂÁ_Ï_ÌÌ_È_ËÂÌÚ_441" x1="364.61" y1="164.6" x2="543.58" y2="164.6" gradientUnits="userSpaceOnUse"><stop offset="0" stop-color="#3919bb"/><stop offset="1" stop-color="#6507fa"/></linearGradient><radialGradient id="_ÂÁ_Ï_ÌÌ_È_ËÂÌÚ_343-2" cx="258.53" cy="58.27" r="347.85" xlink:href="#_ÂÁ_Ï_ÌÌ_È_ËÂÌÚ_343"/><linearGradient id="_ÂÁ_Ï_ÌÌ_È_ËÂÌÚ_33-5" x1="106.7" y1="133.66" x2="183.48" y2="133.66" xlink:href="#_ÂÁ_Ï_ÌÌ_È_ËÂÌÚ_33"/><radialGradient id="radial-gradient-2" cx="113.51" cy="71.04" r="165.35" gradientUnits="userSpaceOnUse"><stop offset="0" stop-color="#e39a65"/><stop offset="0.15" stop-color="#9554ff"/><stop offset="0.41" stop-color="#3919bb"/><stop offset="0.93" stop-color="#3919bb"/></radialGradient><linearGradient id="_ÂÁ_Ï_ÌÌ_È_ËÂÌÚ_144" x1="116.43" y1="50.55" x2="175.74" y2="50.55" gradientUnits="userSpaceOnUse"><stop offset="0" stop-color="#e39a65"/><stop offset="0.25" stop-color="#a92ffb"/><stop offset="0.56" stop-color="#3919bb"/></linearGradient><linearGradient id="_ÂÁ_Ï_ÌÌ_È_ËÂÌÚ_483" x1="122" y1="47.54" x2="170.18" y2="47.54" gradientUnits="userSpaceOnUse"><stop offset="0" stop-color="#4f1fec"/><stop offset="1" stop-color="#a92ffb"/></linearGradient><linearGradient id="_ÂÁ_Ï_ÌÌ_È_ËÂÌÚ_483-2" x1="120.85" y1="47.54" x2="169.04" y2="47.54" xlink:href="#_ÂÁ_Ï_ÌÌ_È_ËÂÌÚ_483"/><linearGradient id="_ÂÁ_Ï_ÌÌ_È_ËÂÌÚ_193" x1="122" y1="41.19" x2="182.75" y2="41.19" gradientUnits="userSpaceOnUse"><stop offset="0" stop-color="#131060"/><stop offset="0.19" stop-color="#141062"/><stop offset="0.28" stop-color="#19106a"/><stop offset="0.36" stop-color="#221078"/><stop offset="0.42" stop-color="#2e0f8b"/><stop offset="0.48" stop-color="#3e0fa3"/><stop offset="0.54" stop-color="#510ec2"/><stop offset="0.58" stop-color="#680de5"/><stop offset="0.61" stop-color="#740df8"/><stop offset="0.62" stop-color="#7a14f0"/><stop offset="0.68" stop-color="#9b3cc3"/><stop offset="0.75" stop-color="#b75d9d"/><stop offset="0.81" stop-color="#cc7680"/><stop offset="0.88" stop-color="#dc886c"/><stop offset="0.94" stop-color="#e5935f"/><stop offset="1" stop-color="#e8975b"/></linearGradient><radialGradient id="_ÂÁ_Ï_ÌÌ_È_ËÂÌÚ_223" cx="109.03" cy="33.77" r="108.16" gradientUnits="userSpaceOnUse"><stop offset="0" stop-color="#e39a65"/><stop offset="0.25" stop-color="#a92ffb"/><stop offset="0.74" stop-color="#3919bb"/></radialGradient><linearGradient id="_ÂÁ_Ï_ÌÌ_È_ËÂÌÚ_193-2" x1="142.27" y1="60.8" x2="150.68" y2="60.8" xlink:href="#_ÂÁ_Ï_ÌÌ_È_ËÂÌÚ_193"/></defs><title>programming-illustration</title><g id="Layer_2" data-name="Layer 2"><g id="_ÎÓÈ_1" data-name="—ÎÓÈ_1"><path d="M528.7,373.35a7,7,0,0,1-3.49-.93l-11.73-6.78a2.17,2.17,0,0,1,0-3.76l11.73-6.78a7,7,0,0,1,7,0l11.73,6.78a2.17,2.17,0,0,1,0,3.76l-11.73,6.78A7,7,0,0,1,528.7,373.35Zm0-17.32a5.16,5.16,0,0,0-2.56.68l-11.73,6.78a.31.31,0,0,0,0,.54l11.74,6.78h0a5.15,5.15,0,0,0,5.1,0L543,364a.31.31,0,0,0,0-.54l-11.73-6.78A5.15,5.15,0,0,0,528.7,356Z" fill="url(#_ÂÁ_Ï_ÌÌ_È_ËÂÌÚ_33)"/><path d="M491.67,57A11.26,11.26,0,0,1,486,55.51l-20.2-11.66a3.07,3.07,0,0,1,0-5.32L486,26.87a11.34,11.34,0,0,1,11.31,0l21,12.1a3.24,3.24,0,0,1-.76,4.88l-20.2,11.66A11.3,11.3,0,0,1,491.67,57ZM487,53.9a9.49,9.49,0,0,0,9.45,0l20.2-11.66a1.22,1.22,0,0,0,0-2.1L496.4,28.48a9.51,9.51,0,0,0-9.46,0L466.75,40.14a1.21,1.21,0,0,0,0,2.1Z" fill="url(#_ÂÁ_Ï_ÌÌ_È_ËÂÌÚ_33-2)"/><path d="M27.39,413.86a11.4,11.4,0,0,1-5.66-1.51L1.54,400.69a3.07,3.07,0,0,1,0-5.32l20.19-11.66a11.31,11.31,0,0,1,11.31,0l20.2,11.66a3.07,3.07,0,0,1,0,5.32L33,412.35A11.36,11.36,0,0,1,27.39,413.86Zm0-29.8a9.47,9.47,0,0,0-4.73,1.26L2.46,397a1.2,1.2,0,0,0-.6,1,1.17,1.17,0,0,0,.61,1l20.19,11.67h0a9.51,9.51,0,0,0,9.46,0l20.19-11.67a1.17,1.17,0,0,0,.61-1,1.19,1.19,0,0,0-.61-1l-20.2-11.66A9.43,9.43,0,0,0,27.39,384.06Z" fill="url(#_ÂÁ_Ï_ÌÌ_È_ËÂÌÚ_33-3)"/><path d="M406.31,346.06,261.88,262.68c-2.11-1.22-1.84-3.34.59-4.74l92.69-53.52c2.43-1.41,6.11-1.56,8.22-.34l144.43,83.38c2.1,1.22,1.84,3.34-.59,4.75l-92.7,53.51C412.09,347.13,408.41,347.28,406.31,346.06Z" fill="#020230" opacity="0.6"/><path d="M409.62,361.12a9.19,9.19,0,0,1-4.55-1.07h0L240.23,264.88a3.67,3.67,0,0,1-2.08-3.15c0-1.45,1-2.86,2.76-3.87L353.27,192c3.08-1.78,7.61-1.95,10.31-.39l164.84,95.17A3.67,3.67,0,0,1,530.5,290c0,1.45-1,2.86-2.76,3.87L415.38,359.66A11.71,11.71,0,0,1,409.62,361.12ZM359.06,192.44a10,10,0,0,0-4.85,1.2L241.84,259.47c-1.15.66-1.83,1.51-1.83,2.26a2,2,0,0,0,1.15,1.54L406,358.44h0c2.11,1.22,6,1,8.44-.39l112.37-65.83c1.15-.66,1.83-1.51,1.83-2.26a2,2,0,0,0-1.15-1.54L362.65,193.25A7.38,7.38,0,0,0,359.06,192.44Z" fill="url(#_ÂÁ_Ï_ÌÌ_È_ËÂÌÚ_33-4)"/><path d="M546.18,147.66l-143.87-83a3.71,3.71,0,0,0-2.93-.43h0l-2.66.93.94.22a4.6,4.6,0,0,0-.88,1.64L364.23,172.62a6.36,6.36,0,0,0,2.63,7.1l143.86,83.06a4.29,4.29,0,0,0,1.06.43l-.35.78,2.54-.89h0a4,4,0,0,0,2.31-2.69l32.53-105.63A6.37,6.37,0,0,0,546.18,147.66Z" fill="url(#_ÂÁ_Ï_ÌÌ_È_ËÂÌÚ_113)"/><path d="M505.58,266.73l.05.06-142.1-82c-2.09-1.21-5.74-1.06-8.16.33l-91.81,53-3.06-1.17.86,4.3h0a2.52,2.52,0,0,0,1.37,1.72l143.42,82.8c2.09,1.21,5.74,1.06,8.15-.34l92-53.14A3.65,3.65,0,0,0,508.3,270h0l.88-4.18Z" fill="url(#_ÂÁ_Ï_ÌÌ_È_ËÂÌÚ_109)"/><path d="M406.31,322,261.88,238.57c-2.11-1.22-1.84-3.34.59-4.74l92.69-53.52c2.43-1.41,6.11-1.56,8.22-.34l144.43,83.38c2.1,1.22,1.84,3.34-.59,4.75l-92.7,53.51C412.09,323,408.41,323.17,406.31,322Z" fill="url(#radial-gradient)"/><path d="M507.22,267l-92.7,53.52c-2.43,1.4-6.11,1.55-8.21.34L261.88,237.44a2.71,2.71,0,0,1-1.32-1.5,2.26,2.26,0,0,0,1.32,2.63L406.31,322c2.1,1.22,5.78,1.07,8.21-.34l92.7-53.51c1.6-.93,2.24-2.16,1.9-3.25A3.84,3.84,0,0,1,507.22,267Z" fill="#fff"/><g opacity="0.4"><path d="M330.77,225l-4.88-2.81c-.39-.23-.34-.62.11-.88l5.76-3.33a1.7,1.7,0,0,1,1.52-.06l4.88,2.82c.39.22.34.62-.11.88L332.3,225A1.69,1.69,0,0,1,330.77,225Z" fill="#06033e"/><path d="M338.3,229.38l-4.88-2.81c-.39-.23-.34-.62.11-.88l5.76-3.33a1.69,1.69,0,0,1,1.53-.06l4.87,2.81c.39.23.34.63-.11.89l-5.75,3.32A1.69,1.69,0,0,1,338.3,229.38Z" fill="#06033e"/><path d="M345.83,233.73,341,230.91c-.39-.22-.34-.62.11-.88l5.76-3.32a1.69,1.69,0,0,1,1.53-.06l4.87,2.81c.39.23.34.62-.11.88l-5.75,3.33A1.69,1.69,0,0,1,345.83,233.73Z" fill="#06033e"/><path d="M356.24,230.14l-4.87-2.82c-.39-.22-.34-.62.11-.88l4.83-2.79a1.69,1.69,0,0,1,1.53-.06l4.87,2.81c.39.23.34.63-.11.89l-4.83,2.79A1.69,1.69,0,0,1,356.24,230.14Z" fill="#06033e"/><path d="M363.77,234.49l-4.87-2.82c-.39-.22-.34-.62.11-.88l4.83-2.79a1.69,1.69,0,0,1,1.53-.06l4.87,2.81c.39.23.34.62-.11.88l-4.83,2.79A1.73,1.73,0,0,1,363.77,234.49Z" fill="#06033e"/><path d="M371.3,238.83,366.43,236c-.39-.23-.34-.62.11-.88l4.83-2.79a1.73,1.73,0,0,1,1.53-.07l4.87,2.82c.39.23.35.62-.11.88l-4.83,2.79A1.69,1.69,0,0,1,371.3,238.83Z" fill="#06033e"/><path d="M378.83,243.18,374,240.37c-.39-.23-.34-.62.11-.88l4.83-2.79a1.7,1.7,0,0,1,1.53-.07l4.87,2.82c.39.22.35.62-.11.88l-4.83,2.79A1.69,1.69,0,0,1,378.83,243.18Z" fill="#06033e"/><path d="M386.36,247.53l-4.87-2.82c-.39-.22-.34-.62.11-.88l4.83-2.79A1.69,1.69,0,0,1,388,241l4.87,2.82c.39.22.35.62-.11.88l-4.83,2.79A1.69,1.69,0,0,1,386.36,247.53Z" fill="#06033e"/><path d="M393.89,251.88,389,249.06c-.39-.22-.34-.62.11-.88l4.83-2.79a1.69,1.69,0,0,1,1.53-.06l4.87,2.81c.4.23.35.62-.11.88l-4.83,2.79A1.69,1.69,0,0,1,393.89,251.88Z" fill="#06033e"/><path d="M401.43,256.23l-4.88-2.82c-.39-.23-.34-.62.11-.88l4.83-2.79a1.69,1.69,0,0,1,1.53-.06l4.87,2.81c.4.23.35.62-.11.88L403,256.16A1.71,1.71,0,0,1,401.43,256.23Z" fill="#06033e"/><path d="M409,260.57l-4.88-2.81c-.39-.23-.34-.62.11-.88l4.83-2.79a1.73,1.73,0,0,1,1.53-.07l4.87,2.82c.4.22.35.62-.11.88l-4.83,2.79A1.67,1.67,0,0,1,409,260.57Z" fill="#06033e"/><path d="M416.49,264.92l-4.88-2.81c-.39-.23-.34-.63.11-.89l4.83-2.79a1.69,1.69,0,0,1,1.53-.06l4.87,2.82c.4.22.35.62-.11.88L418,264.86A1.67,1.67,0,0,1,416.49,264.92Z" fill="#06033e"/><path d="M424,269.27l-4.88-2.82c-.39-.22-.34-.62.11-.88l4.83-2.79a1.69,1.69,0,0,1,1.53-.06l4.87,2.81c.4.23.35.62-.11.89l-4.83,2.78A1.67,1.67,0,0,1,424,269.27Z" fill="#06033e"/><path d="M367.34,228.08l-4.88-2.81c-.39-.23-.34-.62.11-.89l4.83-2.79a1.73,1.73,0,0,1,1.53-.06l4.88,2.82c.39.22.34.62-.11.88L368.87,228A1.69,1.69,0,0,1,367.34,228.08Z" fill="#06033e"/><path d="M359.7,223.67l-4.88-2.82c-.39-.22-.34-.62.11-.88l4.83-2.79a1.69,1.69,0,0,1,1.53-.06l4.87,2.81c.4.23.35.62-.1.89l-4.84,2.79A1.7,1.7,0,0,1,359.7,223.67Z" fill="#06033e"/><path d="M352,219.25l-10.5-6.06c-.39-.23-.34-.63.11-.89l4.83-2.79a1.69,1.69,0,0,1,1.53-.06l10.5,6.06c.39.23.34.63-.11.89l-4.83,2.79A1.69,1.69,0,0,1,352,219.25Z" fill="#06033e"/><path d="M357.39,213.87,348.87,209c-.39-.22-.34-.62.11-.88l4.83-2.79a1.69,1.69,0,0,1,1.53-.06l8.52,4.92c.39.23.34.62-.11.88l-4.83,2.79A1.69,1.69,0,0,1,357.39,213.87Z" fill="#06033e"/><path d="M374.87,232.43,370,229.61c-.39-.22-.34-.62.11-.88l4.83-2.79a1.69,1.69,0,0,1,1.53-.06l4.88,2.81c.39.23.34.63-.11.89l-4.83,2.79A1.73,1.73,0,0,1,374.87,232.43Z" fill="#06033e"/><path d="M382.4,236.78,377.52,234c-.39-.22-.34-.62.11-.88l4.83-2.79a1.69,1.69,0,0,1,1.53-.06l4.88,2.81c.39.23.34.62-.11.88l-4.83,2.79A1.73,1.73,0,0,1,382.4,236.78Z" fill="#06033e"/><path d="M389.93,241.12l-4.88-2.81c-.39-.23-.34-.62.11-.88l4.83-2.79a1.73,1.73,0,0,1,1.53-.07l4.88,2.82c.39.23.34.62-.11.88l-4.83,2.79A1.69,1.69,0,0,1,389.93,241.12Z" fill="#06033e"/><path d="M397.46,245.47l-4.88-2.81c-.39-.23-.34-.62.11-.89l4.84-2.78a1.67,1.67,0,0,1,1.52-.07l4.88,2.82c.39.22.34.62-.11.88L399,245.41A1.69,1.69,0,0,1,397.46,245.47Z" fill="#06033e"/><path d="M405,249.82,400.11,247c-.39-.22-.34-.62.11-.88l4.84-2.79a1.67,1.67,0,0,1,1.52-.06l4.88,2.81c.39.23.34.63-.11.89l-4.83,2.79A1.69,1.69,0,0,1,405,249.82Z" fill="#06033e"/><path d="M412.52,254.17l-4.88-2.82c-.39-.22-.34-.62.11-.88l4.84-2.79a1.67,1.67,0,0,1,1.52-.06l4.88,2.81c.39.23.34.62-.11.88l-4.83,2.79A1.73,1.73,0,0,1,412.52,254.17Z" fill="#06033e"/><path d="M420.05,258.51l-4.88-2.81c-.39-.23-.34-.62.11-.88l4.84-2.79a1.71,1.71,0,0,1,1.52-.07l4.88,2.82c.39.23.34.62-.11.88l-4.83,2.79A1.69,1.69,0,0,1,420.05,258.51Z" fill="#06033e"/><path d="M427.58,262.86l-4.88-2.81c-.39-.23-.34-.62.11-.89l4.84-2.78a1.67,1.67,0,0,1,1.52-.07l4.88,2.82c.39.22.34.62-.11.88l-4.83,2.79A1.69,1.69,0,0,1,427.58,262.86Z" fill="#06033e"/><path d="M435.11,267.21l-4.87-2.82c-.4-.22-.35-.62.1-.88l4.84-2.79a1.67,1.67,0,0,1,1.52-.06l4.88,2.81c.39.23.34.63-.11.89l-4.83,2.79A1.69,1.69,0,0,1,435.11,267.21Z" fill="#06033e"/><path d="M448.5,274.94l-10.64-6.14c-.39-.23-.34-.62.11-.89l4.83-2.79a1.72,1.72,0,0,1,1.53-.06L455,271.2c.39.23.34.62-.11.89L450,274.88A1.73,1.73,0,0,1,448.5,274.94Z" fill="#06033e"/><path d="M463.16,266.47l-9-5.18c-.39-.23-.34-.62.11-.88l4.83-2.79a1.69,1.69,0,0,1,1.53-.06l9,5.18c.39.23.34.62-.11.88l-4.83,2.79A1.69,1.69,0,0,1,463.16,266.47Z" fill="#06033e"/><path d="M388.06,231.58l-4.88-2.82c-.39-.22-.34-.62.11-.88l4.83-2.79a1.69,1.69,0,0,1,1.53-.06l4.87,2.81c.4.23.35.62-.1.89l-4.84,2.78A1.67,1.67,0,0,1,388.06,231.58Z" fill="#06033e"/><path d="M380.34,227.12l-4.88-2.81c-.39-.23-.34-.62.11-.88l4.83-2.79a1.7,1.7,0,0,1,1.53-.07l4.88,2.82c.39.22.34.62-.11.88l-4.83,2.79A1.69,1.69,0,0,1,380.34,227.12Z" fill="#06033e"/><path d="M372.62,222.67l-4.87-2.82c-.4-.22-.35-.62.1-.88l4.84-2.79a1.67,1.67,0,0,1,1.52-.06l4.88,2.81c.39.23.34.62-.11.88l-4.83,2.79A1.73,1.73,0,0,1,372.62,222.67Z" fill="#06033e"/><path d="M364.9,218.21,360,215.4c-.39-.23-.34-.63.11-.89l4.83-2.79a1.69,1.69,0,0,1,1.53-.06l4.87,2.82c.39.22.34.62-.11.88l-4.83,2.79A1.69,1.69,0,0,1,364.9,218.21Z" fill="#06033e"/><path d="M395.59,235.93l-4.88-2.82c-.39-.23-.34-.62.11-.88l4.83-2.79a1.69,1.69,0,0,1,1.53-.06l4.88,2.81c.39.23.34.62-.11.88l-4.84,2.79A1.71,1.71,0,0,1,395.59,235.93Z" fill="#06033e"/><path d="M403.12,240.27l-4.88-2.81c-.39-.23-.34-.62.11-.88l4.83-2.79a1.73,1.73,0,0,1,1.53-.07l4.88,2.82c.39.22.34.62-.11.88l-4.84,2.79A1.67,1.67,0,0,1,403.12,240.27Z" fill="#06033e"/><path d="M410.65,244.62l-4.88-2.81c-.39-.23-.34-.63.11-.89l4.83-2.79a1.69,1.69,0,0,1,1.53-.06l4.88,2.82c.39.22.34.62-.11.88l-4.84,2.79A1.67,1.67,0,0,1,410.65,244.62Z" fill="#06033e"/><path d="M418.18,249l-4.88-2.82c-.39-.22-.34-.62.11-.88l4.83-2.79a1.69,1.69,0,0,1,1.53-.06l4.88,2.81c.39.23.34.62-.11.89l-4.84,2.79A1.7,1.7,0,0,1,418.18,249Z" fill="#06033e"/><path d="M425.71,253.32l-4.88-2.82c-.39-.23-.34-.62.11-.88l4.83-2.79a1.69,1.69,0,0,1,1.53-.06l4.88,2.81c.39.23.34.62-.11.88l-4.83,2.79A1.73,1.73,0,0,1,425.71,253.32Z" fill="#06033e"/><path d="M433.24,257.66l-4.88-2.81c-.39-.23-.34-.62.11-.88l4.83-2.79a1.73,1.73,0,0,1,1.53-.07l4.88,2.82c.39.23.34.62-.11.88l-4.83,2.79A1.69,1.69,0,0,1,433.24,257.66Z" fill="#06033e"/><path d="M440.77,262l-4.88-2.81c-.39-.23-.34-.62.11-.89l4.83-2.79a1.73,1.73,0,0,1,1.53-.06l4.88,2.82c.39.22.34.62-.11.88L442.3,262A1.69,1.69,0,0,1,440.77,262Z" fill="#06033e"/><path d="M448.3,266.36l-4.88-2.82c-.39-.22-.34-.62.11-.88l4.83-2.79a1.69,1.69,0,0,1,1.53-.06l4.88,2.81c.39.23.34.63-.11.89l-4.83,2.79A1.73,1.73,0,0,1,448.3,266.36Z" fill="#06033e"/><path d="M455.83,270.71,451,267.89c-.39-.22-.34-.62.11-.88l4.83-2.79a1.69,1.69,0,0,1,1.53-.06L462.3,267c.39.23.34.62-.11.88l-4.83,2.79A1.73,1.73,0,0,1,455.83,270.71Z" fill="#06033e"/><path d="M384.09,220.82,379.22,218c-.4-.23-.35-.62.1-.88l4.84-2.79a1.71,1.71,0,0,1,1.52-.07l4.88,2.82c.39.23.34.62-.11.88l-4.83,2.79A1.69,1.69,0,0,1,384.09,220.82Z" fill="#06033e"/><path d="M376.6,216.5l-4.88-2.82c-.39-.22-.34-.62.11-.88l4.83-2.79a1.69,1.69,0,0,1,1.53-.06l4.88,2.81c.39.23.34.62-.11.89l-4.83,2.79A1.73,1.73,0,0,1,376.6,216.5Z" fill="#06033e"/><path d="M369.11,212.17l-4.88-2.81c-.39-.23-.34-.62.11-.88l4.83-2.79a1.73,1.73,0,0,1,1.53-.07l4.87,2.82c.4.22.35.62-.11.88l-4.83,2.79A1.67,1.67,0,0,1,369.11,212.17Z" fill="#06033e"/><path d="M361.61,207.85,356.74,205c-.39-.22-.35-.62.11-.88l4.83-2.79a1.69,1.69,0,0,1,1.53-.06l4.87,2.81c.39.23.34.62-.11.88l-4.83,2.79A1.73,1.73,0,0,1,361.61,207.85Z" fill="#06033e"/><path d="M369.32,203.4l-4.88-2.82c-.39-.22-.34-.62.11-.88l1.6-.92a1.69,1.69,0,0,1,1.53-.06l4.87,2.81c.39.23.34.62-.11.88l-1.59.92A1.7,1.7,0,0,1,369.32,203.4Z" fill="#06033e"/><path d="M379.1,209l-4.88-2.81c-.39-.23-.34-.62.11-.88l1.6-.93a1.7,1.7,0,0,1,1.52-.06l4.88,2.82c.39.22.34.62-.11.88l-1.6.92A1.67,1.67,0,0,1,379.1,209Z" fill="#06033e"/><path d="M386.56,213.35l-4.88-2.81c-.39-.23-.34-.62.11-.89l1.6-.92a1.69,1.69,0,0,1,1.53-.06l4.87,2.81c.39.23.34.63-.11.89l-1.6.92A1.67,1.67,0,0,1,386.56,213.35Z" fill="#06033e"/><path d="M394,217.66l-4.88-2.82c-.39-.22-.34-.62.11-.88l1.6-.92a1.69,1.69,0,0,1,1.53-.06l4.87,2.81c.39.23.35.62-.11.88l-1.59.93A1.69,1.69,0,0,1,394,217.66Z" fill="#06033e"/><path d="M401.48,222l-4.88-2.82c-.39-.22-.34-.62.11-.88l1.6-.92a1.73,1.73,0,0,1,1.53-.07l4.87,2.82c.4.23.35.62-.1.88l-1.6.92A1.7,1.7,0,0,1,401.48,222Z" fill="#06033e"/><path d="M443.14,246l-4.88-2.82c-.39-.22-.34-.62.11-.88l1.6-.92a1.69,1.69,0,0,1,1.53-.06l4.87,2.81c.39.23.34.62-.11.88l-1.6.92A1.67,1.67,0,0,1,443.14,246Z" fill="#06033e"/><path d="M450.6,250.33l-4.88-2.82c-.39-.23-.34-.62.11-.88l1.6-.92a1.73,1.73,0,0,1,1.53-.07l4.87,2.82c.39.22.35.62-.11.88l-1.59.92A1.73,1.73,0,0,1,450.6,250.33Z" fill="#06033e"/><path d="M458.06,254.63l-4.88-2.81c-.39-.23-.34-.62.11-.88l1.6-.93a1.72,1.72,0,0,1,1.53-.06l4.87,2.82c.4.22.35.62-.1.88l-1.6.92A1.69,1.69,0,0,1,458.06,254.63Z" fill="#06033e"/><path d="M465.52,258.94l-4.87-2.81c-.4-.23-.35-.62.11-.89l1.59-.92a1.69,1.69,0,0,1,1.53-.06l4.88,2.81c.39.23.34.63-.11.89l-1.6.92A1.69,1.69,0,0,1,465.52,258.94Z" fill="#06033e"/><path d="M391.62,225.17l-4.87-2.81c-.4-.23-.35-.62.1-.88l4.84-2.79a1.67,1.67,0,0,1,1.52-.07l4.88,2.82c.39.22.34.62-.11.88l-4.83,2.79A1.69,1.69,0,0,1,391.62,225.17Z" fill="#06033e"/><path d="M399.15,229.52l-4.87-2.82c-.4-.22-.35-.62.11-.88l4.83-2.79a1.67,1.67,0,0,1,1.52-.06l4.88,2.82c.39.22.34.62-.11.88l-4.83,2.79A1.69,1.69,0,0,1,399.15,229.52Z" fill="#06033e"/><path d="M406.68,233.87l-4.87-2.82c-.4-.22-.35-.62.11-.88l4.83-2.79a1.67,1.67,0,0,1,1.52-.06l4.88,2.81c.39.23.34.62-.11.88l-4.83,2.79A1.7,1.7,0,0,1,406.68,233.87Z" fill="#06033e"/><path d="M414.21,238.22l-4.87-2.82c-.4-.23-.35-.62.11-.88l4.83-2.79a1.67,1.67,0,0,1,1.52-.06l4.88,2.81c.39.23.34.62-.11.88l-4.83,2.79A1.73,1.73,0,0,1,414.21,238.22Z" fill="#06033e"/><path d="M421.74,242.56l-4.87-2.81c-.4-.23-.35-.62.11-.88l4.83-2.79a1.71,1.71,0,0,1,1.52-.07l4.88,2.82c.39.22.34.62-.11.88l-4.83,2.79A1.69,1.69,0,0,1,421.74,242.56Z" fill="#06033e"/><path d="M429.27,246.91l-4.87-2.82c-.39-.22-.35-.62.11-.88l4.83-2.79a1.69,1.69,0,0,1,1.53-.06l4.87,2.82c.39.22.34.62-.11.88l-4.83,2.79A1.69,1.69,0,0,1,429.27,246.91Z" fill="#06033e"/><path d="M436.8,251.26l-4.87-2.82c-.39-.22-.35-.62.11-.88l4.83-2.79a1.69,1.69,0,0,1,1.53-.06l4.87,2.81c.39.23.34.62-.11.89l-4.83,2.78A1.7,1.7,0,0,1,436.8,251.26Z" fill="#06033e"/><path d="M444.33,255.61l-4.87-2.82c-.39-.23-.35-.62.11-.88l4.83-2.79a1.69,1.69,0,0,1,1.53-.06l4.87,2.81c.39.23.34.62-.11.88l-4.83,2.79A1.73,1.73,0,0,1,444.33,255.61Z" fill="#06033e"/><path d="M451.86,260,447,257.14c-.39-.23-.34-.62.11-.88l4.83-2.79a1.73,1.73,0,0,1,1.53-.07l4.87,2.82c.39.22.34.62-.11.88l-4.83,2.79A1.69,1.69,0,0,1,451.86,260Z" fill="#06033e"/><path d="M348.57,225.71l-14.36-8.29c-.39-.23-.34-.62.11-.88l4.83-2.79a1.73,1.73,0,0,1,1.53-.07L355,222c.39.23.34.63-.11.89l-4.83,2.79A1.69,1.69,0,0,1,348.57,225.71Z" fill="#06033e"/><path d="M441.08,279.12l-14.36-8.29c-.39-.23-.34-.62.11-.88l4.83-2.79a1.73,1.73,0,0,1,1.53-.07l14.36,8.3c.39.22.34.62-.11.88l-4.83,2.79A1.69,1.69,0,0,1,441.08,279.12Z" fill="#06033e"/><path d="M411,271.34l-4.88-2.82c-.39-.22-.34-.62.11-.88l5.76-3.32a1.71,1.71,0,0,1,1.52-.07l4.88,2.82c.39.22.34.62-.11.88l-5.76,3.32A1.71,1.71,0,0,1,411,271.34Z" fill="#06033e"/><path d="M356.28,239.76l-7.8-4.5c-.39-.22-.34-.62.11-.88l5.76-3.32a1.73,1.73,0,0,1,1.53-.07l7.79,4.51c.4.22.35.62-.11.88l-5.75,3.32A1.69,1.69,0,0,1,356.28,239.76Z" fill="#06033e"/><path d="M403.71,267.15l-7.8-4.5c-.39-.23-.34-.63.11-.89l5.76-3.32a1.69,1.69,0,0,1,1.53-.06l7.79,4.5c.39.23.35.62-.11.88l-5.75,3.32A1.7,1.7,0,0,1,403.71,267.15Z" fill="#06033e"/><path d="M367.15,246l-7.8-4.51c-.39-.22-.34-.62.11-.88l5.75-3.32a1.69,1.69,0,0,1,1.53-.06l7.8,4.5c.39.23.34.62-.11.88L368.67,246A1.71,1.71,0,0,1,367.15,246Z" fill="#06033e"/><path d="M366.79,237.3l33.91,19.57c.42.25.42.64,0,.88l-5.87,3.39a1.69,1.69,0,0,1-1.52,0L359.4,241.57Z" fill="#06033e"/><path d="M432,279.22l5.43,3.14c.32.18.28.5-.09.72L435,284.44a1.42,1.42,0,0,1-1.25.05l-5.43-3.14c-.33-.18-.28-.51.09-.72l2.35-1.36A1.38,1.38,0,0,1,432,279.22Z" fill="#06033e"/><path d="M424.42,274.84l5.43,3.13c.32.19.28.51-.09.72l-2.35,1.36a1.41,1.41,0,0,1-1.26.06L420.72,277c-.32-.19-.28-.51.09-.72l2.36-1.36A1.35,1.35,0,0,1,424.42,274.84Z" fill="#06033e"/><path d="M416.89,270.49l5.43,3.13c.32.19.28.51-.09.73l-2.35,1.36a1.44,1.44,0,0,1-1.26.05l-5.43-3.14c-.32-.18-.28-.51.09-.72l2.36-1.36A1.38,1.38,0,0,1,416.89,270.49Z" fill="#06033e"/><path d="M428.58,272.44l5.43,3.13c.32.19.28.51-.09.72l-2.35,1.36a1.41,1.41,0,0,1-1.26.06l-5.43-3.14c-.32-.19-.28-.51.09-.72l2.36-1.36A1.35,1.35,0,0,1,428.58,272.44Z" fill="#06033e"/></g><g opacity="0.4"><path d="M330.77,225l-4.88-2.81c-.39-.23-.34-.62.11-.88l5.76-3.33a1.7,1.7,0,0,1,1.52-.06l4.88,2.82c.39.22.34.62-.11.88L332.3,225A1.69,1.69,0,0,1,330.77,225Z" fill="#06033e"/><path d="M338.3,229.38l-4.88-2.81c-.39-.23-.34-.62.11-.88l5.76-3.33a1.69,1.69,0,0,1,1.53-.06l4.87,2.81c.39.23.34.63-.11.89l-5.75,3.32A1.69,1.69,0,0,1,338.3,229.38Z" fill="#06033e"/><path d="M345.83,233.73,341,230.91c-.39-.22-.34-.62.11-.88l5.76-3.32a1.69,1.69,0,0,1,1.53-.06l4.87,2.81c.39.23.34.62-.11.88l-5.75,3.33A1.69,1.69,0,0,1,345.83,233.73Z" fill="#06033e"/><path d="M356.24,230.14l-4.87-2.82c-.39-.22-.34-.62.11-.88l4.83-2.79a1.69,1.69,0,0,1,1.53-.06l4.87,2.81c.39.23.34.63-.11.89l-4.83,2.79A1.69,1.69,0,0,1,356.24,230.14Z" fill="#06033e"/><path d="M363.77,234.49l-4.87-2.82c-.39-.22-.34-.62.11-.88l4.83-2.79a1.69,1.69,0,0,1,1.53-.06l4.87,2.81c.39.23.34.62-.11.88l-4.83,2.79A1.73,1.73,0,0,1,363.77,234.49Z" fill="#06033e"/><path d="M371.3,238.83,366.43,236c-.39-.23-.34-.62.11-.88l4.83-2.79a1.73,1.73,0,0,1,1.53-.07l4.87,2.82c.39.23.35.62-.11.88l-4.83,2.79A1.69,1.69,0,0,1,371.3,238.83Z" fill="#06033e"/><path d="M378.83,243.18,374,240.37c-.39-.23-.34-.62.11-.88l4.83-2.79a1.7,1.7,0,0,1,1.53-.07l4.87,2.82c.39.22.35.62-.11.88l-4.83,2.79A1.69,1.69,0,0,1,378.83,243.18Z" fill="#06033e"/><path d="M386.36,247.53l-4.87-2.82c-.39-.22-.34-.62.11-.88l4.83-2.79A1.69,1.69,0,0,1,388,241l4.87,2.82c.39.22.35.62-.11.88l-4.83,2.79A1.69,1.69,0,0,1,386.36,247.53Z" fill="#06033e"/><path d="M393.89,251.88,389,249.06c-.39-.22-.34-.62.11-.88l4.83-2.79a1.69,1.69,0,0,1,1.53-.06l4.87,2.81c.4.23.35.62-.11.88l-4.83,2.79A1.69,1.69,0,0,1,393.89,251.88Z" fill="#06033e"/><path d="M401.43,256.23l-4.88-2.82c-.39-.23-.34-.62.11-.88l4.83-2.79a1.69,1.69,0,0,1,1.53-.06l4.87,2.81c.4.23.35.62-.11.88L403,256.16A1.71,1.71,0,0,1,401.43,256.23Z" fill="#06033e"/><path d="M409,260.57l-4.88-2.81c-.39-.23-.34-.62.11-.88l4.83-2.79a1.73,1.73,0,0,1,1.53-.07l4.87,2.82c.4.22.35.62-.11.88l-4.83,2.79A1.67,1.67,0,0,1,409,260.57Z" fill="#06033e"/><path d="M416.49,264.92l-4.88-2.81c-.39-.23-.34-.63.11-.89l4.83-2.79a1.69,1.69,0,0,1,1.53-.06l4.87,2.82c.4.22.35.62-.11.88L418,264.86A1.67,1.67,0,0,1,416.49,264.92Z" fill="#06033e"/><path d="M424,269.27l-4.88-2.82c-.39-.22-.34-.62.11-.88l4.83-2.79a1.69,1.69,0,0,1,1.53-.06l4.87,2.81c.4.23.35.62-.11.89l-4.83,2.78A1.67,1.67,0,0,1,424,269.27Z" fill="#06033e"/><path d="M367.34,228.08l-4.88-2.81c-.39-.23-.34-.62.11-.89l4.83-2.79a1.73,1.73,0,0,1,1.53-.06l4.88,2.82c.39.22.34.62-.11.88L368.87,228A1.69,1.69,0,0,1,367.34,228.08Z" fill="#06033e"/><path d="M359.7,223.67l-4.88-2.82c-.39-.22-.34-.62.11-.88l4.83-2.79a1.69,1.69,0,0,1,1.53-.06l4.87,2.81c.4.23.35.62-.1.89l-4.84,2.79A1.7,1.7,0,0,1,359.7,223.67Z" fill="#06033e"/><path d="M352,219.25l-10.5-6.06c-.39-.23-.34-.63.11-.89l4.83-2.79a1.69,1.69,0,0,1,1.53-.06l10.5,6.06c.39.23.34.63-.11.89l-4.83,2.79A1.69,1.69,0,0,1,352,219.25Z" fill="#06033e"/><path d="M357.39,213.87,348.87,209c-.39-.22-.34-.62.11-.88l4.83-2.79a1.69,1.69,0,0,1,1.53-.06l8.52,4.92c.39.23.34.62-.11.88l-4.83,2.79A1.69,1.69,0,0,1,357.39,213.87Z" fill="#06033e"/><path d="M374.87,232.43,370,229.61c-.39-.22-.34-.62.11-.88l4.83-2.79a1.69,1.69,0,0,1,1.53-.06l4.88,2.81c.39.23.34.63-.11.89l-4.83,2.79A1.73,1.73,0,0,1,374.87,232.43Z" fill="#06033e"/><path d="M382.4,236.78,377.52,234c-.39-.22-.34-.62.11-.88l4.83-2.79a1.69,1.69,0,0,1,1.53-.06l4.88,2.81c.39.23.34.62-.11.88l-4.83,2.79A1.73,1.73,0,0,1,382.4,236.78Z" fill="#06033e"/><path d="M389.93,241.12l-4.88-2.81c-.39-.23-.34-.62.11-.88l4.83-2.79a1.73,1.73,0,0,1,1.53-.07l4.88,2.82c.39.23.34.62-.11.88l-4.83,2.79A1.69,1.69,0,0,1,389.93,241.12Z" fill="#06033e"/><path d="M397.46,245.47l-4.88-2.81c-.39-.23-.34-.62.11-.89l4.84-2.78a1.67,1.67,0,0,1,1.52-.07l4.88,2.82c.39.22.34.62-.11.88L399,245.41A1.69,1.69,0,0,1,397.46,245.47Z" fill="#06033e"/><path d="M405,249.82,400.11,247c-.39-.22-.34-.62.11-.88l4.84-2.79a1.67,1.67,0,0,1,1.52-.06l4.88,2.81c.39.23.34.63-.11.89l-4.83,2.79A1.69,1.69,0,0,1,405,249.82Z" fill="#06033e"/><path d="M412.52,254.17l-4.88-2.82c-.39-.22-.34-.62.11-.88l4.84-2.79a1.67,1.67,0,0,1,1.52-.06l4.88,2.81c.39.23.34.62-.11.88l-4.83,2.79A1.73,1.73,0,0,1,412.52,254.17Z" fill="#06033e"/><path d="M420.05,258.51l-4.88-2.81c-.39-.23-.34-.62.11-.88l4.84-2.79a1.71,1.71,0,0,1,1.52-.07l4.88,2.82c.39.23.34.62-.11.88l-4.83,2.79A1.69,1.69,0,0,1,420.05,258.51Z" fill="#06033e"/><path d="M427.58,262.86l-4.88-2.81c-.39-.23-.34-.62.11-.89l4.84-2.78a1.67,1.67,0,0,1,1.52-.07l4.88,2.82c.39.22.34.62-.11.88l-4.83,2.79A1.69,1.69,0,0,1,427.58,262.86Z" fill="#06033e"/><path d="M435.11,267.21l-4.87-2.82c-.4-.22-.35-.62.1-.88l4.84-2.79a1.67,1.67,0,0,1,1.52-.06l4.88,2.81c.39.23.34.63-.11.89l-4.83,2.79A1.69,1.69,0,0,1,435.11,267.21Z" fill="#06033e"/><path d="M448.5,274.94l-10.64-6.14c-.39-.23-.34-.62.11-.89l4.83-2.79a1.72,1.72,0,0,1,1.53-.06L455,271.2c.39.23.34.62-.11.89L450,274.88A1.73,1.73,0,0,1,448.5,274.94Z" fill="#06033e"/><path d="M463.16,266.47l-9-5.18c-.39-.23-.34-.62.11-.88l4.83-2.79a1.69,1.69,0,0,1,1.53-.06l9,5.18c.39.23.34.62-.11.88l-4.83,2.79A1.69,1.69,0,0,1,463.16,266.47Z" fill="#06033e"/><path d="M388.06,231.58l-4.88-2.82c-.39-.22-.34-.62.11-.88l4.83-2.79a1.69,1.69,0,0,1,1.53-.06l4.87,2.81c.4.23.35.62-.1.89l-4.84,2.78A1.67,1.67,0,0,1,388.06,231.58Z" fill="#06033e"/><path d="M380.34,227.12l-4.88-2.81c-.39-.23-.34-.62.11-.88l4.83-2.79a1.7,1.7,0,0,1,1.53-.07l4.88,2.82c.39.22.34.62-.11.88l-4.83,2.79A1.69,1.69,0,0,1,380.34,227.12Z" fill="#06033e"/><path d="M372.62,222.67l-4.87-2.82c-.4-.22-.35-.62.1-.88l4.84-2.79a1.67,1.67,0,0,1,1.52-.06l4.88,2.81c.39.23.34.62-.11.88l-4.83,2.79A1.73,1.73,0,0,1,372.62,222.67Z" fill="#06033e"/><path d="M364.9,218.21,360,215.4c-.39-.23-.34-.63.11-.89l4.83-2.79a1.69,1.69,0,0,1,1.53-.06l4.87,2.82c.39.22.34.62-.11.88l-4.83,2.79A1.69,1.69,0,0,1,364.9,218.21Z" fill="#06033e"/><path d="M395.59,235.93l-4.88-2.82c-.39-.23-.34-.62.11-.88l4.83-2.79a1.69,1.69,0,0,1,1.53-.06l4.88,2.81c.39.23.34.62-.11.88l-4.84,2.79A1.71,1.71,0,0,1,395.59,235.93Z" fill="#06033e"/><path d="M403.12,240.27l-4.88-2.81c-.39-.23-.34-.62.11-.88l4.83-2.79a1.73,1.73,0,0,1,1.53-.07l4.88,2.82c.39.22.34.62-.11.88l-4.84,2.79A1.67,1.67,0,0,1,403.12,240.27Z" fill="#06033e"/><path d="M410.65,244.62l-4.88-2.81c-.39-.23-.34-.63.11-.89l4.83-2.79a1.69,1.69,0,0,1,1.53-.06l4.88,2.82c.39.22.34.62-.11.88l-4.84,2.79A1.67,1.67,0,0,1,410.65,244.62Z" fill="#06033e"/><path d="M418.18,249l-4.88-2.82c-.39-.22-.34-.62.11-.88l4.83-2.79a1.69,1.69,0,0,1,1.53-.06l4.88,2.81c.39.23.34.62-.11.89l-4.84,2.79A1.7,1.7,0,0,1,418.18,249Z" fill="#06033e"/><path d="M425.71,253.32l-4.88-2.82c-.39-.23-.34-.62.11-.88l4.83-2.79a1.69,1.69,0,0,1,1.53-.06l4.88,2.81c.39.23.34.62-.11.88l-4.83,2.79A1.73,1.73,0,0,1,425.71,253.32Z" fill="#06033e"/><path d="M433.24,257.66l-4.88-2.81c-.39-.23-.34-.62.11-.88l4.83-2.79a1.73,1.73,0,0,1,1.53-.07l4.88,2.82c.39.23.34.62-.11.88l-4.83,2.79A1.69,1.69,0,0,1,433.24,257.66Z" fill="#06033e"/><path d="M440.77,262l-4.88-2.81c-.39-.23-.34-.62.11-.89l4.83-2.79a1.73,1.73,0,0,1,1.53-.06l4.88,2.82c.39.22.34.62-.11.88L442.3,262A1.69,1.69,0,0,1,440.77,262Z" fill="#06033e"/><path d="M448.3,266.36l-4.88-2.82c-.39-.22-.34-.62.11-.88l4.83-2.79a1.69,1.69,0,0,1,1.53-.06l4.88,2.81c.39.23.34.63-.11.89l-4.83,2.79A1.73,1.73,0,0,1,448.3,266.36Z" fill="#06033e"/><path d="M455.83,270.71,451,267.89c-.39-.22-.34-.62.11-.88l4.83-2.79a1.69,1.69,0,0,1,1.53-.06L462.3,267c.39.23.34.62-.11.88l-4.83,2.79A1.73,1.73,0,0,1,455.83,270.71Z" fill="#06033e"/><path d="M384.09,220.82,379.22,218c-.4-.23-.35-.62.1-.88l4.84-2.79a1.71,1.71,0,0,1,1.52-.07l4.88,2.82c.39.23.34.62-.11.88l-4.83,2.79A1.69,1.69,0,0,1,384.09,220.82Z" fill="#06033e"/><path d="M376.6,216.5l-4.88-2.82c-.39-.22-.34-.62.11-.88l4.83-2.79a1.69,1.69,0,0,1,1.53-.06l4.88,2.81c.39.23.34.62-.11.89l-4.83,2.79A1.73,1.73,0,0,1,376.6,216.5Z" fill="#06033e"/><path d="M369.11,212.17l-4.88-2.81c-.39-.23-.34-.62.11-.88l4.83-2.79a1.73,1.73,0,0,1,1.53-.07l4.87,2.82c.4.22.35.62-.11.88l-4.83,2.79A1.67,1.67,0,0,1,369.11,212.17Z" fill="#06033e"/><path d="M361.61,207.85,356.74,205c-.39-.22-.35-.62.11-.88l4.83-2.79a1.69,1.69,0,0,1,1.53-.06l4.87,2.81c.39.23.34.62-.11.88l-4.83,2.79A1.73,1.73,0,0,1,361.61,207.85Z" fill="#06033e"/><path d="M369.32,203.4l-4.88-2.82c-.39-.22-.34-.62.11-.88l1.6-.92a1.69,1.69,0,0,1,1.53-.06l4.87,2.81c.39.23.34.62-.11.88l-1.59.92A1.7,1.7,0,0,1,369.32,203.4Z" fill="#06033e"/><path d="M379.1,209l-4.88-2.81c-.39-.23-.34-.62.11-.88l1.6-.93a1.7,1.7,0,0,1,1.52-.06l4.88,2.82c.39.22.34.62-.11.88l-1.6.92A1.67,1.67,0,0,1,379.1,209Z" fill="#06033e"/><path d="M386.56,213.35l-4.88-2.81c-.39-.23-.34-.62.11-.89l1.6-.92a1.69,1.69,0,0,1,1.53-.06l4.87,2.81c.39.23.34.63-.11.89l-1.6.92A1.67,1.67,0,0,1,386.56,213.35Z" fill="#06033e"/><path d="M394,217.66l-4.88-2.82c-.39-.22-.34-.62.11-.88l1.6-.92a1.69,1.69,0,0,1,1.53-.06l4.87,2.81c.39.23.35.62-.11.88l-1.59.93A1.69,1.69,0,0,1,394,217.66Z" fill="#06033e"/><path d="M401.48,222l-4.88-2.82c-.39-.22-.34-.62.11-.88l1.6-.92a1.73,1.73,0,0,1,1.53-.07l4.87,2.82c.4.23.35.62-.1.88l-1.6.92A1.7,1.7,0,0,1,401.48,222Z" fill="#06033e"/><path d="M443.14,246l-4.88-2.82c-.39-.22-.34-.62.11-.88l1.6-.92a1.69,1.69,0,0,1,1.53-.06l4.87,2.81c.39.23.34.62-.11.88l-1.6.92A1.67,1.67,0,0,1,443.14,246Z" fill="#06033e"/><path d="M450.6,250.33l-4.88-2.82c-.39-.23-.34-.62.11-.88l1.6-.92a1.73,1.73,0,0,1,1.53-.07l4.87,2.82c.39.22.35.62-.11.88l-1.59.92A1.73,1.73,0,0,1,450.6,250.33Z" fill="#06033e"/><path d="M458.06,254.63l-4.88-2.81c-.39-.23-.34-.62.11-.88l1.6-.93a1.72,1.72,0,0,1,1.53-.06l4.87,2.82c.4.22.35.62-.1.88l-1.6.92A1.69,1.69,0,0,1,458.06,254.63Z" fill="#06033e"/><path d="M465.52,258.94l-4.87-2.81c-.4-.23-.35-.62.11-.89l1.59-.92a1.69,1.69,0,0,1,1.53-.06l4.88,2.81c.39.23.34.63-.11.89l-1.6.92A1.69,1.69,0,0,1,465.52,258.94Z" fill="#06033e"/><path d="M391.62,225.17l-4.87-2.81c-.4-.23-.35-.62.1-.88l4.84-2.79a1.67,1.67,0,0,1,1.52-.07l4.88,2.82c.39.22.34.62-.11.88l-4.83,2.79A1.69,1.69,0,0,1,391.62,225.17Z" fill="#06033e"/><path d="M399.15,229.52l-4.87-2.82c-.4-.22-.35-.62.11-.88l4.83-2.79a1.67,1.67,0,0,1,1.52-.06l4.88,2.82c.39.22.34.62-.11.88l-4.83,2.79A1.69,1.69,0,0,1,399.15,229.52Z" fill="#06033e"/><path d="M406.68,233.87l-4.87-2.82c-.4-.22-.35-.62.11-.88l4.83-2.79a1.67,1.67,0,0,1,1.52-.06l4.88,2.81c.39.23.34.62-.11.88l-4.83,2.79A1.7,1.7,0,0,1,406.68,233.87Z" fill="#06033e"/><path d="M414.21,238.22l-4.87-2.82c-.4-.23-.35-.62.11-.88l4.83-2.79a1.67,1.67,0,0,1,1.52-.06l4.88,2.81c.39.23.34.62-.11.88l-4.83,2.79A1.73,1.73,0,0,1,414.21,238.22Z" fill="#06033e"/><path d="M421.74,242.56l-4.87-2.81c-.4-.23-.35-.62.11-.88l4.83-2.79a1.71,1.71,0,0,1,1.52-.07l4.88,2.82c.39.22.34.62-.11.88l-4.83,2.79A1.69,1.69,0,0,1,421.74,242.56Z" fill="#06033e"/><path d="M429.27,246.91l-4.87-2.82c-.39-.22-.35-.62.11-.88l4.83-2.79a1.69,1.69,0,0,1,1.53-.06l4.87,2.82c.39.22.34.62-.11.88l-4.83,2.79A1.69,1.69,0,0,1,429.27,246.91Z" fill="#06033e"/><path d="M436.8,251.26l-4.87-2.82c-.39-.22-.35-.62.11-.88l4.83-2.79a1.69,1.69,0,0,1,1.53-.06l4.87,2.81c.39.23.34.62-.11.89l-4.83,2.78A1.7,1.7,0,0,1,436.8,251.26Z" fill="#06033e"/><path d="M444.33,255.61l-4.87-2.82c-.39-.23-.35-.62.11-.88l4.83-2.79a1.69,1.69,0,0,1,1.53-.06l4.87,2.81c.39.23.34.62-.11.88l-4.83,2.79A1.73,1.73,0,0,1,444.33,255.61Z" fill="#06033e"/><path d="M451.86,260,447,257.14c-.39-.23-.34-.62.11-.88l4.83-2.79a1.73,1.73,0,0,1,1.53-.07l4.87,2.82c.39.22.34.62-.11.88l-4.83,2.79A1.69,1.69,0,0,1,451.86,260Z" fill="#06033e"/><path d="M348.57,225.71l-14.36-8.29c-.39-.23-.34-.62.11-.88l4.83-2.79a1.73,1.73,0,0,1,1.53-.07L355,222c.39.23.34.63-.11.89l-4.83,2.79A1.69,1.69,0,0,1,348.57,225.71Z" fill="#06033e"/><path d="M441.08,279.12l-14.36-8.29c-.39-.23-.34-.62.11-.88l4.83-2.79a1.73,1.73,0,0,1,1.53-.07l14.36,8.3c.39.22.34.62-.11.88l-4.83,2.79A1.69,1.69,0,0,1,441.08,279.12Z" fill="#06033e"/><path d="M411,271.34l-4.88-2.82c-.39-.22-.34-.62.11-.88l5.76-3.32a1.71,1.71,0,0,1,1.52-.07l4.88,2.82c.39.22.34.62-.11.88l-5.76,3.32A1.71,1.71,0,0,1,411,271.34Z" fill="#06033e"/><path d="M356.28,239.76l-7.8-4.5c-.39-.22-.34-.62.11-.88l5.76-3.32a1.73,1.73,0,0,1,1.53-.07l7.79,4.51c.4.22.35.62-.11.88l-5.75,3.32A1.69,1.69,0,0,1,356.28,239.76Z" fill="#06033e"/><path d="M403.71,267.15l-7.8-4.5c-.39-.23-.34-.63.11-.89l5.76-3.32a1.69,1.69,0,0,1,1.53-.06l7.79,4.5c.39.23.35.62-.11.88l-5.75,3.32A1.7,1.7,0,0,1,403.71,267.15Z" fill="#06033e"/><path d="M367.15,246l-7.8-4.51c-.39-.22-.34-.62.11-.88l5.75-3.32a1.69,1.69,0,0,1,1.53-.06l7.8,4.5c.39.23.34.62-.11.88L368.67,246A1.71,1.71,0,0,1,367.15,246Z" fill="#06033e"/><path d="M366.79,237.3l33.91,19.57c.42.25.42.64,0,.88l-5.87,3.39a1.69,1.69,0,0,1-1.52,0L359.4,241.57Z" fill="#06033e"/><path d="M432,279.22l5.43,3.14c.32.18.28.5-.09.72L435,284.44a1.42,1.42,0,0,1-1.25.05l-5.43-3.14c-.33-.18-.28-.51.09-.72l2.35-1.36A1.38,1.38,0,0,1,432,279.22Z" fill="#06033e"/><path d="M424.42,274.84l5.43,3.13c.32.19.28.51-.09.72l-2.35,1.36a1.41,1.41,0,0,1-1.26.06L420.72,277c-.32-.19-.28-.51.09-.72l2.36-1.36A1.35,1.35,0,0,1,424.42,274.84Z" fill="#06033e"/><path d="M416.89,270.49l5.43,3.13c.32.19.28.51-.09.73l-2.35,1.36a1.44,1.44,0,0,1-1.26.05l-5.43-3.14c-.32-.18-.28-.51.09-.72l2.36-1.36A1.38,1.38,0,0,1,416.89,270.49Z" fill="#06033e"/><path d="M428.58,272.44l5.43,3.13c.32.19.28.51-.09.72l-2.35,1.36a1.41,1.41,0,0,1-1.26.06l-5.43-3.14c-.32-.19-.28-.51.09-.72l2.36-1.36A1.35,1.35,0,0,1,428.58,272.44Z" fill="#06033e"/></g><path d="M508.27,263.64,364.41,180.58a6.38,6.38,0,0,1-2.64-7.11L394.31,67.84c.8-2.62,3.29-3.68,5.55-2.38l143.87,83.06a6.37,6.37,0,0,1,2.63,7.11L513.83,261.26C513,263.88,510.54,265,508.27,263.64Z" fill="url(#_ÂÁ_Ï_ÌÌ_È_ËÂÌÚ_343)"/><path d="M506.92,259.94,367.38,179.31a6.07,6.07,0,0,1-2.52-6.8l31.1-101c.77-2.51,3.15-3.53,5.31-2.28l139.54,80.63a6.1,6.1,0,0,1,2.53,6.8l-31.11,101C511.46,260.17,509.08,261.19,506.92,259.94Z" fill="url(#_ÂÁ_Ï_ÌÌ_È_ËÂÌÚ_441)"/><path d="M506.92,259.94,367.38,179.31a6.07,6.07,0,0,1-2.52-6.8l31.1-101c.77-2.51,3.15-3.53,5.31-2.28l139.54,80.63a6.1,6.1,0,0,1,2.53,6.8l-31.11,101C511.46,260.17,509.08,261.19,506.92,259.94Z" fill="#06033e" opacity="0.4"/><path d="M506.92,259.94,367.38,179.31a6.07,6.07,0,0,1-2.52-6.8l31.1-101c.77-2.51,3.15-3.53,5.31-2.28l139.54,80.63a6.1,6.1,0,0,1,2.53,6.8l-31.11,101C511.46,260.17,509.08,261.19,506.92,259.94Z" fill="#06033e" opacity="0.4"/><path d="M499.42,229.08,405,174.54a4.16,4.16,0,0,1-1.73-4.66l21.36-69.36A2.42,2.42,0,0,1,428.24,99l94.46,54.53a4.19,4.19,0,0,1,1.73,4.67l-21.36,69.36A2.42,2.42,0,0,1,499.42,229.08Z" fill="#06033e" opacity="0.5"/><path d="M486.66,230.75,392.2,176.22a4.18,4.18,0,0,1-1.73-4.67l21.36-69.36a2.42,2.42,0,0,1,3.65-1.56l94.46,54.54a4.19,4.19,0,0,1,1.73,4.67L490.3,229.19A2.42,2.42,0,0,1,486.66,230.75Z" fill="url(#_ÂÁ_Ï_ÌÌ_È_ËÂÌÚ_343-2)"/><g opacity="0.5"><path d="M486.66,230.75,392.2,176.22a4.18,4.18,0,0,1-1.73-4.67l21.36-69.36a2.42,2.42,0,0,1,3.65-1.56l94.46,54.54a4.19,4.19,0,0,1,1.73,4.67L490.3,229.19A2.42,2.42,0,0,1,486.66,230.75Z" fill="#06033e"/></g><path d="M509.94,155.17l-94.46-54.54a2.36,2.36,0,0,0-2.66.09,2.58,2.58,0,0,1,1.36.35l94.46,54.54a4.18,4.18,0,0,1,1.73,4.67L489,229.63a2.83,2.83,0,0,1-1,1.47,2.48,2.48,0,0,0,2.28-1.91l21.37-69.35A4.19,4.19,0,0,0,509.94,155.17Z" fill="#fff"/><path d="M367.52,287.39a7.1,7.1,0,0,1-3.5-.82h0l-37.84-21.85a2.72,2.72,0,0,1-1.56-2.33,3.57,3.57,0,0,1,2.09-2.89l19.48-11.25a8.74,8.74,0,0,1,8-.31L392,269.79a2.77,2.77,0,0,1,1.56,2.34,3.58,3.58,0,0,1-2.09,2.89L372,286.27A9.17,9.17,0,0,1,367.52,287.39Zm-16.86-39.16a8,8,0,0,0-3.92,1l-19.49,11.24c-1,.57-1.54,1.28-1.54,1.95a1.75,1.75,0,0,0,1,1.39l37.85,21.85a7.75,7.75,0,0,0,6.86-.31l19.48-11.25c1-.56,1.54-1.27,1.54-1.94a1.73,1.73,0,0,0-1-1.39L353.6,248.89A6.08,6.08,0,0,0,350.66,248.23Z" fill="#06033e" opacity="0.4"/><path d="M438.48,137l-5.84-3.37A1.54,1.54,0,0,1,432,132h0a.87.87,0,0,1,1.32-.55l5.84,3.37a1.54,1.54,0,0,1,.65,1.68h0A.87.87,0,0,1,438.48,137Z" fill="#fff"/><path d="M452.39,145.05l-8.61-5a1.53,1.53,0,0,1-.65-1.68h0a.88.88,0,0,1,1.32-.55l8.61,5a1.54,1.54,0,0,1,.65,1.68h0A.87.87,0,0,1,452.39,145.05Z" fill="#fff"/><path d="M426.71,163l-5.84-3.37a1.51,1.51,0,0,1-.65-1.68h0a.86.86,0,0,1,1.31-.55l5.84,3.37a1.54,1.54,0,0,1,.65,1.68h0A.86.86,0,0,1,426.71,163Z" fill="#fff"/><path d="M439.11,170.18l-8.62-5a1.52,1.52,0,0,1-.64-1.68h0a.86.86,0,0,1,1.31-.55l8.61,5a1.54,1.54,0,0,1,.65,1.68h0A.86.86,0,0,1,439.11,170.18Z" fill="#fff"/><path d="M421,132.39l-3.65-2.11a1.53,1.53,0,0,1-.65-1.68h0a.87.87,0,0,1,1.31-.55l3.65,2.11a1.51,1.51,0,0,1,.65,1.68h0A.87.87,0,0,1,421,132.39Z" fill="#fff"/><path d="M432,144.19l-11.15-6.44a1.52,1.52,0,0,1-.65-1.67h0a.86.86,0,0,1,1.31-.55L432.63,142a1.54,1.54,0,0,1,.65,1.68h0A.86.86,0,0,1,432,144.19Z" fill="#fff"/><path d="M421.69,149.19,418,147.08a1.53,1.53,0,0,1-.65-1.68h0a.86.86,0,0,1,1.31-.54l3.65,2.1a1.53,1.53,0,0,1,.65,1.68h0A.86.86,0,0,1,421.69,149.19Z" fill="#fff"/><path d="M440.45,181.89l-9.74-5.63a1.5,1.5,0,0,1-.65-1.68h0a.86.86,0,0,1,1.31-.54l9.74,5.62a1.5,1.5,0,0,1,.65,1.68h0A.86.86,0,0,1,440.45,181.89Z" fill="#fff"/><path d="M417.6,157.76l-2.34-1.35a1.5,1.5,0,0,1-.65-1.68h0a.86.86,0,0,1,1.31-.55l2.34,1.35a1.54,1.54,0,0,1,.65,1.68h0A.86.86,0,0,1,417.6,157.76Z" fill="#fff"/><path d="M415.38,167.41l-2.91-1.68a1.52,1.52,0,0,1-.65-1.67h0a.87.87,0,0,1,1.32-.55l2.9,1.68a1.5,1.5,0,0,1,.65,1.68h0A.86.86,0,0,1,415.38,167.41Z" fill="#fff"/><path d="M426.69,174,419,169.52a1.52,1.52,0,0,1-.65-1.68h0a.87.87,0,0,1,1.31-.55l7.67,4.43a1.53,1.53,0,0,1,.65,1.68h0A.88.88,0,0,1,426.69,174Z" fill="#fff"/><path d="M416.59,173.58l-5.51-3.18a1.53,1.53,0,0,1-.65-1.68h0a.87.87,0,0,1,1.32-.55l5.51,3.19a1.52,1.52,0,0,1,.65,1.67h0A.87.87,0,0,1,416.59,173.58Z" fill="#fff"/><path d="M448.81,186.74l-3.54-2.05a1.53,1.53,0,0,1-.65-1.68h0a.86.86,0,0,1,1.31-.54l3.54,2a1.5,1.5,0,0,1,.65,1.68h0A.86.86,0,0,1,448.81,186.74Z" fill="#fff"/><path d="M435.26,157l-9.75-5.62a1.54,1.54,0,0,1-.65-1.68h0a.87.87,0,0,1,1.32-.55l9.74,5.63a1.53,1.53,0,0,1,.65,1.68h0A.86.86,0,0,1,435.26,157Z" fill="#fff"/><path d="M436.41,152.22l-17-9.8a1.53,1.53,0,0,1-.65-1.68h0a.86.86,0,0,1,1.31-.55l17,9.81a1.51,1.51,0,0,1,.64,1.68h0A.86.86,0,0,1,436.41,152.22Z" fill="#e8975b"/><path d="M426.39,157.37l-9.74-5.63a1.49,1.49,0,0,1-.65-1.67h0a.86.86,0,0,1,1.31-.55l9.74,5.62a1.51,1.51,0,0,1,.65,1.68h0A.86.86,0,0,1,426.39,157.37Z" fill="#e8975b"/><path d="M442.65,161.29l-3.54-2a1.51,1.51,0,0,1-.65-1.68h0a.86.86,0,0,1,1.31-.55l3.54,2a1.54,1.54,0,0,1,.65,1.68h0A.86.86,0,0,1,442.65,161.29Z" fill="#e8975b"/><path d="M478.66,160.21l-21-12.1a1.53,1.53,0,0,1-.65-1.68h0a.88.88,0,0,1,1.32-.55l21,12.11a1.53,1.53,0,0,1,.65,1.68h0A.86.86,0,0,1,478.66,160.21Z" fill="#e8975b"/><path d="M425.58,167.83l-11.72-6.76a1.53,1.53,0,0,1-.65-1.68h0a.87.87,0,0,1,1.32-.54l11.71,6.76a1.53,1.53,0,0,1,.65,1.68h0A.86.86,0,0,1,425.58,167.83Z" fill="#f8359e"/><path d="M427.34,130.59l-8.61-5a1.54,1.54,0,0,1-.65-1.68h0a.87.87,0,0,1,1.32-.55l8.61,5a1.53,1.53,0,0,1,.65,1.68h0A.87.87,0,0,1,427.34,130.59Z" fill="#f8359e"/><path d="M414.79,178l-10-5.76a1.53,1.53,0,0,1-.65-1.68h0a.87.87,0,0,1,1.31-.55l10,5.76a1.53,1.53,0,0,1,.65,1.68h0A.87.87,0,0,1,414.79,178Z" fill="#e8975b"/><path d="M481,149.43,476.74,147a1.12,1.12,0,0,1-.47-1.23h0a.63.63,0,0,1,1-.4l4.27,2.47A1.11,1.11,0,0,1,482,149h0A.63.63,0,0,1,481,149.43Z" fill="#fff"/><path d="M489.15,154.13l-4.27-2.46a1.13,1.13,0,0,1-.47-1.23h0a.63.63,0,0,1,1-.4l4.27,2.47a1.1,1.1,0,0,1,.47,1.22h0A.63.63,0,0,1,489.15,154.13Z" fill="#fff"/><path d="M497.3,158.83,493,156.37a1.12,1.12,0,0,1-.48-1.23h0a.63.63,0,0,1,1-.4l4.27,2.47a1.09,1.09,0,0,1,.47,1.22h0A.62.62,0,0,1,497.3,158.83Z" fill="#fff"/><path d="M501.3,161.15l-.13-.08a1.12,1.12,0,0,1-.48-1.23h0a.63.63,0,0,1,1-.4l.13.08a1.12,1.12,0,0,1,.48,1.23h0A.63.63,0,0,1,501.3,161.15Z" fill="#f8359e"/><path d="M145.09,155.69a15.63,15.63,0,0,1-7.81-2.09h0l-28.6-16.51a4,4,0,0,1,0-6.86l28.6-16.5a15.62,15.62,0,0,1,15.62,0l28.6,16.5a4,4,0,0,1,0,6.86L152.9,153.6A15.63,15.63,0,0,1,145.09,155.69Zm-6.88-3.7A13.8,13.8,0,0,0,152,152l28.6-16.51a2.09,2.09,0,0,0,0-3.63L152,115.34a13.77,13.77,0,0,0-13.76,0l-28.6,16.51a2.09,2.09,0,0,0,0,3.63Z" fill="url(#_ÂÁ_Ï_ÌÌ_È_ËÂÌÚ_33-5)"/><ellipse cx="144.94" cy="134.05" rx="19.64" ry="11.34" fill="#020230" opacity="0.6"/><path d="M174.06,53.23H118.12l5.2,60.57h0c0,3.37,2.22,6.73,6.67,9.3,8.89,5.13,23.31,5.13,32.2,0,4.44-2.57,6.67-5.93,6.67-9.3Z" fill="url(#radial-gradient-2)"/><path d="M174.06,53.23H118.12l.85,10a21.69,21.69,0,0,0,5.19,4.66c10.69,7.09,28.33,8.46,40.36,3.35l-1.86,44.3a8.69,8.69,0,0,1-2,5.28c-1.81,2.14-5.3,4.65-12,6.07a31.75,31.75,0,0,0,13.54-3.76c4.44-2.57,6.67-5.93,6.67-9.3L173,65.23h0Z" fill="#06033e" opacity="0.4"/><ellipse cx="146.09" cy="53.23" rx="27.97" ry="16.15" fill="#06033e" opacity="0.4"/><ellipse cx="146.09" cy="47.54" rx="24.09" ry="13.91" fill="#06033e" opacity="0.4"/><path d="M175.72,52.47h0v-.14l-.54-5.42,0,.06c-.24-4.1-3.06-8.17-8.49-11.3-11.36-6.56-29.77-6.56-41.13,0-5.56,3.21-8.39,7.4-8.5,11.61h0l-.51,4.83c0,.12,0,.25,0,.37v.08h0c-.31,4.6,2.57,9.26,8.66,12.77,11.58,6.69,30.36,6.69,41.94,0C173.18,61.8,176.07,57.1,175.72,52.47Z" fill="url(#_ÂÁ_Ï_ÌÌ_È_ËÂÌÚ_144)"/><ellipse cx="146.09" cy="47.54" rx="24.09" ry="13.91" fill="url(#_ÂÁ_Ï_ÌÌ_È_ËÂÌÚ_483)"/><ellipse cx="144.94" cy="47.54" rx="24.09" ry="13.91" fill="url(#_ÂÁ_Ï_ÌÌ_È_ËÂÌÚ_483-2)"/><path d="M131.91,39.78c9.41-5.44,24.66-5.44,34.07,0l.34.21a18.72,18.72,0,0,0-3.2-2.28c-9.41-5.44-24.66-5.44-34.07,0s-9.39,14-.33,19.46C122.67,51.77,123.73,44.5,131.91,39.78Z" fill="#06033e" opacity="0.4"/><path d="M129.05,40.12c9.41-5.43,24.66-5.43,34.07,0,4.18,2.41,6.49,5.48,7,8.63.59-4-1.73-8-7-11-9.41-5.44-24.66-5.44-34.07,0-5.23,3-7.55,7.1-7,11C122.56,45.6,124.88,42.53,129.05,40.12Z" fill="url(#_ÂÁ_Ï_ÌÌ_È_ËÂÌÚ_193)"/><path d="M166.83,35.81C155.49,29.13,137,29,125.55,35.44S114,52.59,125.34,59.27s29.83,6.85,41.28.37S178.17,42.49,166.83,35.81Zm-3.71,21.57a31.62,31.62,0,0,1-11,3.61l-.44-1.44a1.38,1.38,0,0,0-1.32-1h-8.65a1.39,1.39,0,0,0-1.32,1L140,61a31.74,31.74,0,0,1-11-3.61c-9.41-5.44-9.41-14.24,0-19.68s24.66-5.43,34.07,0S172.53,51.94,163.12,57.38Z" fill="url(#_ÂÁ_Ï_ÌÌ_È_ËÂÌÚ_223)"/><path d="M163.12,36.68c-9.41-5.44-24.66-5.44-34.07,0-4.93,2.84-7.27,6.62-7,10.34.21-3.38,2.55-6.73,7-9.32,9.41-5.43,24.66-5.43,34.07,0,4.48,2.58,6.82,5.93,7,9.32C170.4,43.3,168.05,39.52,163.12,36.68Z" fill="#fff"/><path d="M166.62,58.61c-11.45,6.48-29.93,6.32-41.28-.37-5.39-3.18-8.19-7.26-8.42-11.36-.22,4.44,2.58,8.95,8.42,12.39,11.35,6.69,29.83,6.85,41.28.37,6-3.4,8.88-8,8.63-12.47C175,51.35,172.17,55.47,166.62,58.61Z" fill="#fff"/><rect x="142.85" y="60.34" width="6.48" height="1.4" rx="0.65" fill="#0c0a78"/><path d="M148.67,60.34H143.5a.65.65,0,0,0-.65.65v.09a1.13,1.13,0,0,0,0,.18.64.64,0,0,1,.62-.48h5.17a.64.64,0,0,1,.62.48.58.58,0,0,0,0-.18V61A.66.66,0,0,0,148.67,60.34Z" fill="url(#_ÂÁ_Ï_ÌÌ_È_ËÂÌÚ_193-2)"/><path d="M147.92,61s15.64-5.24,9.31-23.22S138.56,14.38,143.53,0c0,0-7.78,11.64-.51,27.38s8.87,13.94,8.79,21.47A13.61,13.61,0,0,1,144.48,61Z" fill="#fff" opacity="0.5"/><polygon points="0 479.79 545 419.18 545 109.27 0 169.87 0 479.79" fill="none"/></g></g></svg>