<svg xmlns="http://www.w3.org/2000/svg" xmlns:xlink="http://www.w3.org/1999/xlink" viewBox="0 0 801.05 412.14"><defs><linearGradient id="_ÂÁ_Ï_ÌÌ_È_ËÂÌÚ_33" x1="490.13" y1="295.8" x2="782.49" y2="295.8" gradientUnits="userSpaceOnUse"><stop offset="0" stop-color="#e39a65"/><stop offset="1" stop-color="#e95f8d"/></linearGradient><radialGradient id="_ÂÁ_Ï_ÌÌ_È_ËÂÌÚ_113" cx="651.62" cy="79.34" r="223.3" gradientUnits="userSpaceOnUse"><stop offset="0" stop-color="#e39a65"/><stop offset="0.47" stop-color="#a92ffb"/><stop offset="0.59" stop-color="#891cfb"/><stop offset="0.74" stop-color="#6507fa"/><stop offset="0.8" stop-color="#0d0c6f"/></radialGradient><radialGradient id="_ÂÁ_Ï_ÌÌ_È_ËÂÌÚ_109" cx="515.04" cy="258.67" r="244.17" gradientUnits="userSpaceOnUse"><stop offset="0" stop-color="#e39a65"/><stop offset="0.47" stop-color="#a92ffb"/><stop offset="0.57" stop-color="#891cfb"/><stop offset="0.68" stop-color="#6507fa"/><stop offset="0.74" stop-color="#0d0c6f"/></radialGradient><radialGradient id="radial-gradient" cx="537.5" cy="209.66" r="218.96" gradientUnits="userSpaceOnUse"><stop offset="0" stop-color="#ffc75f"/><stop offset="0.47" stop-color="#9554ff"/><stop offset="0.6" stop-color="#7a44d3"/><stop offset="0.88" stop-color="#432378"/><stop offset="1" stop-color="#2d1654"/></radialGradient><radialGradient id="_ÂÁ_Ï_ÌÌ_È_ËÂÌÚ_343" cx="592.05" cy="125.92" r="223.34" gradientUnits="userSpaceOnUse"><stop offset="0" stop-color="#e39a65"/><stop offset="0.47" stop-color="#a92ffb"/><stop offset="0.59" stop-color="#891cfb"/><stop offset="0.73" stop-color="#6507fa"/><stop offset="1" stop-color="#3919bb"/></radialGradient><linearGradient id="_ÂÁ_Ï_ÌÌ_È_ËÂÌÚ_441" x1="616.6" y1="184.55" x2="795.56" y2="184.55" gradientUnits="userSpaceOnUse"><stop offset="0" stop-color="#3919bb"/><stop offset="1" stop-color="#6507fa"/></linearGradient><radialGradient id="_ÂÁ_Ï_ÌÌ_È_ËÂÌÚ_343-2" cx="510.52" cy="78.23" r="347.85" xlink:href="#_ÂÁ_Ï_ÌÌ_È_ËÂÌÚ_343"/><radialGradient id="radial-gradient-2" cx="30.65" cy="323.89" r="165.35" gradientUnits="userSpaceOnUse"><stop offset="0" stop-color="#e39a65"/><stop offset="0.15" stop-color="#9554ff"/><stop offset="0.41" stop-color="#3919bb"/><stop offset="0.93" stop-color="#3919bb"/></radialGradient><linearGradient id="_ÂÁ_Ï_ÌÌ_È_ËÂÌÚ_144" x1="33.58" y1="303.41" x2="92.89" y2="303.41" gradientUnits="userSpaceOnUse"><stop offset="0" stop-color="#e39a65"/><stop offset="0.25" stop-color="#a92ffb"/><stop offset="0.56" stop-color="#3919bb"/></linearGradient><linearGradient id="_ÂÁ_Ï_ÌÌ_È_ËÂÌÚ_483" x1="39.14" y1="300.4" x2="87.32" y2="300.4" gradientUnits="userSpaceOnUse"><stop offset="0" stop-color="#4f1fec"/><stop offset="1" stop-color="#a92ffb"/></linearGradient><linearGradient id="_ÂÁ_Ï_ÌÌ_È_ËÂÌÚ_483-2" x1="37.99" y1="300.4" x2="86.18" y2="300.4" xlink:href="#_ÂÁ_Ï_ÌÌ_È_ËÂÌÚ_483"/><linearGradient id="_ÂÁ_Ï_ÌÌ_È_ËÂÌÚ_193" x1="39.14" y1="294.04" x2="99.89" y2="294.04" gradientUnits="userSpaceOnUse"><stop offset="0" stop-color="#131060"/><stop offset="0.19" stop-color="#141062"/><stop offset="0.28" stop-color="#19106a"/><stop offset="0.36" stop-color="#221078"/><stop offset="0.42" stop-color="#2e0f8b"/><stop offset="0.48" stop-color="#3e0fa3"/><stop offset="0.54" stop-color="#510ec2"/><stop offset="0.58" stop-color="#680de5"/><stop offset="0.61" stop-color="#740df8"/><stop offset="0.62" stop-color="#7a14f0"/><stop offset="0.68" stop-color="#9b3cc3"/><stop offset="0.75" stop-color="#b75d9d"/><stop offset="0.81" stop-color="#cc7680"/><stop offset="0.88" stop-color="#dc886c"/><stop offset="0.94" stop-color="#e5935f"/><stop offset="1" stop-color="#e8975b"/></linearGradient><radialGradient id="_ÂÁ_Ï_ÌÌ_È_ËÂÌÚ_223" cx="26.17" cy="286.63" r="108.16" gradientUnits="userSpaceOnUse"><stop offset="0" stop-color="#e39a65"/><stop offset="0.25" stop-color="#a92ffb"/><stop offset="0.74" stop-color="#3919bb"/></radialGradient><linearGradient id="_ÂÁ_Ï_ÌÌ_È_ËÂÌÚ_193-2" x1="59.42" y1="313.65" x2="67.82" y2="313.65" xlink:href="#_ÂÁ_Ï_ÌÌ_È_ËÂÌÚ_193"/><linearGradient id="linear-gradient" x1="186.37" y1="234.62" x2="186.87" y2="234.62" gradientUnits="userSpaceOnUse"><stop offset="0" stop-color="#ff9670"/><stop offset="1" stop-color="#ff6f91"/></linearGradient><linearGradient id="linear-gradient-2" x1="186.37" y1="238.19" x2="186.87" y2="238.19" gradientTransform="translate(424.81 48) rotate(90)" xlink:href="#linear-gradient"/><linearGradient id="linear-gradient-3" x1="49.16" y1="85.03" x2="56.22" y2="85.03" gradientUnits="userSpaceOnUse"><stop offset="0" stop-color="#584d6e"/><stop offset="1" stop-color="#9554ff"/></linearGradient><linearGradient id="linear-gradient-5" x1="713.16" y1="59.34" x2="725.11" y2="59.34" xlink:href="#linear-gradient"/><linearGradient id="linear-gradient-6" x1="442.09" y1="16.35" x2="450.05" y2="24.31" xlink:href="#linear-gradient"/><linearGradient id="linear-gradient-7" x1="202.14" y1="144.17" x2="208.65" y2="150.68" gradientTransform="translate(326.67 -67.64) rotate(90)" gradientUnits="userSpaceOnUse"><stop offset="0" stop-color="#9554ff"/><stop offset="1" stop-color="#ff6f91"/></linearGradient><linearGradient id="linear-gradient-8" x1="362.86" y1="359.84" x2="363.36" y2="359.84" xlink:href="#linear-gradient"/><linearGradient id="linear-gradient-9" x1="644.86" y1="23.19" x2="647.73" y2="23.19" xlink:href="#linear-gradient-3"/><linearGradient id="linear-gradient-10" x1="362.28" y1="45.09" x2="365.15" y2="45.09" xlink:href="#linear-gradient-3"/><linearGradient id="linear-gradient-11" x1="138.7" y1="362.47" x2="141.57" y2="362.47" xlink:href="#linear-gradient"/><linearGradient id="linear-gradient-12" x1="147.69" y1="27.1" x2="150.57" y2="27.1" xlink:href="#linear-gradient"/><linearGradient id="linear-gradient-13" x1="752.9" y1="410.01" x2="755.78" y2="410.01" xlink:href="#linear-gradient"/><linearGradient id="linear-gradient-14" x1="5.06" y1="410.65" x2="7.94" y2="410.65" xlink:href="#linear-gradient-3"/><linearGradient id="linear-gradient-15" x1="0" y1="1.49" x2="2.88" y2="1.49" gradientTransform="matrix(1, 0, 0, 1, 0, 0)" xlink:href="#linear-gradient-7"/><linearGradient id="linear-gradient-16" x1="410.02" y1="201.29" x2="412.9" y2="201.29" gradientTransform="matrix(1, 0, 0, 1, 0, 0)" xlink:href="#linear-gradient-7"/><linearGradient id="linear-gradient-17" x1="568.91" y1="13.73" x2="570.06" y2="13.73" gradientTransform="matrix(1, 0, 0, 1, 0, 0)" xlink:href="#linear-gradient-7"/><linearGradient id="linear-gradient-18" x1="254.92" y1="33.66" x2="256.07" y2="33.66" gradientTransform="matrix(1, 0, 0, 1, 0, 0)" xlink:href="#linear-gradient-7"/><linearGradient id="linear-gradient-19" x1="298.21" y1="280.3" x2="299.36" y2="280.3" gradientTransform="matrix(1, 0, 0, 1, 0, 0)" xlink:href="#linear-gradient-7"/><linearGradient id="linear-gradient-20" x1="267.23" y1="104.42" x2="268.38" y2="104.42" gradientTransform="matrix(1, 0, 0, 1, 0, 0)" xlink:href="#linear-gradient-7"/><linearGradient id="linear-gradient-21" x1="503.46" y1="104.42" x2="506.34" y2="104.42" gradientTransform="matrix(1, 0, 0, 1, 0, 0)" xlink:href="#linear-gradient-7"/><linearGradient id="linear-gradient-22" x1="27.34" y1="180" x2="30.21" y2="180" xlink:href="#linear-gradient-3"/><linearGradient id="linear-gradient-23" x1="310.4" y1="212.97" x2="313.28" y2="212.97" gradientTransform="matrix(1, 0, 0, 1, 0, 0)" xlink:href="#linear-gradient-7"/><linearGradient id="linear-gradient-24" x1="522.7" y1="388.86" x2="525.57" y2="388.86" gradientTransform="matrix(1, 0, 0, 1, 0, 0)" xlink:href="#linear-gradient-7"/><linearGradient id="linear-gradient-25" x1="444.67" y1="308.99" x2="445.17" y2="308.99" gradientTransform="matrix(1, 0, 0, 1, 0, 0)" xlink:href="#linear-gradient-7"/><linearGradient id="linear-gradient-26" x1="444.67" y1="308.99" x2="445.17" y2="308.99" gradientTransform="translate(753.91 -135.93) rotate(90)" xlink:href="#linear-gradient-7"/><linearGradient id="linear-gradient-27" x1="385.4" y1="118.16" x2="386.55" y2="118.16" gradientTransform="matrix(1, 0, 0, 1, 0, 0)" xlink:href="#linear-gradient-7"/></defs><title>programme-illustration</title><g id="Layer_2" data-name="Layer 2"><g id="_ÎÓÈ_1" data-name="—ÎÓÈ_1"><path d="M658.29,366,513.86,282.63c-2.11-1.21-1.84-3.34.59-4.74l92.7-53.52c2.43-1.4,6.1-1.56,8.21-.34l144.43,83.39c2.11,1.21,1.84,3.34-.59,4.74l-92.7,53.52C664.07,367.08,660.4,367.23,658.29,366Z" fill="#020230" opacity="0.6"/><path d="M661.6,381.07a9.3,9.3,0,0,1-4.55-1.06h0L492.22,284.84a3.69,3.69,0,0,1-2.09-3.16c0-1.44,1-2.85,2.76-3.87L605.25,212c3.09-1.78,7.61-1.95,10.31-.39L780.4,306.76a3.69,3.69,0,0,1,2.09,3.16c0,1.44-1,2.85-2.76,3.86L667.36,379.62A11.81,11.81,0,0,1,661.6,381.07ZM611,212.39a10,10,0,0,0-4.85,1.2L493.83,279.42c-1.16.67-1.84,1.51-1.84,2.26a2,2,0,0,0,1.16,1.55L658,378.4h0c2.1,1.21,6,1,8.44-.39l112.36-65.84c1.15-.66,1.84-1.5,1.84-2.25a2,2,0,0,0-1.16-1.55L614.63,213.2A7.38,7.38,0,0,0,611,212.39Z" fill="url(#_ÂÁ_Ï_ÌÌ_È_ËÂÌÚ_33)"/><path d="M798.16,167.62,654.3,84.56a3.72,3.72,0,0,0-2.94-.42h0l-2.67.93.94.22a4.65,4.65,0,0,0-.88,1.65L616.21,192.57a6.36,6.36,0,0,0,2.64,7.11l143.86,83.06a4.14,4.14,0,0,0,1.06.43l-.36.77,2.54-.89h0a4.08,4.08,0,0,0,2.31-2.69L800.8,174.73A6.38,6.38,0,0,0,798.16,167.62Z" fill="url(#_ÂÁ_Ï_ÌÌ_È_ËÂÌÚ_113)"/><path d="M757.56,286.68l.05.06-142.1-82c-2.09-1.21-5.74-1.06-8.15.34l-91.81,53-3.06-1.16.85,4.29h0a2.58,2.58,0,0,0,1.38,1.72l143.41,82.8c2.09,1.2,5.74,1.05,8.15-.34l92.05-53.14a3.7,3.7,0,0,0,1.95-2.28h0l.88-4.18Z" fill="url(#_ÂÁ_Ï_ÌÌ_È_ËÂÌÚ_109)"/><path d="M658.29,341.91,513.86,258.52c-2.11-1.21-1.84-3.34.59-4.74l92.7-53.52c2.43-1.4,6.1-1.56,8.21-.34l144.43,83.39c2.11,1.21,1.84,3.34-.59,4.74l-92.7,53.52C664.07,343,660.4,343.12,658.29,341.91Z" fill="url(#radial-gradient)"/><path d="M759.2,286.92l-92.7,53.52c-2.43,1.41-6.1,1.56-8.21.34L513.86,257.4a2.68,2.68,0,0,1-1.31-1.5,2.25,2.25,0,0,0,1.31,2.62l144.43,83.39c2.11,1.21,5.78,1.06,8.21-.34l92.7-53.52c1.6-.93,2.24-2.16,1.9-3.25A3.77,3.77,0,0,1,759.2,286.92Z" fill="#fff"/><g opacity="0.4"><path d="M582.75,245l-4.87-2.82c-.4-.22-.35-.62.1-.88l5.76-3.32a1.73,1.73,0,0,1,1.53-.07l4.87,2.82c.4.23.35.62-.11.88l-5.75,3.32A1.7,1.7,0,0,1,582.75,245Z" fill="#06033e"/><path d="M590.28,249.34l-4.87-2.82c-.4-.23-.35-.62.11-.88l5.75-3.32a1.7,1.7,0,0,1,1.53-.07l4.87,2.82c.4.22.35.62-.11.88l-5.75,3.32A1.73,1.73,0,0,1,590.28,249.34Z" fill="#06033e"/><path d="M597.81,253.68l-4.87-2.81c-.4-.23-.35-.62.11-.88l5.75-3.33a1.69,1.69,0,0,1,1.53-.06l4.87,2.82c.4.22.35.62-.11.88l-5.75,3.32A1.69,1.69,0,0,1,597.81,253.68Z" fill="#06033e"/><path d="M608.23,250.09l-4.88-2.81c-.39-.23-.34-.62.11-.88l4.83-2.79a1.73,1.73,0,0,1,1.53-.07l4.88,2.82c.39.22.34.62-.11.88L609.75,250A1.67,1.67,0,0,1,608.23,250.09Z" fill="#06033e"/><path d="M615.76,254.44l-4.88-2.81c-.39-.23-.34-.63.11-.89l4.83-2.79a1.69,1.69,0,0,1,1.53-.06l4.88,2.82c.39.22.34.62-.11.88l-4.84,2.79A1.67,1.67,0,0,1,615.76,254.44Z" fill="#06033e"/><path d="M623.29,258.79,618.41,256c-.39-.22-.34-.62.11-.88l4.83-2.79a1.69,1.69,0,0,1,1.53-.06l4.88,2.81c.39.23.34.62-.11.89l-4.84,2.78A1.67,1.67,0,0,1,623.29,258.79Z" fill="#06033e"/><path d="M630.82,263.14l-4.88-2.82c-.39-.23-.34-.62.11-.88l4.83-2.79a1.69,1.69,0,0,1,1.53-.06l4.88,2.81c.39.23.34.62-.11.88l-4.84,2.79A1.71,1.71,0,0,1,630.82,263.14Z" fill="#06033e"/><path d="M638.35,267.48l-4.88-2.81c-.39-.23-.34-.62.11-.88l4.83-2.79a1.73,1.73,0,0,1,1.53-.07l4.88,2.82c.39.22.34.62-.11.88l-4.83,2.79A1.69,1.69,0,0,1,638.35,267.48Z" fill="#06033e"/><path d="M645.88,271.83,641,269c-.39-.23-.34-.63.11-.89l4.83-2.79a1.73,1.73,0,0,1,1.53-.06l4.88,2.82c.39.22.34.62-.11.88l-4.83,2.79A1.69,1.69,0,0,1,645.88,271.83Z" fill="#06033e"/><path d="M653.41,276.18l-4.88-2.82c-.39-.22-.34-.62.11-.88l4.83-2.79a1.69,1.69,0,0,1,1.53-.06l4.88,2.81c.39.23.34.62-.11.89l-4.83,2.79A1.73,1.73,0,0,1,653.41,276.18Z" fill="#06033e"/><path d="M660.94,280.53l-4.88-2.82c-.39-.22-.34-.62.11-.88L661,274a1.69,1.69,0,0,1,1.53-.06l4.88,2.81c.39.23.34.62-.11.88l-4.83,2.79A1.73,1.73,0,0,1,660.94,280.53Z" fill="#06033e"/><path d="M668.47,284.87l-4.88-2.81c-.39-.23-.34-.62.11-.88l4.83-2.79a1.73,1.73,0,0,1,1.53-.07l4.88,2.82c.39.23.34.62-.11.88L670,284.81A1.69,1.69,0,0,1,668.47,284.87Z" fill="#06033e"/><path d="M676,289.22l-4.88-2.81c-.39-.23-.34-.62.11-.89l4.83-2.79a1.73,1.73,0,0,1,1.53-.06l4.88,2.82c.39.22.34.62-.11.88l-4.83,2.79A1.69,1.69,0,0,1,676,289.22Z" fill="#06033e"/><path d="M619.32,248l-4.87-2.81c-.4-.23-.35-.62.11-.88l4.83-2.79a1.71,1.71,0,0,1,1.52-.07l4.88,2.82c.39.23.34.62-.11.88L620.85,248A1.69,1.69,0,0,1,619.32,248Z" fill="#06033e"/><path d="M611.68,243.62l-4.88-2.81c-.39-.23-.34-.62.11-.88l4.83-2.79a1.7,1.7,0,0,1,1.53-.07l4.88,2.82c.39.22.34.62-.11.88l-4.83,2.79A1.69,1.69,0,0,1,611.68,243.62Z" fill="#06033e"/><path d="M604,239.2l-10.5-6.06c-.39-.23-.34-.62.11-.88l4.83-2.79a1.73,1.73,0,0,1,1.53-.07l10.5,6.07c.39.22.35.62-.11.88l-4.83,2.79A1.69,1.69,0,0,1,604,239.2Z" fill="#06033e"/><path d="M609.38,233.83l-8.53-4.92c-.39-.23-.34-.62.11-.88l4.83-2.79a1.7,1.7,0,0,1,1.53-.07l8.52,4.92c.4.23.35.62-.11.88l-4.83,2.79A1.67,1.67,0,0,1,609.38,233.83Z" fill="#06033e"/><path d="M626.85,252.38,622,249.57c-.4-.23-.35-.62.11-.88l4.83-2.79a1.67,1.67,0,0,1,1.52-.07l4.88,2.82c.39.22.34.62-.11.88l-4.83,2.79A1.69,1.69,0,0,1,626.85,252.38Z" fill="#06033e"/><path d="M634.38,256.73l-4.87-2.82c-.4-.22-.35-.62.11-.88l4.83-2.79a1.69,1.69,0,0,1,1.53-.06l4.87,2.82c.39.22.34.62-.11.88l-4.83,2.79A1.69,1.69,0,0,1,634.38,256.73Z" fill="#06033e"/><path d="M641.91,261.08,637,258.26c-.39-.22-.35-.62.11-.88l4.83-2.79a1.69,1.69,0,0,1,1.53-.06l4.87,2.81c.39.23.34.62-.11.88L643.44,261A1.7,1.7,0,0,1,641.91,261.08Z" fill="#06033e"/><path d="M649.44,265.43l-4.87-2.82c-.39-.23-.35-.62.11-.88l4.83-2.79a1.69,1.69,0,0,1,1.53-.06l4.87,2.81c.39.23.34.62-.11.88L651,265.36A1.73,1.73,0,0,1,649.44,265.43Z" fill="#06033e"/><path d="M657,269.77,652.1,267c-.39-.23-.35-.62.11-.88l4.83-2.79a1.73,1.73,0,0,1,1.53-.07l4.87,2.82c.39.22.34.62-.11.88l-4.83,2.79A1.69,1.69,0,0,1,657,269.77Z" fill="#06033e"/><path d="M664.5,274.12l-4.87-2.81c-.39-.23-.34-.63.11-.89l4.83-2.79a1.69,1.69,0,0,1,1.53-.06l4.87,2.82c.39.22.34.62-.11.88L666,274.06A1.69,1.69,0,0,1,664.5,274.12Z" fill="#06033e"/><path d="M672,278.47l-4.87-2.82c-.39-.22-.34-.62.11-.88L672.1,272a1.69,1.69,0,0,1,1.53-.06l4.87,2.81c.39.23.34.62-.11.89l-4.83,2.78A1.69,1.69,0,0,1,672,278.47Z" fill="#06033e"/><path d="M679.56,282.82,674.69,280c-.39-.23-.34-.62.11-.88l4.83-2.79a1.69,1.69,0,0,1,1.53-.06l4.87,2.81c.39.23.35.62-.11.88l-4.83,2.79A1.73,1.73,0,0,1,679.56,282.82Z" fill="#06033e"/><path d="M687.09,287.16l-4.87-2.81c-.39-.23-.34-.62.11-.88l4.83-2.79a1.73,1.73,0,0,1,1.53-.07l4.87,2.82c.39.22.35.62-.11.88l-4.83,2.79A1.69,1.69,0,0,1,687.09,287.16Z" fill="#06033e"/><path d="M700.48,294.89l-10.64-6.14c-.39-.23-.34-.62.11-.88l4.83-2.79a1.73,1.73,0,0,1,1.53-.07L707,291.16c.39.22.34.62-.11.88L702,294.83A1.69,1.69,0,0,1,700.48,294.89Z" fill="#06033e"/><path d="M715.14,286.43l-9-5.19c-.39-.22-.34-.62.11-.88l4.83-2.79a1.69,1.69,0,0,1,1.53-.06l9,5.18c.39.23.34.62-.11.89l-4.83,2.78A1.7,1.7,0,0,1,715.14,286.43Z" fill="#06033e"/><path d="M640,251.53l-4.88-2.81c-.39-.23-.34-.62.11-.89l4.83-2.78a1.7,1.7,0,0,1,1.53-.07l4.88,2.82c.39.22.34.62-.11.88l-4.83,2.79A1.69,1.69,0,0,1,640,251.53Z" fill="#06033e"/><path d="M632.32,247.08l-4.87-2.82c-.4-.23-.35-.62.11-.88l4.83-2.79a1.67,1.67,0,0,1,1.52-.06l4.88,2.81c.39.23.34.62-.11.88L633.85,247A1.73,1.73,0,0,1,632.32,247.08Z" fill="#06033e"/><path d="M624.6,242.62l-4.87-2.82c-.39-.22-.34-.62.11-.88l4.83-2.79a1.69,1.69,0,0,1,1.53-.06l4.87,2.82c.39.22.35.62-.11.88l-4.83,2.79A1.69,1.69,0,0,1,624.6,242.62Z" fill="#06033e"/><path d="M616.89,238.16,612,235.35c-.39-.23-.34-.62.11-.88l4.83-2.79a1.73,1.73,0,0,1,1.53-.07l4.88,2.82c.39.23.34.62-.11.88l-4.84,2.79A1.67,1.67,0,0,1,616.89,238.16Z" fill="#06033e"/><path d="M647.57,255.88l-4.88-2.82c-.39-.22-.34-.62.11-.88l4.83-2.79a1.69,1.69,0,0,1,1.53-.06l4.88,2.81c.39.23.34.63-.11.89l-4.83,2.79A1.69,1.69,0,0,1,647.57,255.88Z" fill="#06033e"/><path d="M655.1,260.23l-4.88-2.82c-.39-.22-.34-.62.11-.88l4.83-2.79a1.69,1.69,0,0,1,1.53-.06l4.88,2.81c.39.23.34.62-.11.88l-4.83,2.79A1.73,1.73,0,0,1,655.1,260.23Z" fill="#06033e"/><path d="M662.63,264.57l-4.88-2.81c-.39-.23-.34-.62.11-.88l4.84-2.79a1.71,1.71,0,0,1,1.52-.07l4.88,2.82c.39.23.34.62-.11.88l-4.83,2.79A1.69,1.69,0,0,1,662.63,264.57Z" fill="#06033e"/><path d="M670.16,268.92l-4.88-2.81c-.39-.23-.34-.62.11-.88l4.84-2.79a1.67,1.67,0,0,1,1.52-.07l4.88,2.82c.39.22.34.62-.11.88l-4.83,2.79A1.69,1.69,0,0,1,670.16,268.92Z" fill="#06033e"/><path d="M677.69,273.27l-4.88-2.82c-.39-.22-.34-.62.11-.88l4.84-2.79a1.67,1.67,0,0,1,1.52-.06l4.88,2.82c.39.22.34.62-.11.88l-4.83,2.79A1.69,1.69,0,0,1,677.69,273.27Z" fill="#06033e"/><path d="M685.22,277.62l-4.88-2.82c-.39-.22-.34-.62.11-.88l4.84-2.79a1.67,1.67,0,0,1,1.52-.06l4.88,2.81c.39.23.34.62-.11.88l-4.83,2.79A1.7,1.7,0,0,1,685.22,277.62Z" fill="#06033e"/><path d="M692.75,282l-4.87-2.81c-.4-.23-.35-.62.1-.88l4.84-2.79a1.67,1.67,0,0,1,1.52-.06l4.88,2.81c.39.23.34.62-.11.88l-4.83,2.79A1.69,1.69,0,0,1,692.75,282Z" fill="#06033e"/><path d="M700.28,286.31l-4.87-2.81c-.4-.23-.35-.62.11-.88l4.83-2.79a1.67,1.67,0,0,1,1.52-.07l4.88,2.82c.39.22.34.62-.11.88l-4.83,2.79A1.69,1.69,0,0,1,700.28,286.31Z" fill="#06033e"/><path d="M707.81,290.66l-4.87-2.82c-.4-.22-.35-.62.11-.88l4.83-2.79a1.67,1.67,0,0,1,1.52-.06l4.88,2.82c.39.22.34.62-.11.88l-4.83,2.79A1.69,1.69,0,0,1,707.81,290.66Z" fill="#06033e"/><path d="M636.07,240.78,631.2,238c-.39-.22-.34-.62.11-.88l4.83-2.79a1.69,1.69,0,0,1,1.53-.06l4.87,2.81c.39.23.35.62-.11.89l-4.83,2.78A1.69,1.69,0,0,1,636.07,240.78Z" fill="#06033e"/><path d="M628.58,236.45l-4.87-2.81c-.4-.23-.35-.62.11-.88l4.83-2.79a1.67,1.67,0,0,1,1.52-.07l4.88,2.82c.39.22.34.62-.11.88l-4.83,2.79A1.69,1.69,0,0,1,628.58,236.45Z" fill="#06033e"/><path d="M621.09,232.13l-4.88-2.82c-.39-.23-.34-.62.11-.88l4.83-2.79a1.69,1.69,0,0,1,1.53-.06l4.88,2.81c.39.23.34.62-.11.88l-4.83,2.79A1.73,1.73,0,0,1,621.09,232.13Z" fill="#06033e"/><path d="M613.6,227.8,608.72,225c-.39-.23-.34-.63.11-.89l4.83-2.79a1.69,1.69,0,0,1,1.53-.06l4.87,2.82c.4.22.35.62-.11.88l-4.83,2.79A1.67,1.67,0,0,1,613.6,227.8Z" fill="#06033e"/><path d="M621.3,223.35l-4.88-2.81c-.39-.23-.34-.62.11-.89l1.6-.92a1.69,1.69,0,0,1,1.53-.06l4.88,2.81c.39.23.34.63-.11.89l-1.6.92A1.69,1.69,0,0,1,621.3,223.35Z" fill="#06033e"/><path d="M631.08,229l-4.88-2.82c-.39-.22-.34-.62.11-.88l1.6-.92a1.73,1.73,0,0,1,1.53-.07l4.87,2.82c.39.23.35.62-.11.88l-1.59.92A1.73,1.73,0,0,1,631.08,229Z" fill="#06033e"/><path d="M638.54,233.31l-4.88-2.82c-.39-.23-.34-.62.11-.88l1.6-.92a1.7,1.7,0,0,1,1.53-.07l4.87,2.82c.4.22.35.62-.1.88l-1.6.92A1.73,1.73,0,0,1,638.54,233.31Z" fill="#06033e"/><path d="M646,237.61l-4.87-2.81c-.4-.23-.35-.62.11-.88l1.59-.93a1.69,1.69,0,0,1,1.53-.06l4.88,2.82c.39.22.34.62-.11.88l-1.6.92A1.69,1.69,0,0,1,646,237.61Z" fill="#06033e"/><path d="M653.46,241.92l-4.87-2.81c-.39-.23-.34-.63.11-.89l1.59-.92a1.69,1.69,0,0,1,1.53-.06l4.88,2.81c.39.23.34.62-.11.89l-1.6.92A1.69,1.69,0,0,1,653.46,241.92Z" fill="#06033e"/><path d="M695.12,266l-4.88-2.81c-.39-.23-.34-.62.11-.89l1.6-.92a1.69,1.69,0,0,1,1.53-.06l4.87,2.81c.4.23.35.63-.1.89l-1.6.92A1.69,1.69,0,0,1,695.12,266Z" fill="#06033e"/><path d="M702.58,270.28l-4.87-2.82c-.4-.22-.35-.62.11-.88l1.59-.92a1.69,1.69,0,0,1,1.53-.06l4.88,2.81c.39.23.34.62-.11.88l-1.6.93A1.69,1.69,0,0,1,702.58,270.28Z" fill="#06033e"/><path d="M710,274.59l-4.87-2.82c-.39-.22-.34-.62.11-.88l1.59-.92a1.69,1.69,0,0,1,1.53-.06l4.88,2.81c.39.23.34.62-.11.88l-1.6.92A1.69,1.69,0,0,1,710,274.59Z" fill="#06033e"/><path d="M717.51,278.9l-4.88-2.82c-.39-.23-.34-.62.11-.88l1.6-.92a1.71,1.71,0,0,1,1.52-.07l4.88,2.82c.39.22.34.62-.11.88l-1.6.92A1.71,1.71,0,0,1,717.51,278.9Z" fill="#06033e"/><path d="M643.6,245.13l-4.87-2.82c-.39-.23-.34-.62.11-.88l4.83-2.79a1.69,1.69,0,0,1,1.53-.06l4.87,2.81c.39.23.35.62-.11.88l-4.83,2.79A1.73,1.73,0,0,1,643.6,245.13Z" fill="#06033e"/><path d="M651.13,249.47l-4.87-2.81c-.39-.23-.34-.62.11-.88L651.2,243a1.73,1.73,0,0,1,1.53-.07l4.87,2.82c.39.22.35.62-.11.88l-4.83,2.79A1.69,1.69,0,0,1,651.13,249.47Z" fill="#06033e"/><path d="M658.67,253.82,653.79,251c-.39-.23-.34-.63.11-.89l4.83-2.79a1.72,1.72,0,0,1,1.53-.06l4.87,2.82c.4.22.35.62-.11.88l-4.83,2.79A1.67,1.67,0,0,1,658.67,253.82Z" fill="#06033e"/><path d="M666.2,258.17l-4.88-2.82c-.39-.22-.34-.62.11-.88l4.83-2.79a1.69,1.69,0,0,1,1.53-.06l4.87,2.81c.4.23.35.62-.11.89l-4.83,2.79A1.7,1.7,0,0,1,666.2,258.17Z" fill="#06033e"/><path d="M673.73,262.52l-4.88-2.82c-.39-.23-.34-.62.11-.88l4.83-2.79a1.69,1.69,0,0,1,1.53-.06l4.87,2.81c.4.23.35.62-.11.88l-4.83,2.79A1.71,1.71,0,0,1,673.73,262.52Z" fill="#06033e"/><path d="M681.26,266.86l-4.88-2.81c-.39-.23-.34-.62.11-.88l4.83-2.79a1.73,1.73,0,0,1,1.53-.07l4.87,2.82c.4.23.35.62-.11.88l-4.83,2.79A1.67,1.67,0,0,1,681.26,266.86Z" fill="#06033e"/><path d="M688.79,271.21l-4.88-2.81c-.39-.23-.34-.62.11-.89l4.83-2.79a1.72,1.72,0,0,1,1.53-.06l4.87,2.82c.4.22.35.62-.1.88l-4.84,2.79A1.67,1.67,0,0,1,688.79,271.21Z" fill="#06033e"/><path d="M696.32,275.56l-4.88-2.82c-.39-.22-.34-.62.11-.88l4.83-2.79a1.69,1.69,0,0,1,1.53-.06l4.88,2.81c.39.23.34.63-.11.89l-4.84,2.79A1.67,1.67,0,0,1,696.32,275.56Z" fill="#06033e"/><path d="M703.85,279.91,699,277.09c-.39-.22-.34-.62.11-.88l4.83-2.79a1.69,1.69,0,0,1,1.53-.06l4.88,2.81c.39.23.34.62-.11.88l-4.84,2.79A1.71,1.71,0,0,1,703.85,279.91Z" fill="#06033e"/><path d="M600.55,245.66l-14.36-8.29c-.39-.22-.34-.62.11-.88l4.83-2.79a1.69,1.69,0,0,1,1.53-.06L607,241.93c.39.22.34.62-.11.88l-4.83,2.79A1.69,1.69,0,0,1,600.55,245.66Z" fill="#06033e"/><path d="M693.06,299.07l-14.36-8.29c-.39-.22-.34-.62.11-.88l4.83-2.79a1.69,1.69,0,0,1,1.53-.06l14.36,8.29c.39.23.34.62-.11.88L694.59,299A1.69,1.69,0,0,1,693.06,299.07Z" fill="#06033e"/><path d="M663,291.29l-4.88-2.81c-.39-.23-.34-.63.11-.89l5.76-3.32a1.69,1.69,0,0,1,1.53-.06l4.87,2.81c.39.23.34.62-.11.88l-5.75,3.33A1.69,1.69,0,0,1,663,291.29Z" fill="#06033e"/><path d="M608.26,259.72l-7.79-4.5c-.4-.23-.35-.63.11-.89l5.75-3.32a1.69,1.69,0,0,1,1.53-.06l7.8,4.5c.39.23.34.62-.11.88l-5.76,3.32A1.69,1.69,0,0,1,608.26,259.72Z" fill="#06033e"/><path d="M655.69,287.1l-7.79-4.5c-.4-.23-.35-.62.11-.88l5.75-3.33a1.72,1.72,0,0,1,1.53-.06l7.8,4.5c.39.23.34.62-.11.89L657.22,287A1.69,1.69,0,0,1,655.69,287.1Z" fill="#06033e"/><path d="M619.13,266l-7.8-4.5c-.39-.23-.34-.62.11-.88l5.76-3.33a1.67,1.67,0,0,1,1.52-.06l7.8,4.5c.39.23.34.62-.11.88l-5.75,3.33A1.69,1.69,0,0,1,619.13,266Z" fill="#06033e"/><path d="M618.78,257.25l33.9,19.58c.42.24.42.63,0,.88l-5.87,3.38a1.63,1.63,0,0,1-1.52,0l-33.91-19.57Z" fill="#06033e"/><path d="M684,299.17l5.43,3.14c.32.18.28.51-.09.72L687,304.39a1.35,1.35,0,0,1-1.25.05l-5.43-3.13c-.32-.19-.28-.51.09-.73l2.35-1.35A1.41,1.41,0,0,1,684,299.17Z" fill="#06033e"/><path d="M676.4,294.79l5.43,3.14c.33.18.28.5-.09.72L679.39,300a1.42,1.42,0,0,1-1.25.05l-5.43-3.14c-.32-.18-.28-.51.09-.72l2.35-1.36A1.38,1.38,0,0,1,676.4,294.79Z" fill="#06033e"/><path d="M668.87,290.44l5.43,3.14c.32.18.28.51-.09.72l-2.35,1.36a1.38,1.38,0,0,1-1.25,0l-5.43-3.13c-.32-.19-.28-.51.09-.73l2.35-1.36A1.42,1.42,0,0,1,668.87,290.44Z" fill="#06033e"/><path d="M680.56,292.39l5.43,3.13c.32.19.28.51-.09.73l-2.35,1.36a1.42,1.42,0,0,1-1.25.05l-5.44-3.14c-.32-.18-.28-.51.09-.72l2.36-1.36A1.38,1.38,0,0,1,680.56,292.39Z" fill="#06033e"/></g><g opacity="0.4"><path d="M582.75,245l-4.87-2.82c-.4-.22-.35-.62.1-.88l5.76-3.32a1.73,1.73,0,0,1,1.53-.07l4.87,2.82c.4.23.35.62-.11.88l-5.75,3.32A1.7,1.7,0,0,1,582.75,245Z" fill="#06033e"/><path d="M590.28,249.34l-4.87-2.82c-.4-.23-.35-.62.11-.88l5.75-3.32a1.7,1.7,0,0,1,1.53-.07l4.87,2.82c.4.22.35.62-.11.88l-5.75,3.32A1.73,1.73,0,0,1,590.28,249.34Z" fill="#06033e"/><path d="M597.81,253.68l-4.87-2.81c-.4-.23-.35-.62.11-.88l5.75-3.33a1.69,1.69,0,0,1,1.53-.06l4.87,2.82c.4.22.35.62-.11.88l-5.75,3.32A1.69,1.69,0,0,1,597.81,253.68Z" fill="#06033e"/><path d="M608.23,250.09l-4.88-2.81c-.39-.23-.34-.62.11-.88l4.83-2.79a1.73,1.73,0,0,1,1.53-.07l4.88,2.82c.39.22.34.62-.11.88L609.75,250A1.67,1.67,0,0,1,608.23,250.09Z" fill="#06033e"/><path d="M615.76,254.44l-4.88-2.81c-.39-.23-.34-.63.11-.89l4.83-2.79a1.69,1.69,0,0,1,1.53-.06l4.88,2.82c.39.22.34.62-.11.88l-4.84,2.79A1.67,1.67,0,0,1,615.76,254.44Z" fill="#06033e"/><path d="M623.29,258.79,618.41,256c-.39-.22-.34-.62.11-.88l4.83-2.79a1.69,1.69,0,0,1,1.53-.06l4.88,2.81c.39.23.34.62-.11.89l-4.84,2.78A1.67,1.67,0,0,1,623.29,258.79Z" fill="#06033e"/><path d="M630.82,263.14l-4.88-2.82c-.39-.23-.34-.62.11-.88l4.83-2.79a1.69,1.69,0,0,1,1.53-.06l4.88,2.81c.39.23.34.62-.11.88l-4.84,2.79A1.71,1.71,0,0,1,630.82,263.14Z" fill="#06033e"/><path d="M638.35,267.48l-4.88-2.81c-.39-.23-.34-.62.11-.88l4.83-2.79a1.73,1.73,0,0,1,1.53-.07l4.88,2.82c.39.22.34.62-.11.88l-4.83,2.79A1.69,1.69,0,0,1,638.35,267.48Z" fill="#06033e"/><path d="M645.88,271.83,641,269c-.39-.23-.34-.63.11-.89l4.83-2.79a1.73,1.73,0,0,1,1.53-.06l4.88,2.82c.39.22.34.62-.11.88l-4.83,2.79A1.69,1.69,0,0,1,645.88,271.83Z" fill="#06033e"/><path d="M653.41,276.18l-4.88-2.82c-.39-.22-.34-.62.11-.88l4.83-2.79a1.69,1.69,0,0,1,1.53-.06l4.88,2.81c.39.23.34.62-.11.89l-4.83,2.79A1.73,1.73,0,0,1,653.41,276.18Z" fill="#06033e"/><path d="M660.94,280.53l-4.88-2.82c-.39-.22-.34-.62.11-.88L661,274a1.69,1.69,0,0,1,1.53-.06l4.88,2.81c.39.23.34.62-.11.88l-4.83,2.79A1.73,1.73,0,0,1,660.94,280.53Z" fill="#06033e"/><path d="M668.47,284.87l-4.88-2.81c-.39-.23-.34-.62.11-.88l4.83-2.79a1.73,1.73,0,0,1,1.53-.07l4.88,2.82c.39.23.34.62-.11.88L670,284.81A1.69,1.69,0,0,1,668.47,284.87Z" fill="#06033e"/><path d="M676,289.22l-4.88-2.81c-.39-.23-.34-.62.11-.89l4.83-2.79a1.73,1.73,0,0,1,1.53-.06l4.88,2.82c.39.22.34.62-.11.88l-4.83,2.79A1.69,1.69,0,0,1,676,289.22Z" fill="#06033e"/><path d="M619.32,248l-4.87-2.81c-.4-.23-.35-.62.11-.88l4.83-2.79a1.71,1.71,0,0,1,1.52-.07l4.88,2.82c.39.23.34.62-.11.88L620.85,248A1.69,1.69,0,0,1,619.32,248Z" fill="#06033e"/><path d="M611.68,243.62l-4.88-2.81c-.39-.23-.34-.62.11-.88l4.83-2.79a1.7,1.7,0,0,1,1.53-.07l4.88,2.82c.39.22.34.62-.11.88l-4.83,2.79A1.69,1.69,0,0,1,611.68,243.62Z" fill="#06033e"/><path d="M604,239.2l-10.5-6.06c-.39-.23-.34-.62.11-.88l4.83-2.79a1.73,1.73,0,0,1,1.53-.07l10.5,6.07c.39.22.35.62-.11.88l-4.83,2.79A1.69,1.69,0,0,1,604,239.2Z" fill="#06033e"/><path d="M609.38,233.83l-8.53-4.92c-.39-.23-.34-.62.11-.88l4.83-2.79a1.7,1.7,0,0,1,1.53-.07l8.52,4.92c.4.23.35.62-.11.88l-4.83,2.79A1.67,1.67,0,0,1,609.38,233.83Z" fill="#06033e"/><path d="M626.85,252.38,622,249.57c-.4-.23-.35-.62.11-.88l4.83-2.79a1.67,1.67,0,0,1,1.52-.07l4.88,2.82c.39.22.34.62-.11.88l-4.83,2.79A1.69,1.69,0,0,1,626.85,252.38Z" fill="#06033e"/><path d="M634.38,256.73l-4.87-2.82c-.4-.22-.35-.62.11-.88l4.83-2.79a1.69,1.69,0,0,1,1.53-.06l4.87,2.82c.39.22.34.62-.11.88l-4.83,2.79A1.69,1.69,0,0,1,634.38,256.73Z" fill="#06033e"/><path d="M641.91,261.08,637,258.26c-.39-.22-.35-.62.11-.88l4.83-2.79a1.69,1.69,0,0,1,1.53-.06l4.87,2.81c.39.23.34.62-.11.88L643.44,261A1.7,1.7,0,0,1,641.91,261.08Z" fill="#06033e"/><path d="M649.44,265.43l-4.87-2.82c-.39-.23-.35-.62.11-.88l4.83-2.79a1.69,1.69,0,0,1,1.53-.06l4.87,2.81c.39.23.34.62-.11.88L651,265.36A1.73,1.73,0,0,1,649.44,265.43Z" fill="#06033e"/><path d="M657,269.77,652.1,267c-.39-.23-.35-.62.11-.88l4.83-2.79a1.73,1.73,0,0,1,1.53-.07l4.87,2.82c.39.22.34.62-.11.88l-4.83,2.79A1.69,1.69,0,0,1,657,269.77Z" fill="#06033e"/><path d="M664.5,274.12l-4.87-2.81c-.39-.23-.34-.63.11-.89l4.83-2.79a1.69,1.69,0,0,1,1.53-.06l4.87,2.82c.39.22.34.62-.11.88L666,274.06A1.69,1.69,0,0,1,664.5,274.12Z" fill="#06033e"/><path d="M672,278.47l-4.87-2.82c-.39-.22-.34-.62.11-.88L672.1,272a1.69,1.69,0,0,1,1.53-.06l4.87,2.81c.39.23.34.62-.11.89l-4.83,2.78A1.69,1.69,0,0,1,672,278.47Z" fill="#06033e"/><path d="M679.56,282.82,674.69,280c-.39-.23-.34-.62.11-.88l4.83-2.79a1.69,1.69,0,0,1,1.53-.06l4.87,2.81c.39.23.35.62-.11.88l-4.83,2.79A1.73,1.73,0,0,1,679.56,282.82Z" fill="#06033e"/><path d="M687.09,287.16l-4.87-2.81c-.39-.23-.34-.62.11-.88l4.83-2.79a1.73,1.73,0,0,1,1.53-.07l4.87,2.82c.39.22.35.62-.11.88l-4.83,2.79A1.69,1.69,0,0,1,687.09,287.16Z" fill="#06033e"/><path d="M700.48,294.89l-10.64-6.14c-.39-.23-.34-.62.11-.88l4.83-2.79a1.73,1.73,0,0,1,1.53-.07L707,291.16c.39.22.34.62-.11.88L702,294.83A1.69,1.69,0,0,1,700.48,294.89Z" fill="#06033e"/><path d="M715.14,286.43l-9-5.19c-.39-.22-.34-.62.11-.88l4.83-2.79a1.69,1.69,0,0,1,1.53-.06l9,5.18c.39.23.34.62-.11.89l-4.83,2.78A1.7,1.7,0,0,1,715.14,286.43Z" fill="#06033e"/><path d="M640,251.53l-4.88-2.81c-.39-.23-.34-.62.11-.89l4.83-2.78a1.7,1.7,0,0,1,1.53-.07l4.88,2.82c.39.22.34.62-.11.88l-4.83,2.79A1.69,1.69,0,0,1,640,251.53Z" fill="#06033e"/><path d="M632.32,247.08l-4.87-2.82c-.4-.23-.35-.62.11-.88l4.83-2.79a1.67,1.67,0,0,1,1.52-.06l4.88,2.81c.39.23.34.62-.11.88L633.85,247A1.73,1.73,0,0,1,632.32,247.08Z" fill="#06033e"/><path d="M624.6,242.62l-4.87-2.82c-.39-.22-.34-.62.11-.88l4.83-2.79a1.69,1.69,0,0,1,1.53-.06l4.87,2.82c.39.22.35.62-.11.88l-4.83,2.79A1.69,1.69,0,0,1,624.6,242.62Z" fill="#06033e"/><path d="M616.89,238.16,612,235.35c-.39-.23-.34-.62.11-.88l4.83-2.79a1.73,1.73,0,0,1,1.53-.07l4.88,2.82c.39.23.34.62-.11.88l-4.84,2.79A1.67,1.67,0,0,1,616.89,238.16Z" fill="#06033e"/><path d="M647.57,255.88l-4.88-2.82c-.39-.22-.34-.62.11-.88l4.83-2.79a1.69,1.69,0,0,1,1.53-.06l4.88,2.81c.39.23.34.63-.11.89l-4.83,2.79A1.69,1.69,0,0,1,647.57,255.88Z" fill="#06033e"/><path d="M655.1,260.23l-4.88-2.82c-.39-.22-.34-.62.11-.88l4.83-2.79a1.69,1.69,0,0,1,1.53-.06l4.88,2.81c.39.23.34.62-.11.88l-4.83,2.79A1.73,1.73,0,0,1,655.1,260.23Z" fill="#06033e"/><path d="M662.63,264.57l-4.88-2.81c-.39-.23-.34-.62.11-.88l4.84-2.79a1.71,1.71,0,0,1,1.52-.07l4.88,2.82c.39.23.34.62-.11.88l-4.83,2.79A1.69,1.69,0,0,1,662.63,264.57Z" fill="#06033e"/><path d="M670.16,268.92l-4.88-2.81c-.39-.23-.34-.62.11-.88l4.84-2.79a1.67,1.67,0,0,1,1.52-.07l4.88,2.82c.39.22.34.62-.11.88l-4.83,2.79A1.69,1.69,0,0,1,670.16,268.92Z" fill="#06033e"/><path d="M677.69,273.27l-4.88-2.82c-.39-.22-.34-.62.11-.88l4.84-2.79a1.67,1.67,0,0,1,1.52-.06l4.88,2.82c.39.22.34.62-.11.88l-4.83,2.79A1.69,1.69,0,0,1,677.69,273.27Z" fill="#06033e"/><path d="M685.22,277.62l-4.88-2.82c-.39-.22-.34-.62.11-.88l4.84-2.79a1.67,1.67,0,0,1,1.52-.06l4.88,2.81c.39.23.34.62-.11.88l-4.83,2.79A1.7,1.7,0,0,1,685.22,277.62Z" fill="#06033e"/><path d="M692.75,282l-4.87-2.81c-.4-.23-.35-.62.1-.88l4.84-2.79a1.67,1.67,0,0,1,1.52-.06l4.88,2.81c.39.23.34.62-.11.88l-4.83,2.79A1.69,1.69,0,0,1,692.75,282Z" fill="#06033e"/><path d="M700.28,286.31l-4.87-2.81c-.4-.23-.35-.62.11-.88l4.83-2.79a1.67,1.67,0,0,1,1.52-.07l4.88,2.82c.39.22.34.62-.11.88l-4.83,2.79A1.69,1.69,0,0,1,700.28,286.31Z" fill="#06033e"/><path d="M707.81,290.66l-4.87-2.82c-.4-.22-.35-.62.11-.88l4.83-2.79a1.67,1.67,0,0,1,1.52-.06l4.88,2.82c.39.22.34.62-.11.88l-4.83,2.79A1.69,1.69,0,0,1,707.81,290.66Z" fill="#06033e"/><path d="M636.07,240.78,631.2,238c-.39-.22-.34-.62.11-.88l4.83-2.79a1.69,1.69,0,0,1,1.53-.06l4.87,2.81c.39.23.35.62-.11.89l-4.83,2.78A1.69,1.69,0,0,1,636.07,240.78Z" fill="#06033e"/><path d="M628.58,236.45l-4.87-2.81c-.4-.23-.35-.62.11-.88l4.83-2.79a1.67,1.67,0,0,1,1.52-.07l4.88,2.82c.39.22.34.62-.11.88l-4.83,2.79A1.69,1.69,0,0,1,628.58,236.45Z" fill="#06033e"/><path d="M621.09,232.13l-4.88-2.82c-.39-.23-.34-.62.11-.88l4.83-2.79a1.69,1.69,0,0,1,1.53-.06l4.88,2.81c.39.23.34.62-.11.88l-4.83,2.79A1.73,1.73,0,0,1,621.09,232.13Z" fill="#06033e"/><path d="M613.6,227.8,608.72,225c-.39-.23-.34-.63.11-.89l4.83-2.79a1.69,1.69,0,0,1,1.53-.06l4.87,2.82c.4.22.35.62-.11.88l-4.83,2.79A1.67,1.67,0,0,1,613.6,227.8Z" fill="#06033e"/><path d="M621.3,223.35l-4.88-2.81c-.39-.23-.34-.62.11-.89l1.6-.92a1.69,1.69,0,0,1,1.53-.06l4.88,2.81c.39.23.34.63-.11.89l-1.6.92A1.69,1.69,0,0,1,621.3,223.35Z" fill="#06033e"/><path d="M631.08,229l-4.88-2.82c-.39-.22-.34-.62.11-.88l1.6-.92a1.73,1.73,0,0,1,1.53-.07l4.87,2.82c.39.23.35.62-.11.88l-1.59.92A1.73,1.73,0,0,1,631.08,229Z" fill="#06033e"/><path d="M638.54,233.31l-4.88-2.82c-.39-.23-.34-.62.11-.88l1.6-.92a1.7,1.7,0,0,1,1.53-.07l4.87,2.82c.4.22.35.62-.1.88l-1.6.92A1.73,1.73,0,0,1,638.54,233.31Z" fill="#06033e"/><path d="M646,237.61l-4.87-2.81c-.4-.23-.35-.62.11-.88l1.59-.93a1.69,1.69,0,0,1,1.53-.06l4.88,2.82c.39.22.34.62-.11.88l-1.6.92A1.69,1.69,0,0,1,646,237.61Z" fill="#06033e"/><path d="M653.46,241.92l-4.87-2.81c-.39-.23-.34-.63.11-.89l1.59-.92a1.69,1.69,0,0,1,1.53-.06l4.88,2.81c.39.23.34.62-.11.89l-1.6.92A1.69,1.69,0,0,1,653.46,241.92Z" fill="#06033e"/><path d="M695.12,266l-4.88-2.81c-.39-.23-.34-.62.11-.89l1.6-.92a1.69,1.69,0,0,1,1.53-.06l4.87,2.81c.4.23.35.63-.1.89l-1.6.92A1.69,1.69,0,0,1,695.12,266Z" fill="#06033e"/><path d="M702.58,270.28l-4.87-2.82c-.4-.22-.35-.62.11-.88l1.59-.92a1.69,1.69,0,0,1,1.53-.06l4.88,2.81c.39.23.34.62-.11.88l-1.6.93A1.69,1.69,0,0,1,702.58,270.28Z" fill="#06033e"/><path d="M710,274.59l-4.87-2.82c-.39-.22-.34-.62.11-.88l1.59-.92a1.69,1.69,0,0,1,1.53-.06l4.88,2.81c.39.23.34.62-.11.88l-1.6.92A1.69,1.69,0,0,1,710,274.59Z" fill="#06033e"/><path d="M717.51,278.9l-4.88-2.82c-.39-.23-.34-.62.11-.88l1.6-.92a1.71,1.71,0,0,1,1.52-.07l4.88,2.82c.39.22.34.62-.11.88l-1.6.92A1.71,1.71,0,0,1,717.51,278.9Z" fill="#06033e"/><path d="M643.6,245.13l-4.87-2.82c-.39-.23-.34-.62.11-.88l4.83-2.79a1.69,1.69,0,0,1,1.53-.06l4.87,2.81c.39.23.35.62-.11.88l-4.83,2.79A1.73,1.73,0,0,1,643.6,245.13Z" fill="#06033e"/><path d="M651.13,249.47l-4.87-2.81c-.39-.23-.34-.62.11-.88L651.2,243a1.73,1.73,0,0,1,1.53-.07l4.87,2.82c.39.22.35.62-.11.88l-4.83,2.79A1.69,1.69,0,0,1,651.13,249.47Z" fill="#06033e"/><path d="M658.67,253.82,653.79,251c-.39-.23-.34-.63.11-.89l4.83-2.79a1.72,1.72,0,0,1,1.53-.06l4.87,2.82c.4.22.35.62-.11.88l-4.83,2.79A1.67,1.67,0,0,1,658.67,253.82Z" fill="#06033e"/><path d="M666.2,258.17l-4.88-2.82c-.39-.22-.34-.62.11-.88l4.83-2.79a1.69,1.69,0,0,1,1.53-.06l4.87,2.81c.4.23.35.62-.11.89l-4.83,2.79A1.7,1.7,0,0,1,666.2,258.17Z" fill="#06033e"/><path d="M673.73,262.52l-4.88-2.82c-.39-.23-.34-.62.11-.88l4.83-2.79a1.69,1.69,0,0,1,1.53-.06l4.87,2.81c.4.23.35.62-.11.88l-4.83,2.79A1.71,1.71,0,0,1,673.73,262.52Z" fill="#06033e"/><path d="M681.26,266.86l-4.88-2.81c-.39-.23-.34-.62.11-.88l4.83-2.79a1.73,1.73,0,0,1,1.53-.07l4.87,2.82c.4.23.35.62-.11.88l-4.83,2.79A1.67,1.67,0,0,1,681.26,266.86Z" fill="#06033e"/><path d="M688.79,271.21l-4.88-2.81c-.39-.23-.34-.62.11-.89l4.83-2.79a1.72,1.72,0,0,1,1.53-.06l4.87,2.82c.4.22.35.62-.1.88l-4.84,2.79A1.67,1.67,0,0,1,688.79,271.21Z" fill="#06033e"/><path d="M696.32,275.56l-4.88-2.82c-.39-.22-.34-.62.11-.88l4.83-2.79a1.69,1.69,0,0,1,1.53-.06l4.88,2.81c.39.23.34.63-.11.89l-4.84,2.79A1.67,1.67,0,0,1,696.32,275.56Z" fill="#06033e"/><path d="M703.85,279.91,699,277.09c-.39-.22-.34-.62.11-.88l4.83-2.79a1.69,1.69,0,0,1,1.53-.06l4.88,2.81c.39.23.34.62-.11.88l-4.84,2.79A1.71,1.71,0,0,1,703.85,279.91Z" fill="#06033e"/><path d="M600.55,245.66l-14.36-8.29c-.39-.22-.34-.62.11-.88l4.83-2.79a1.69,1.69,0,0,1,1.53-.06L607,241.93c.39.22.34.62-.11.88l-4.83,2.79A1.69,1.69,0,0,1,600.55,245.66Z" fill="#06033e"/><path d="M693.06,299.07l-14.36-8.29c-.39-.22-.34-.62.11-.88l4.83-2.79a1.69,1.69,0,0,1,1.53-.06l14.36,8.29c.39.23.34.62-.11.88L694.59,299A1.69,1.69,0,0,1,693.06,299.07Z" fill="#06033e"/><path d="M663,291.29l-4.88-2.81c-.39-.23-.34-.63.11-.89l5.76-3.32a1.69,1.69,0,0,1,1.53-.06l4.87,2.81c.39.23.34.62-.11.88l-5.75,3.33A1.69,1.69,0,0,1,663,291.29Z" fill="#06033e"/><path d="M608.26,259.72l-7.79-4.5c-.4-.23-.35-.63.11-.89l5.75-3.32a1.69,1.69,0,0,1,1.53-.06l7.8,4.5c.39.23.34.62-.11.88l-5.76,3.32A1.69,1.69,0,0,1,608.26,259.72Z" fill="#06033e"/><path d="M655.69,287.1l-7.79-4.5c-.4-.23-.35-.62.11-.88l5.75-3.33a1.72,1.72,0,0,1,1.53-.06l7.8,4.5c.39.23.34.62-.11.89L657.22,287A1.69,1.69,0,0,1,655.69,287.1Z" fill="#06033e"/><path d="M619.13,266l-7.8-4.5c-.39-.23-.34-.62.11-.88l5.76-3.33a1.67,1.67,0,0,1,1.52-.06l7.8,4.5c.39.23.34.62-.11.88l-5.75,3.33A1.69,1.69,0,0,1,619.13,266Z" fill="#06033e"/><path d="M618.78,257.25l33.9,19.58c.42.24.42.63,0,.88l-5.87,3.38a1.63,1.63,0,0,1-1.52,0l-33.91-19.57Z" fill="#06033e"/><path d="M684,299.17l5.43,3.14c.32.18.28.51-.09.72L687,304.39a1.35,1.35,0,0,1-1.25.05l-5.43-3.13c-.32-.19-.28-.51.09-.73l2.35-1.35A1.41,1.41,0,0,1,684,299.17Z" fill="#06033e"/><path d="M676.4,294.79l5.43,3.14c.33.18.28.5-.09.72L679.39,300a1.42,1.42,0,0,1-1.25.05l-5.43-3.14c-.32-.18-.28-.51.09-.72l2.35-1.36A1.38,1.38,0,0,1,676.4,294.79Z" fill="#06033e"/><path d="M668.87,290.44l5.43,3.14c.32.18.28.51-.09.72l-2.35,1.36a1.38,1.38,0,0,1-1.25,0l-5.43-3.13c-.32-.19-.28-.51.09-.73l2.35-1.36A1.42,1.42,0,0,1,668.87,290.44Z" fill="#06033e"/><path d="M680.56,292.39l5.43,3.13c.32.19.28.51-.09.73l-2.35,1.36a1.42,1.42,0,0,1-1.25.05l-5.44-3.14c-.32-.18-.28-.51.09-.72l2.36-1.36A1.38,1.38,0,0,1,680.56,292.39Z" fill="#06033e"/></g><path d="M760.26,283.59,616.39,200.53a6.35,6.35,0,0,1-2.63-7.1L646.29,87.8c.81-2.62,3.29-3.69,5.56-2.38l143.86,83.06a6.37,6.37,0,0,1,2.64,7.1L765.81,281.22C765,283.83,762.52,284.9,760.26,283.59Z" fill="url(#_ÂÁ_Ï_ÌÌ_È_ËÂÌÚ_343)"/><path d="M758.9,279.89,619.36,199.26a6.09,6.09,0,0,1-2.52-6.8l31.1-101c.77-2.51,3.15-3.53,5.32-2.28L792.8,169.83a6.11,6.11,0,0,1,2.52,6.81l-31.1,101C763.44,280.13,761.06,281.14,758.9,279.89Z" fill="url(#_ÂÁ_Ï_ÌÌ_È_ËÂÌÚ_441)"/><path d="M758.9,279.89,619.36,199.26a6.09,6.09,0,0,1-2.52-6.8l31.1-101c.77-2.51,3.15-3.53,5.32-2.28L792.8,169.83a6.11,6.11,0,0,1,2.52,6.81l-31.1,101C763.44,280.13,761.06,281.14,758.9,279.89Z" fill="#06033e" opacity="0.4"/><path d="M758.9,279.89,619.36,199.26a6.09,6.09,0,0,1-2.52-6.8l31.1-101c.77-2.51,3.15-3.53,5.32-2.28L792.8,169.83a6.11,6.11,0,0,1,2.52,6.81l-31.1,101C763.44,280.13,761.06,281.14,758.9,279.89Z" fill="#06033e" opacity="0.4"/><path d="M751.4,249,656.94,194.5a4.19,4.19,0,0,1-1.73-4.67l21.36-69.36a2.43,2.43,0,0,1,3.65-1.56l94.46,54.54a4.17,4.17,0,0,1,1.73,4.66l-21.36,69.36A2.42,2.42,0,0,1,751.4,249Z" fill="#06033e" opacity="0.5"/><path d="M738.64,250.71l-94.46-54.54a4.19,4.19,0,0,1-1.73-4.67l21.36-69.35a2.42,2.42,0,0,1,3.65-1.56l94.46,54.53a4.19,4.19,0,0,1,1.73,4.67l-21.36,69.36A2.42,2.42,0,0,1,738.64,250.71Z" fill="url(#_ÂÁ_Ï_ÌÌ_È_ËÂÌÚ_343-2)"/><g opacity="0.5"><path d="M738.64,250.71l-94.46-54.54a4.19,4.19,0,0,1-1.73-4.67l21.36-69.35a2.42,2.42,0,0,1,3.65-1.56l94.46,54.53a4.19,4.19,0,0,1,1.73,4.67l-21.36,69.36A2.42,2.42,0,0,1,738.64,250.71Z" fill="#06033e"/></g><path d="M761.92,175.12l-94.46-54.53a2.34,2.34,0,0,0-2.66.09,2.39,2.39,0,0,1,1.36.35l94.46,54.53a4.2,4.2,0,0,1,1.74,4.67L741,249.59a2.82,2.82,0,0,1-1,1.47,2.51,2.51,0,0,0,2.29-1.91l21.36-69.36A4.19,4.19,0,0,0,761.92,175.12Z" fill="#fff"/><path d="M619.5,307.35a7.13,7.13,0,0,1-3.5-.82h0l-37.84-21.85a2.75,2.75,0,0,1-1.56-2.34,3.58,3.58,0,0,1,2.09-2.89l19.48-11.25a8.74,8.74,0,0,1,8-.3L644,289.75a2.72,2.72,0,0,1,1.56,2.33,3.57,3.57,0,0,1-2.09,2.89L624,306.22A9.18,9.18,0,0,1,619.5,307.35Zm-16.85-39.17a8.09,8.09,0,0,0-3.93,1L579.24,280.4c-1,.56-1.54,1.27-1.54,1.94a1.71,1.71,0,0,0,1,1.39l37.84,21.85a7.75,7.75,0,0,0,6.86-.31L642.9,294c1-.57,1.54-1.28,1.54-1.95a1.75,1.75,0,0,0-1-1.39l-37.85-21.85A6,6,0,0,0,602.65,268.18Z" fill="#06033e" opacity="0.4"/><path d="M690.47,157l-5.84-3.37a1.5,1.5,0,0,1-.65-1.68h0a.86.86,0,0,1,1.31-.54l5.84,3.37a1.53,1.53,0,0,1,.65,1.68h0A.86.86,0,0,1,690.47,157Z" fill="#fff"/><path d="M704.38,165l-8.61-5a1.5,1.5,0,0,1-.65-1.68h0a.86.86,0,0,1,1.31-.54l8.61,5a1.53,1.53,0,0,1,.65,1.68h0A.86.86,0,0,1,704.38,165Z" fill="#fff"/><path d="M678.69,183l-5.84-3.37a1.53,1.53,0,0,1-.65-1.68h0a.86.86,0,0,1,1.31-.54l5.84,3.37a1.53,1.53,0,0,1,.65,1.68h0A.86.86,0,0,1,678.69,183Z" fill="#fff"/><path d="M691.09,190.13l-8.61-5a1.53,1.53,0,0,1-.65-1.68h0a.87.87,0,0,1,1.31-.55l8.61,5a1.53,1.53,0,0,1,.65,1.68h0A.86.86,0,0,1,691.09,190.13Z" fill="#fff"/><path d="M673,152.34l-3.65-2.11a1.53,1.53,0,0,1-.65-1.68h0A.87.87,0,0,1,670,148l3.65,2.1a1.54,1.54,0,0,1,.65,1.68h0A.87.87,0,0,1,673,152.34Z" fill="#fff"/><path d="M684,164.14l-11.15-6.43a1.53,1.53,0,0,1-.65-1.68h0a.87.87,0,0,1,1.32-.55l11.14,6.44a1.5,1.5,0,0,1,.65,1.68h0A.86.86,0,0,1,684,164.14Z" fill="#fff"/><path d="M673.67,169.14,670,167a1.54,1.54,0,0,1-.65-1.68h0a.86.86,0,0,1,1.31-.55l3.65,2.11a1.5,1.5,0,0,1,.65,1.67h0A.86.86,0,0,1,673.67,169.14Z" fill="#fff"/><path d="M692.43,201.84l-9.74-5.62a1.54,1.54,0,0,1-.65-1.68h0a.86.86,0,0,1,1.31-.55l9.75,5.63a1.52,1.52,0,0,1,.65,1.67h0A.87.87,0,0,1,692.43,201.84Z" fill="#fff"/><path d="M669.58,177.71l-2.34-1.35a1.53,1.53,0,0,1-.65-1.68h0a.86.86,0,0,1,1.31-.54l2.34,1.35a1.5,1.5,0,0,1,.65,1.68h0A.86.86,0,0,1,669.58,177.71Z" fill="#fff"/><path d="M667.36,187.37l-2.9-1.68a1.5,1.5,0,0,1-.65-1.68h0a.86.86,0,0,1,1.31-.55l2.91,1.68a1.53,1.53,0,0,1,.65,1.68h0A.87.87,0,0,1,667.36,187.37Z" fill="#fff"/><path d="M678.68,193.9,671,189.47a1.53,1.53,0,0,1-.65-1.68h0a.86.86,0,0,1,1.31-.54l7.67,4.42a1.54,1.54,0,0,1,.65,1.68h0A.86.86,0,0,1,678.68,193.9Z" fill="#fff"/><path d="M668.58,193.53l-5.52-3.18a1.51,1.51,0,0,1-.64-1.68h0a.86.86,0,0,1,1.31-.54l5.51,3.18a1.53,1.53,0,0,1,.65,1.68h0A.86.86,0,0,1,668.58,193.53Z" fill="#fff"/><path d="M700.79,206.69l-3.54-2a1.54,1.54,0,0,1-.65-1.68h0a.87.87,0,0,1,1.32-.55l3.54,2.05a1.52,1.52,0,0,1,.65,1.67h0A.87.87,0,0,1,700.79,206.69Z" fill="#fff"/><path d="M687.24,177l-9.74-5.63a1.5,1.5,0,0,1-.65-1.68h0a.87.87,0,0,1,1.31-.55l9.74,5.63a1.52,1.52,0,0,1,.65,1.68h0A.87.87,0,0,1,687.24,177Z" fill="#fff"/><path d="M688.39,172.18l-17-9.81a1.53,1.53,0,0,1-.65-1.68h0a.87.87,0,0,1,1.32-.54l17,9.8a1.53,1.53,0,0,1,.65,1.68h0A.88.88,0,0,1,688.39,172.18Z" fill="#e8975b"/><path d="M678.37,177.32l-9.74-5.62A1.53,1.53,0,0,1,668,170h0a.86.86,0,0,1,1.31-.55L679,175.1a1.53,1.53,0,0,1,.65,1.68h0A.87.87,0,0,1,678.37,177.32Z" fill="#e8975b"/><path d="M694.63,181.24l-3.54-2a1.53,1.53,0,0,1-.65-1.68h0a.87.87,0,0,1,1.31-.55l3.54,2.05a1.5,1.5,0,0,1,.65,1.68h0A.86.86,0,0,1,694.63,181.24Z" fill="#e8975b"/><path d="M730.64,180.17l-21-12.11a1.5,1.5,0,0,1-.65-1.68h0a.86.86,0,0,1,1.31-.54l21,12.1a1.5,1.5,0,0,1,.65,1.68h0A.86.86,0,0,1,730.64,180.17Z" fill="#e8975b"/><path d="M677.56,187.79,665.85,181a1.52,1.52,0,0,1-.65-1.68h0a.86.86,0,0,1,1.31-.55l11.71,6.76a1.5,1.5,0,0,1,.65,1.68h0A.86.86,0,0,1,677.56,187.79Z" fill="#f8359e"/><path d="M679.33,150.54l-8.61-5a1.5,1.5,0,0,1-.65-1.68h0a.87.87,0,0,1,1.31-.55l8.61,5a1.52,1.52,0,0,1,.65,1.67h0A.86.86,0,0,1,679.33,150.54Z" fill="#f8359e"/><path d="M666.78,198l-10-5.76a1.53,1.53,0,0,1-.65-1.68h0a.87.87,0,0,1,1.32-.54l10,5.76a1.52,1.52,0,0,1,.65,1.67h0A.86.86,0,0,1,666.78,198Z" fill="#e8975b"/><path d="M733,169.39l-4.26-2.47a1.12,1.12,0,0,1-.48-1.23h0a.63.63,0,0,1,1-.4l4.27,2.47A1.1,1.1,0,0,1,734,169h0A.63.63,0,0,1,733,169.39Z" fill="#fff"/><path d="M741.14,174.09l-4.27-2.47a1.12,1.12,0,0,1-.48-1.23h0a.63.63,0,0,1,1-.39l4.27,2.46a1.12,1.12,0,0,1,.48,1.23h0A.63.63,0,0,1,741.14,174.09Z" fill="#fff"/><path d="M749.28,178.79,745,176.32a1.09,1.09,0,0,1-.47-1.22h0a.62.62,0,0,1,1-.4l4.27,2.46a1.12,1.12,0,0,1,.48,1.23h0A.63.63,0,0,1,749.28,178.79Z" fill="#fff"/><path d="M753.28,181.1l-.13-.08a1.1,1.1,0,0,1-.47-1.22h0a.63.63,0,0,1,1-.4l.13.07a1.13,1.13,0,0,1,.47,1.23h0A.63.63,0,0,1,753.28,181.1Z" fill="#f8359e"/><ellipse cx="62.09" cy="386.91" rx="19.64" ry="11.34" fill="#020230" opacity="0.6"/><path d="M91.2,306.09H35.26l5.2,60.57h0c0,3.36,2.22,6.73,6.67,9.29,8.89,5.14,23.31,5.14,32.2,0C83.77,373.39,86,370,86,366.66Z" fill="url(#radial-gradient-2)"/><path d="M91.2,306.09H35.26l.85,10a21.91,21.91,0,0,0,5.19,4.67c10.69,7.09,28.33,8.45,40.36,3.35l-1.86,44.3a8.69,8.69,0,0,1-2,5.28c-1.81,2.13-5.3,4.64-12,6.06A31.57,31.57,0,0,0,79.33,376C83.77,373.39,86,370,86,366.66l4.17-48.58h0Z" fill="#06033e" opacity="0.4"/><ellipse cx="63.23" cy="306.09" rx="27.97" ry="16.15" fill="#06033e" opacity="0.4"/><ellipse cx="63.23" cy="300.4" rx="24.09" ry="13.91" fill="#06033e" opacity="0.4"/><path d="M92.86,305.33h0v-.05a.22.22,0,0,1,0-.08l-.54-5.42,0,.06c-.24-4.11-3.07-8.17-8.5-11.3C72.44,282,54,282,42.67,288.53c-5.57,3.22-8.4,7.41-8.51,11.62v0L33.64,305c0,.13,0,.25,0,.38v.08h0c-.31,4.61,2.57,9.26,8.66,12.78,11.58,6.68,30.36,6.68,41.94,0C90.32,314.65,93.21,310,92.86,305.33Z" fill="url(#_ÂÁ_Ï_ÌÌ_È_ËÂÌÚ_144)"/><ellipse cx="63.23" cy="300.4" rx="24.09" ry="13.91" fill="url(#_ÂÁ_Ï_ÌÌ_È_ËÂÌÚ_483)"/><ellipse cx="62.09" cy="300.4" rx="24.09" ry="13.91" fill="url(#_ÂÁ_Ï_ÌÌ_È_ËÂÌÚ_483-2)"/><path d="M49.05,292.63c9.41-5.43,24.66-5.43,34.07,0l.34.22a19.31,19.31,0,0,0-3.2-2.29c-9.4-5.43-24.66-5.43-34.07,0s-9.39,14-.33,19.46C39.81,304.63,40.87,297.35,49.05,292.63Z" fill="#06033e" opacity="0.4"/><path d="M46.19,293c9.41-5.43,24.67-5.43,34.07,0,4.18,2.41,6.49,5.49,7,8.63.59-4-1.73-8-7-11-9.4-5.43-24.66-5.43-34.07,0-5.23,3-7.55,7.09-7,11C39.7,298.45,42,295.38,46.19,293Z" fill="url(#_ÂÁ_Ï_ÌÌ_È_ËÂÌÚ_193)"/><path d="M84,288.66c-11.34-6.68-29.82-6.84-41.27-.36s-11.55,17.15-.21,23.83,29.82,6.84,41.27.36S95.31,295.34,84,288.66Zm-3.7,21.57a31.33,31.33,0,0,1-11,3.61l-.44-1.43a1.36,1.36,0,0,0-1.32-1H58.9a1.36,1.36,0,0,0-1.31,1l-.44,1.43a31.33,31.33,0,0,1-11-3.61c-9.4-5.43-9.41-14.24,0-19.67s24.67-5.43,34.07,0S89.67,304.8,80.27,310.23Z" fill="url(#_ÂÁ_Ï_ÌÌ_È_ËÂÌÚ_223)"/><path d="M80.26,289.53c-9.4-5.43-24.66-5.43-34.07,0-4.93,2.85-7.27,6.62-7,10.35.21-3.39,2.56-6.74,7-9.32,9.41-5.43,24.67-5.43,34.07,0,4.48,2.59,6.82,5.93,7,9.32C87.54,296.15,85.2,292.38,80.26,289.53Z" fill="#fff"/><path d="M83.76,311.46c-11.45,6.48-29.93,6.32-41.27-.36-5.4-3.18-8.2-7.26-8.43-11.37-.22,4.45,2.58,8.95,8.43,12.4,11.34,6.68,29.82,6.84,41.27.36,6-3.39,8.88-7.94,8.64-12.46C92.19,304.2,89.31,308.32,83.76,311.46Z" fill="#fff"/><rect x="59.99" y="313.19" width="6.48" height="1.4" rx="0.65" fill="#0c0a78"/><path d="M65.81,313.19H60.64a.66.66,0,0,0-.65.66v.09a.53.53,0,0,0,0,.17.63.63,0,0,1,.61-.48h5.17a.64.64,0,0,1,.62.48.53.53,0,0,0,0-.17v-.09A.66.66,0,0,0,65.81,313.19Z" fill="url(#_ÂÁ_Ï_ÌÌ_È_ËÂÌÚ_193-2)"/><path d="M65.06,313.89s15.64-5.24,9.31-23.21-18.66-23.45-13.7-37.82c0,0-7.78,11.63-.51,27.38S69,294.18,69,301.71a13.58,13.58,0,0,1-7.33,12.18Z" fill="#fff" opacity="0.5"/><line x1="186.62" y1="229.88" x2="186.62" y2="239.36" fill="none" stroke-miterlimit="10" stroke-width="0.5" stroke="url(#linear-gradient)"/><line x1="191.36" y1="234.62" x2="181.88" y2="234.62" fill="none" stroke-miterlimit="10" stroke-width="0.5" stroke="url(#linear-gradient-2)"/><line x1="56.04" y1="81.68" x2="49.34" y2="88.39" fill="none" stroke-miterlimit="10" stroke-width="0.5" stroke="url(#linear-gradient-3)"/><line x1="56.04" y1="88.39" x2="49.34" y2="81.68" fill="none" stroke-miterlimit="10" stroke-width="0.5" stroke="url(#linear-gradient-3)"/><line x1="713.16" y1="59.34" x2="725.11" y2="59.34" fill="none" stroke-miterlimit="10" stroke-width="0.5" stroke="url(#linear-gradient-5)"/><polygon points="449.16 17.24 439.13 19.93 446.48 27.27 449.16 17.24" fill="none" stroke-miterlimit="10" stroke-width="0.5" stroke="url(#linear-gradient-6)"/><polygon points="181.88 140.39 179.61 131.92 173.41 138.12 181.88 140.39" fill="none" stroke-miterlimit="10" stroke-width="0.25" stroke="url(#linear-gradient-7)"/><line x1="363.11" y1="356.06" x2="363.11" y2="363.63" fill="none" stroke-miterlimit="10" stroke-width="0.5" stroke="url(#linear-gradient-8)"/><path d="M646.3,24.67a1.49,1.49,0,0,0,0-3,1.49,1.49,0,0,0,0,3Z" fill="url(#linear-gradient-9)"/><path d="M363.72,46.57a1.49,1.49,0,0,0,0-3,1.49,1.49,0,0,0,0,3Z" fill="url(#linear-gradient-10)"/><path d="M140.13,364a1.49,1.49,0,0,0,0-3,1.49,1.49,0,0,0,0,3Z" fill="url(#linear-gradient-11)"/><path d="M149.13,28.58a1.49,1.49,0,0,0,0-3,1.49,1.49,0,0,0,0,3Z" fill="url(#linear-gradient-12)"/><path d="M754.34,411.5a1.49,1.49,0,0,0,0-3,1.49,1.49,0,0,0,0,3Z" fill="url(#linear-gradient-13)"/><path d="M6.5,412.14a1.49,1.49,0,0,0,0-3,1.49,1.49,0,0,0,0,3Z" fill="url(#linear-gradient-14)"/><path d="M1.44,3a1.49,1.49,0,0,0,0-3,1.49,1.49,0,0,0,0,3Z" fill="url(#linear-gradient-15)"/><path d="M411.46,202.78a1.49,1.49,0,0,0,0-3,1.49,1.49,0,0,0,0,3Z" fill="url(#linear-gradient-16)"/><path d="M569.48,14.33a.6.6,0,0,0,0-1.19.6.6,0,0,0,0,1.19Z" fill="url(#linear-gradient-17)"/><path d="M255.5,34.25a.6.6,0,0,0,0-1.19.6.6,0,0,0,0,1.19Z" fill="url(#linear-gradient-18)"/><path d="M298.78,280.9a.6.6,0,0,0,0-1.19.6.6,0,0,0,0,1.19Z" fill="url(#linear-gradient-19)"/><path d="M267.81,105a.6.6,0,0,0,0-1.19.6.6,0,0,0,0,1.19Z" fill="url(#linear-gradient-20)"/><path d="M504.9,105.91a1.49,1.49,0,0,0,0-3,1.49,1.49,0,0,0,0,3Z" fill="url(#linear-gradient-21)"/><path d="M28.77,181.48a1.49,1.49,0,0,0,0-3,1.49,1.49,0,0,0,0,3Z" fill="url(#linear-gradient-22)"/><path d="M311.84,214.46a1.49,1.49,0,0,0,0-3,1.49,1.49,0,0,0,0,3Z" fill="url(#linear-gradient-23)"/><path d="M524.14,390.35a1.49,1.49,0,0,0,0-3,1.49,1.49,0,0,0,0,3Z" fill="url(#linear-gradient-24)"/><line x1="444.92" y1="304.79" x2="444.92" y2="313.19" fill="none" stroke-miterlimit="10" stroke-width="0.5" stroke="url(#linear-gradient-25)"/><line x1="449.12" y1="308.99" x2="440.72" y2="308.99" fill="none" stroke-miterlimit="10" stroke-width="0.5" stroke="url(#linear-gradient-26)"/><path d="M386,118.76a.6.6,0,0,0,0-1.19.6.6,0,0,0,0,1.19Z" fill="url(#linear-gradient-27)"/></g></g></svg>