<svg xmlns="http://www.w3.org/2000/svg" xmlns:xlink="http://www.w3.org/1999/xlink" viewBox="0 0 630 759.86"><defs><filter id="a" x="6.4" y="154.02" width="616.69" height="597.21" filterUnits="userSpaceOnUse" color-interpolation-filters="sRGB"><feFlood flood-color="#fff" result="bg"/><feBlend in="SourceGraphic" in2="bg"/></filter><mask id="b" x="6.4" y="154.02" width="616.69" height="597.21" maskUnits="userSpaceOnUse"><g filter="url(#a)"><path d="M382.67 193.29a20.26 20.26 0 0013.88-5.75 14.69 14.69 0 004.06-6.32 14.7 14.7 0 001.69-7.57c-.22-5.08-1.89-10.34-5.75-13.88a19.64 19.64 0 00-27.77 0 14.82 14.82 0 00-4.06 6.32 14.89 14.89 0 00-1.69 7.56c.23 5.08 1.9 10.35 5.75 13.89a20.46 20.46 0 0013.89 5.75zm93.14 153.26a20.26 20.26 0 0013.89-5.75 21.84 21.84 0 005.75-13.89c-.23-5.08-1.9-10.34-5.75-13.88a19.64 19.64 0 00-27.77 0 21.84 21.84 0 00-5.75 13.88c.22 5.08 1.89 10.35 5.75 13.89a20.42 20.42 0 0013.88 5.75zm-17.52-124.81a20.26 20.26 0 0013.89-5.74 14.72 14.72 0 004.06-6.32 14.79 14.79 0 001.69-7.56c-.23-5.08-1.9-10.35-5.75-13.89a19.64 19.64 0 00-27.77 0 14.69 14.69 0 00-4.06 6.32 14.8 14.8 0 00-1.69 7.57c.23 5.08 1.89 10.34 5.75 13.88a20.37 20.37 0 0013.88 5.75zM125 397.22a20.26 20.26 0 0013.88-5.75 21.84 21.84 0 005.75-13.89c-.22-5.08-1.89-10.34-5.75-13.88a19.64 19.64 0 00-27.77 0 21.84 21.84 0 00-5.75 13.88c.23 5.08 1.9 10.35 5.75 13.89a20.46 20.46 0 0013.89 5.75zm189.62 74.56a20.26 20.26 0 0013.89-5.78 21.84 21.84 0 005.75-13.89c-.23-5.08-1.9-10.34-5.75-13.88a19.64 19.64 0 00-27.77 0 21.84 21.84 0 00-5.74 13.91c.22 5.08 1.89 10.35 5.75 13.89a20.42 20.42 0 0013.88 5.75zm-145.87-247.6a20.26 20.26 0 0013.89-5.75 14.72 14.72 0 004.06-6.32 14.79 14.79 0 001.69-7.56c-.23-5.08-1.9-10.35-5.75-13.89a19.64 19.64 0 00-27.77 0 14.69 14.69 0 00-4.06 6.32 14.8 14.8 0 00-1.69 7.57c.23 5.08 1.89 10.34 5.75 13.88a20.37 20.37 0 0013.88 5.75zm-62.68 48.43a20.26 20.26 0 0013.93-5.75 21.84 21.84 0 005.71-13.86c-.23-5.08-1.9-10.35-5.75-13.89a19.64 19.64 0 00-27.77 0A21.84 21.84 0 0086.44 253c.23 5.08 1.89 10.34 5.75 13.88a20.37 20.37 0 0013.88 5.75zM26.05 474.69a20.26 20.26 0 0013.88-5.75 14.69 14.69 0 004.07-6.32 14.7 14.7 0 001.69-7.57c-.22-5.08-1.89-10.34-5.75-13.88a20.37 20.37 0 00-13.88-5.75 20.28 20.28 0 00-13.89 5.75 14.82 14.82 0 00-4.06 6.32 14.89 14.89 0 00-1.69 7.56c.23 5.08 1.9 10.35 5.75 13.89a20.46 20.46 0 0013.89 5.75zm11.22 77.7a20.26 20.26 0 0013.89-5.75 14.82 14.82 0 004.06-6.32 14.79 14.79 0 001.69-7.56c-.23-5.08-1.9-10.35-5.75-13.89a20.42 20.42 0 00-13.89-5.75 20.26 20.26 0 00-13.88 5.75 14.69 14.69 0 00-4.06 6.32 14.7 14.7 0 00-1.69 7.57c.22 5.07 1.89 10.34 5.75 13.88a20.37 20.37 0 0013.88 5.75zm134.79 170.73a20.26 20.26 0 0013.88-5.75 21.84 21.84 0 005.75-13.89c-.22-5.08-1.89-10.34-5.75-13.88a19.62 19.62 0 00-27.77 0 21.84 21.84 0 00-5.75 13.88c.23 5.08 1.9 10.35 5.75 13.89a20.44 20.44 0 0013.89 5.75zM245 751.23a20.26 20.26 0 0013.88-5.75 21.84 21.84 0 005.75-13.88c-.22-5.08-1.89-10.35-5.75-13.89a19.64 19.64 0 00-27.77 0 21.84 21.84 0 00-5.75 13.89c.23 5.07 1.9 10.34 5.75 13.88a20.42 20.42 0 0013.89 5.75zm213.79-30.88a20.28 20.28 0 0013.89-5.75 21.84 21.84 0 005.75-13.89c-.23-5.08-1.9-10.34-5.75-13.88a19.62 19.62 0 00-27.77 0 21.84 21.84 0 00-5.75 13.88c.22 5.08 1.89 10.35 5.75 13.89a20.42 20.42 0 0013.88 5.75zm63.69-47.84a20.22 20.22 0 0013.88-5.76 21.78 21.78 0 005.75-13.88c-.22-5.08-1.89-10.34-5.75-13.88a19.62 19.62 0 00-27.77 0 21.84 21.84 0 00-5.75 13.88c.23 5.08 1.9 10.35 5.75 13.88a20.43 20.43 0 0013.89 5.76zm80.97-201.89a20.26 20.26 0 0013.88-5.75 21.84 21.84 0 005.75-13.87c-.22-5.07-1.89-10.34-5.75-13.88a19.64 19.64 0 00-27.77 0 21.84 21.84 0 00-5.75 13.88c.23 5.08 1.9 10.35 5.75 13.89a20.42 20.42 0 0013.89 5.75zm-11.22-77.7a20.26 20.26 0 0013.88-5.75 21.84 21.84 0 005.75-13.89c-.23-5.08-1.89-10.34-5.75-13.88a19.64 19.64 0 00-27.77 0 21.84 21.84 0 00-5.75 13.88c.23 5.08 1.9 10.35 5.75 13.89a20.44 20.44 0 0013.89 5.75z"/><circle cx="343.54" cy="652.07" r="15.7" stroke="#000" stroke-miterlimit="10" stroke-width="7.85"/></g></mask></defs><g data-name="Layer 2"><g data-name="Layer 6"><g opacity=".24"><path data-name="Path 304" d="M284.78.16h152.69l-33.93 50.9L437.47 102H284.78" fill="#fff"/><path data-name="Line 1" fill="none" stroke="#fff" stroke-miterlimit="10" d="M284.6 0v187"/></g><path fill="#fff" opacity=".1" d="M384.62 172.68l74.19 29.53L593.22 374l11.26 77.98-81.26 202.61-62.18 47.76L244.7 733.6l-73.15-28.22L36.28 534.04l-11.26-77.98 80.31-202.8 62.8-49.32 216.49-31.26z"/><g mask="url(#b)"><path fill="none" stroke="#9554ff" stroke-miterlimit="10" stroke-width="1.18" d="M314.62 452.14l161.19-125.23 127.64 124.07-127.64-124.07-91.44-154.23-107.86 15.57 107.86-15.57 73.92 29.43 133.94 171.17 11.22 77.7-80.97 201.89-61.96 47.59-107.78 15.57-107.79 15.57-72.89-28.12L37.27 532.76l-11.22-77.71 80.02-202.07 62.58-49.15 107.86-15.58-107.86 15.58-44.06 173.81-87.32 155.12 87.32-155.12 190.03 74.5 28.89 200.01-171.45 51.33 171.45-51.33 178.97.72"/></g><image width="630" height="614" transform="translate(0 145.86)" opacity=".75" xlink:href="logo-mission1.png" style="mix-blend-mode:hard-light"/><circle cx="168.75" cy="204.55" r="4.52" fill="#ff6f91"/><circle cx="106.07" cy="252.98" r="5.89" fill="#00d4cf"/><circle cx="26.05" cy="455.05" r="3.93" fill="#daff54"/><circle cx="124.99" cy="377.58" r="5.89" fill="#00d4cf"/><circle cx="37.27" cy="532.76" r="5.89" fill="#adff82"/><circle cx="172.06" cy="703.48" r="7.27" fill="#00d4cf"/><circle cx="244.95" cy="731.6" r="5.89" fill="#00d4cf"/><circle cx="458.79" cy="700.71" r="3.53" fill="#00d4cf"/><circle cx="343.55" cy="652.33" r="7.27" fill="#ff9670"/><circle cx="522.48" cy="652.87" r="5.89" fill="#ffc75f"/><circle cx="603.45" cy="450.98" r="3.93" fill="#00d4cf"/><circle cx="592.23" cy="373.28" r="5.89" fill="#ff4deb"/><circle cx="475.81" cy="326.91" r="5.11" fill="#adff82"/><circle cx="382.67" cy="173.65" r="6.09" fill="#ffc75f"/><circle cx="458.29" cy="202.11" r="5.5" fill="#00d4cf"/><circle cx="314.75" cy="452.14" r="7.85" fill="#00d4cf"/></g></g></svg>