<svg xmlns="http://www.w3.org/2000/svg" xmlns:xlink="http://www.w3.org/1999/xlink" viewBox="0 0 1849.47 1031.48">
    <defs>
        <filter id="a" x="1069.93" y="338.69" width="616.69" height="597.21" filterUnits="userSpaceOnUse"
                color-interpolation-filters="sRGB">
            <feFlood flood-color="#fff" result="bg"/>
            <feBlend in="SourceGraphic" in2="bg"/>
        </filter>
        <mask id="b" x="1069.93" y="338.69" width="616.69" height="597.21" maskUnits="userSpaceOnUse">
            <g filter="url(#a)">
                <path d="M1446.2 378a20.26 20.26 0 0013.88-5.75 21.84 21.84 0 005.75-13.89c-.23-5.07-1.89-10.34-5.75-13.88a19.64 19.64 0 00-27.77 0 21.84 21.84 0 00-5.75 13.88c.23 5.08 1.9 10.35 5.75 13.89a20.44 20.44 0 0013.89 5.75zM1539.34 531.22a20.26 20.26 0 0013.88-5.75 21.84 21.84 0 005.75-13.89c-.22-5.07-1.89-10.34-5.75-13.88a19.64 19.64 0 00-27.77 0 21.84 21.84 0 00-5.75 13.88c.23 5.08 1.9 10.35 5.75 13.89a20.42 20.42 0 0013.89 5.75zM1521.82 406.41a20.28 20.28 0 0013.89-5.75 21.84 21.84 0 005.75-13.88c-.23-5.08-1.9-10.35-5.75-13.89a20.46 20.46 0 00-13.89-5.75 20.26 20.26 0 00-13.88 5.75 21.84 21.84 0 00-5.75 13.89c.22 5.08 1.89 10.34 5.75 13.88a20.37 20.37 0 0013.88 5.75zM1188.52 581.89a20.26 20.26 0 0013.88-5.75 21.84 21.84 0 005.75-13.89c-.23-5.08-1.89-10.34-5.75-13.88a19.64 19.64 0 00-27.77 0 21.84 21.84 0 00-5.75 13.88c.23 5.08 1.9 10.35 5.75 13.89a20.44 20.44 0 0013.89 5.75zM1378.15 656.45a20.26 20.26 0 0013.85-5.75 21.84 21.84 0 005.75-13.89c-.22-5.08-1.89-10.34-5.75-13.88a19.64 19.64 0 00-27.77 0 21.84 21.84 0 00-5.75 13.88c.23 5.08 1.9 10.35 5.75 13.89a20.46 20.46 0 0013.89 5.75zM1232.28 408.85a20.28 20.28 0 0013.89-5.75 21.84 21.84 0 005.75-13.88c-.23-5.08-1.9-10.35-5.75-13.89a20.46 20.46 0 00-13.89-5.75 20.26 20.26 0 00-13.88 5.75 21.84 21.84 0 00-5.75 13.89c.22 5.08 1.89 10.34 5.75 13.88a20.37 20.37 0 0013.88 5.75zM1169.6 457.28a20.28 20.28 0 0013.89-5.75 21.84 21.84 0 005.75-13.88c-.23-5.08-1.9-10.35-5.75-13.89a20.46 20.46 0 00-13.89-5.76 20.26 20.26 0 00-13.88 5.75 21.84 21.84 0 00-5.75 13.89c.22 5.08 1.89 10.34 5.75 13.88a20.37 20.37 0 0013.88 5.75zM1089.58 659.36a20.26 20.26 0 0013.88-5.75 21.84 21.84 0 005.75-13.89c-.23-5.07-1.89-10.34-5.75-13.88a19.64 19.64 0 00-27.77 0 21.84 21.84 0 00-5.75 13.88c.23 5.08 1.9 10.35 5.75 13.89a20.4 20.4 0 0013.89 5.75zM1100.8 737.06a20.26 20.26 0 0013.88-5.75 21.84 21.84 0 005.75-13.88c-.22-5.08-1.89-10.35-5.75-13.89a19.64 19.64 0 00-27.77 0 21.84 21.84 0 00-5.75 13.89c.23 5.08 1.9 10.34 5.75 13.88a20.42 20.42 0 0013.89 5.75zM1235.58 907.79a20.26 20.26 0 0013.89-5.75 21.84 21.84 0 005.75-13.89c-.23-5.08-1.9-10.34-5.75-13.88a19.64 19.64 0 00-27.77 0 21.84 21.84 0 00-5.75 13.88c.23 5.08 1.89 10.35 5.75 13.89a20.42 20.42 0 0013.88 5.75zM1308.48 935.9a20.26 20.26 0 0013.88-5.75 14.63 14.63 0 004.06-6.32 14.79 14.79 0 001.69-7.56c-.23-5.08-1.89-10.35-5.75-13.89a19.64 19.64 0 00-27.77 0 21.84 21.84 0 00-5.75 13.89c.23 5.08 1.9 10.34 5.75 13.88a20.4 20.4 0 0013.89 5.75zM1522.32 905a20.26 20.26 0 0013.88-5.75 21.84 21.84 0 005.75-13.89c-.22-5.08-1.89-10.34-5.75-13.88a19.64 19.64 0 00-27.77 0 21.84 21.84 0 00-5.75 13.88c.23 5.08 1.9 10.35 5.75 13.89a20.46 20.46 0 0013.89 5.75zM1586 857.18a20.26 20.26 0 0013.88-5.75 21.84 21.84 0 005.75-13.89c-.23-5.08-1.89-10.34-5.75-13.88a19.64 19.64 0 00-27.77 0 21.84 21.84 0 00-5.75 13.88c.23 5.08 1.9 10.35 5.75 13.89a20.43 20.43 0 0013.89 5.75zM1667 655.29a20.26 20.26 0 0013.88-5.75 14.63 14.63 0 004.06-6.32 14.79 14.79 0 001.69-7.56c-.23-5.08-1.89-10.35-5.75-13.89a19.64 19.64 0 00-27.77 0 21.84 21.84 0 00-5.75 13.89c.23 5.07 1.9 10.34 5.75 13.88a20.4 20.4 0 0013.89 5.75zM1655.75 577.59a20.26 20.26 0 0013.89-5.75 21.84 21.84 0 005.75-13.89c-.23-5.08-1.9-10.34-5.75-13.88a19.64 19.64 0 00-27.77 0 14.63 14.63 0 00-4.06 6.32 14.79 14.79 0 00-1.69 7.56c.23 5.08 1.89 10.35 5.75 13.89a20.42 20.42 0 0013.88 5.75z"/>
                <circle cx="1407.06" cy="836.74" r="15.7" stroke="#000" stroke-miterlimit="10" stroke-width="7.85"/>
            </g>
        </mask>
    </defs>
    <g data-name="Layer 2">
        <g data-name="Layer 6">
            <g opacity=".24">
                <path data-name="Path 304" d="M1348.31 184.83H1501l-33.93 50.9 33.93 50.9h-152.69" fill="#fff"/>
                <path data-name="Line 1" fill="none" stroke="#fff" stroke-miterlimit="10" d="M1348.12 184.67v187"/>
            </g>
            <path fill="#fff" opacity=".1"
                  d="M1448.14 357.35l74.2 29.53 134.41 171.79 11.26 77.98-81.26 202.61-62.18 47.76-216.34 31.25-73.16-28.22-135.26-171.33-11.27-77.98 80.32-202.8 62.79-49.33 216.49-31.26z"/>
            <g mask="url(#b)">
                <path fill="none" stroke="#9554ff" stroke-miterlimit="10" stroke-width="1.18"
                      d="M1378.15 636.81l161.19-125.23 127.64 124.08-127.64-124.08-91.44-154.23-107.86 15.58 107.86-15.58 73.92 29.43 133.93 171.17 11.23 77.71-80.97 201.88-61.96 47.59-107.79 15.57-107.78 15.57-72.89-28.12-134.79-170.72-11.22-77.71 80.02-202.07 62.58-49.15 107.86-15.57-107.86 15.57-44.07 173.81-87.31 155.12 87.31-155.12 190.04 74.5 28.89 200.01-171.45 51.33 171.45-51.33 178.97.72"/>
            </g>
            <image width="630" height="614" transform="translate(1063.53 330.54)" opacity=".75"
                   xlink:href="logo-mission_11.png" style="mix-blend-mode:hard-light"/>
            <circle cx="1232.28" cy="389.22" r="4.52" fill="#ff6f91"/>
            <circle cx="1169.6" cy="437.65" r="5.89" fill="#00d4cf"/>
            <circle cx="1089.58" cy="639.72" r="3.93" fill="#daff54"/>
            <circle cx="1188.52" cy="562.25" r="5.89" fill="#00d4cf"/>
            <circle cx="1100.8" cy="717.43" r="5.89" fill="#adff82"/>
            <circle cx="1235.58" cy="888.15" r="7.27" fill="#00d4cf"/>
            <circle cx="1308.48" cy="916.27" r="5.89" fill="#00d4cf"/>
            <circle cx="1522.32" cy="885.38" r="3.53" fill="#00d4cf"/>
            <circle cx="1407.08" cy="837" r="7.27" fill="#ff9670"/>
            <circle cx="1586.01" cy="837.54" r="5.89" fill="#ffc75f"/>
            <circle cx="1666.98" cy="635.66" r="3.93" fill="#00d4cf"/>
            <circle cx="1655.75" cy="557.95" r="5.89" fill="#ff4deb"/>
            <circle cx="1539.34" cy="511.58" r="5.11" fill="#adff82"/>
            <circle cx="1446.2" cy="358.32" r="6.09" fill="#ffc75f"/>
            <circle cx="1521.82" cy="386.78" r="5.5" fill="#00d4cf"/>
            <circle cx="1378.28" cy="636.81" r="7.85" fill="#00d4cf"/>
            <path fill="none" d="M0 0h1849.47v1031.48H0z"/>
        </g>
    </g>
</svg>