<svg xmlns="http://www.w3.org/2000/svg" viewBox="0 0 1920 1080"><defs><linearGradient id="a" x1="1835.2" y1="5414.04" x2="1835.2" y2="5331.2" gradientTransform="rotate(26.39 11413.917 317.671)" gradientUnits="userSpaceOnUse"><stop offset="0" stop-color="gray" stop-opacity=".25"/><stop offset=".54" stop-color="gray" stop-opacity=".12"/><stop offset="1" stop-color="gray" stop-opacity=".1"/></linearGradient></defs><g data-name="Layer 6"><path data-name="Path 407" d="M1608.4 428.81l1.2 4 3.17 2.73-4 1.2-2.72 3.17-1.2-4-3.18-2.72 4-1.2z" fill="#5ed0cd"/><g data-name="undraw Graduation ktn0"><circle data-name="Ellipse 65" cx="589.49" cy="720.28" r="2.93" fill="#dadada"/><circle data-name="Ellipse 65" cx="170.84" cy="741.36" r="2.93" fill="#dadada"/><circle data-name="Ellipse 65" cx="1093.58" cy="73.82" r="2.93" fill="#dadada"/><circle data-name="Ellipse 65" cx="1811.58" cy="232.36" r="2.93" fill="#dadada"/><circle data-name="Ellipse 72" cx="270.49" cy="910.28" r="2.93" fill="#dadada"/><circle data-name="Ellipse 72" cx="250.25" cy="206.36" r="2.93" fill="#dadada"/><circle data-name="Ellipse 72" cx="157.12" cy="992.36" r="2.93" fill="#dadada"/><circle data-name="Ellipse 72" cx="94.35" cy="576.36" r="2.93" fill="#dadada"/><g data-name="Group 17" opacity=".5" fill="#befa90"><path data-name="Rectangle 68" d="M357.58 638.36h3v17h-3z"/><path data-name="Rectangle 69" d="M350.58 645.36h17v3h-17z"/></g><g data-name="Group 22" opacity=".5" fill="#befa90"><path data-name="Rectangle 68-2" d="M1818.58 43.36h3v17h-3z"/><path data-name="Rectangle 69-2" d="M1811.58 50.36h17v3h-17z"/></g><g data-name="Group 18" opacity=".5" fill="#79e1b3"><path data-name="Rectangle 70" d="M1192.58 366.36h3v17h-3z"/><path data-name="Rectangle 71" d="M1185.58 373.36h17v3h-17z"/></g><g data-name="Group 19" opacity=".5" fill="#befa90"><rect data-name="Rectangle 72" x="375.58" y="215.36" width="3" height="17" rx="1.5"/><rect data-name="Rectangle 73" x="368.58" y="222.36" width="17" height="3" rx="1.5"/></g><g data-name="Group 19" opacity=".5" fill="#befa90"><rect data-name="Rectangle 72" x="1578.44" y="140.86" width="3" height="17" rx="1.5"/><rect data-name="Rectangle 73" x="1571.44" y="147.86" width="17" height="3" rx="1.5"/></g><g data-name="Group 20" opacity=".5" fill="#befa90"><path data-name="Rectangle 74" d="M1023.58 189.36h3v17h-3z"/><path data-name="Rectangle 75" d="M1016.58 196.36h17v3h-17z"/></g><g data-name="Group 24" opacity=".5" fill="#f09978"><path data-name="Rectangle 74-2" d="M1379.58 992.36h3v17h-3z"/><path data-name="Rectangle 75-2" d="M1372.58 999.36h17v3h-17z"/></g><g data-name="Group 23" opacity=".5" fill="#befa90"><path data-name="Rectangle 74-3" d="M752.58 41.36h3v17h-3z"/><path data-name="Rectangle 75-3" d="M745.58 48.36h17v3h-17z"/></g><g data-name="Group 21" opacity=".5" fill="#ed7891"><path data-name="Rectangle 74-4" d="M1524.58 720.36h3v17h-3z"/><path data-name="Rectangle 75-4" d="M1517.58 727.36h17v3h-17z"/></g><circle data-name="Ellipse 66" cx="1087.58" cy="600.36" r="6" fill="#ed7891" opacity=".5" style="isolation:isolate"/><circle data-name="Ellipse 67" cx="955.58" cy="638.36" r="6" fill="#5ed0cd" opacity=".5" style="isolation:isolate"/><circle data-name="Ellipse 75" cx="1453.58" cy="582.36" r="6" fill="#5ed0cd" opacity=".5" style="isolation:isolate"/><circle data-name="Ellipse 74" cx="583.58" cy="862.36" r="6" fill="#5ed0cd" opacity=".5" style="isolation:isolate"/><circle data-name="Ellipse 74" cx="227.13" cy="594.36" r="6" fill="#5ed0cd" opacity=".5" style="isolation:isolate"/><circle data-name="Ellipse 68" cx="426.58" cy="735.36" r="6" fill="#befa90" opacity=".5" style="isolation:isolate"/><circle data-name="Ellipse 68" cx="1459.58" cy="301.09" r="6" fill="#befa90" opacity=".5" style="isolation:isolate"/><circle data-name="Ellipse 73" cx="917.58" cy="901.36" r="6" fill="#befa90" opacity=".5" style="isolation:isolate"/><circle data-name="Ellipse 73" cx="1447.58" cy="856.36" r="6" fill="#befa90" opacity=".5" style="isolation:isolate"/><circle data-name="Ellipse 71" cx="789.58" cy="1065.36" r="6" fill="#befa90" opacity=".5" style="isolation:isolate"/><circle data-name="Ellipse 71" cx="253.18" cy="785" r="6" fill="#befa90" opacity=".5" style="isolation:isolate"/><circle data-name="Ellipse 69" cx="739.58" cy="162.36" r="6" fill="#ed7891" opacity=".5" style="isolation:isolate"/><circle data-name="Ellipse 70" cx="1301.58" cy="43.36" r="6" fill="#ed7891" opacity=".5" style="isolation:isolate"/><path data-name="Path 406" d="M575.13 185.64l2 3.67 3.67 2-3.67 2-2 3.67-2-3.67-3.67-2 3.67-2zM151.44 125.46l2 3.67 3.67 2-3.67 2-2 3.67-2-3.67-3.67-2 3.67-2z" fill="#5ed0cd"/><path data-name="Path 412" d="M1222.13 767.64l2 3.67 3.67 2-3.67 2-2 3.67-2-3.67-3.67-2 3.67-2z" fill="#5ed0cd"/><path data-name="Path 411" d="M420.13 8.64l2 3.67 3.67 2-3.67 2-2 3.67-2-3.67-3.67-2 3.67-2z" fill="#5ed0cd"/><path data-name="Path 407" d="M287.27 374.74l1.21 4 3.17 2.73-4 1.2-2.73 3.17-1.2-4-3.17-2.72 4-1.2z" fill="#5ed0cd"/><path data-name="Path 413" d="M1331.27 607.74l1.21 4 3.17 2.73-4 1.2-2.73 3.17-1.2-4-3.17-2.72 4-1.2zM124 369.3l1.2 4 3.17 2.73-4 1.2-2.73 3.17-1.2-4-3.17-2.72 4-1.2z" fill="#8a5ef5"/><path data-name="Path 408" d="M1617 986.72l2.73 3.18 4 1.2-3.17 2.72-1.2 4-2.73-3.17-4-1.2 3.17-2.73z" fill="#5ed0cd"/><path data-name="Path 409" d="M1040.42 491.41l3.45 4 5.06 1.52-4 3.44-1.52 5.07-3.44-4-5.07-1.51 4-3.45z" fill="#5ed0cd"/><path data-name="Path 410" d="M870 767.72l2.73 3.18 4 1.2-3.17 2.72-1.2 4-2.73-3.17-4-1.2 3.17-2.73z" fill="#5ed0cd"/></g><g opacity=".44"><ellipse cx="340.07" cy="466.07" rx="39.45" ry="5.96" transform="rotate(-63.61 340.057 466.068)" fill="#dfdfdf"/><ellipse cx="832.97" cy="710.89" rx="39.45" ry="4.05" transform="rotate(-63.61 832.96 710.889)" fill="#dfdfdf"/><path fill="#e3684e" d="M504.073 659.794l50.24-60.838 18.289 15.104-50.24 60.837z"/><path opacity=".05" style="isolation:isolate" d="M530.58 679.648l18.06-76.816 25.933 6.097-18.06 76.816z"/><path fill="#e3684e" d="M533.557 680.333l18.06-76.815 23.09 5.428-18.06 76.816z"/><path fill="url(#a)" d="M321.65 503.21l36.75-74.19L851.38 673.6l-36.87 74.18-492.86-244.57z"/><path d="M815.41 746c-9.67-4.61-499.95-248.07-492.86-244.58 27.2-41.59 35.06-70.7 35.06-70.7l493 244.58c-.13-.01-17.44 30.45-35.2 70.7z" fill="#f4f4f4"/><path opacity=".05" style="isolation:isolate" d="M538.022 608.386l35.07-70.677 40.678 20.183-35.07 70.678z"/><path fill="#e3684e" d="M539.832 609.284l35.07-70.677 37.05 18.383-35.07 70.678z"/><path opacity=".05" style="isolation:isolate" d="M545.072 611.899l35.07-70.678 24.768 12.29-35.07 70.677z"/><path fill="#e3684e" d="M546.887 612.798l35.069-70.678 21.248 10.544-35.07 70.677z"/><path d="M536.89 545.24l-27 40.47s9 41.58 207.94 40.46 214.68-40.46 214.68-40.46l-37.09-54-113.5-77.51z" fill="#eeecf3"/><path d="M536.89 545.24l-27 40.47s9 41.58 207.94 40.46 214.68-40.46 214.68-40.46l-37.09-54-113.5-77.51z" opacity=".15" style="isolation:isolate"/><path fill="#eeecf3" d="M1110.68 395.19L756.63 551.43 325.02 395.19l395.64-179.83 194.22 89.58 6.97 3.14 188.83 87.11z"/><path opacity=".15" style="isolation:isolate" d="M1110.68 395.19L756.63 551.43 325.02 395.19l395.64-179.83 194.22 89.58 6.97 3.14 188.83 87.11z"/><path fill="#f4f4f4" d="M929.16 432.62l-6.75.45-7.53-128.13 6.97 3.14 7.31 124.54z"/><path d="M541.38 394.63l-31.47 191.08s225.92-73.06 422.62 0L903.3 383.39s-264.13-32.59-361.92 11.24z" fill="#eeecf3"/><ellipse cx="928.59" cy="449.14" rx="32.6" ry="22.48" fill="#f4f4f4"/></g></g></svg>