<svg xmlns="http://www.w3.org/2000/svg" viewBox="0 0 1780.6 1062.71"><g data-name="Layer 2"><g data-name="Layer 6"><circle data-name="Ellipse 65" cx="518.01" cy="711.64" r="2.93" fill="#dadada"/><circle data-name="Ellipse 65" cx="1640.47" cy="807.7" r="2.93" fill="#dadada"/><circle data-name="Ellipse 65" cx="421.19" cy="561.86" r="2.93" fill="#dadada"/><circle data-name="Ellipse 65" cx="667.08" cy="610.2" r="2.93" fill="#dadada"/><circle data-name="Ellipse 65" cx="342.98" cy="862.64" r="2.93" fill="#dadada"/><circle data-name="Ellipse 65" cx="1022.1" cy="65.17" r="2.93" fill="#dadada"/><circle data-name="Ellipse 65" cx="1581.92" cy="623.71" r="2.93" fill="#dadada"/><circle data-name="Ellipse 65" cx="763.33" cy="215.21" r="2.93" fill="#dadada"/><circle data-name="Ellipse 65" cx="1740.1" cy="223.71" r="2.93" fill="#dadada"/><circle data-name="Ellipse 65" cx="2.93" cy="886.71" r="2.93" fill="#dadada"/><circle data-name="Ellipse 72" cx="178.77" cy="197.71" r="2.93" fill="#dadada"/><circle data-name="Ellipse 72" cx="991.37" cy="841.71" r="2.93" fill="#dadada"/><circle data-name="Ellipse 72" cx="85.64" cy="983.71" r="2.93" fill="#dadada"/><circle data-name="Ellipse 72" cx="22.88" cy="567.71" r="2.93" fill="#dadada"/><g data-name="Group 17"><path data-name="Rectangle 69" fill="#befa90" d="M1584.84 284.95h17v3h-17z" opacity=".5"/></g><g data-name="Group 22" opacity=".5" fill="#befa90"><path data-name="Rectangle 68-2" d="M1747.1 34.71h3v17h-3z"/><path data-name="Rectangle 69-2" d="M1740.1 41.71h17v3h-17z"/></g><g data-name="Group 18" opacity=".5" fill="#79e1b3"><path data-name="Rectangle 70" d="M1121.1 357.71h3v17h-3z"/><path data-name="Rectangle 71" d="M1114.1 364.71h17v3h-17z"/></g><g data-name="Group 19" opacity=".5" fill="#befa90"><rect data-name="Rectangle 72" x="1506.96" y="132.21" width="3" height="17" rx="1.5"/><rect data-name="Rectangle 73" x="1499.96" y="139.21" width="17" height="3" rx="1.5"/></g><g data-name="Group 20" opacity=".5" fill="#befa90"><path data-name="Rectangle 74" d="M952.1 180.71h3v17h-3z"/><path data-name="Rectangle 75" d="M945.1 187.71h17v3h-17z"/></g><g data-name="Group 24" opacity=".5" fill="#f09978"><path data-name="Rectangle 74-2" d="M1308.1 983.71h3v17h-3z"/><path data-name="Rectangle 75-2" d="M1301.1 990.71h17v3h-17z"/></g><g data-name="Group 23" opacity=".5" fill="#befa90"><path data-name="Rectangle 74-3" d="M681.1 32.71h3v17h-3z"/><path data-name="Rectangle 75-3" d="M674.1 39.71h17v3h-17z"/></g><g data-name="Group 21" opacity=".5" fill="#ed7891"><path data-name="Rectangle 74-4" d="M1453.1 711.71h3v17h-3z"/><path data-name="Rectangle 75-4" d="M1446.1 718.71h17v3h-17zM179.2 50.21h17v3h-17z"/></g><circle data-name="Ellipse 66" cx="1016.1" cy="591.71" r="6" fill="#ed7891" opacity=".5" style="isolation:isolate"/><circle data-name="Ellipse 66" cx="1757.1" cy="437.39" r="6" fill="#ed7891" opacity=".5" style="isolation:isolate"/><circle data-name="Ellipse 66" cx="1660.56" cy="128.17" r="6" fill="#ed7891" opacity=".5" style="isolation:isolate"/><circle data-name="Ellipse 67" cx="884.1" cy="629.71" r="6" fill="#5ed0cd" opacity=".5" style="isolation:isolate"/><circle data-name="Ellipse 67" cx="811.21" cy="443.39" r="3.5" fill="#dadada"/><circle data-name="Ellipse 75" cx="1382.1" cy="573.71" r="6" fill="#5ed0cd" opacity=".5" style="isolation:isolate"/><circle data-name="Ellipse 74" cx="512.1" cy="853.71" r="6" fill="#5ed0cd" opacity=".5" style="isolation:isolate"/><circle data-name="Ellipse 74" cx="155.65" cy="585.71" r="6" fill="#5ed0cd" opacity=".5" style="isolation:isolate"/><circle data-name="Ellipse 73" cx="846.1" cy="892.71" r="6" fill="#befa90" opacity=".5" style="isolation:isolate"/><circle data-name="Ellipse 73" cx="415.19" cy="398.55" r="6" fill="#befa90" opacity=".5" style="isolation:isolate"/><circle data-name="Ellipse 73" cx="1376.1" cy="847.71" r="6" fill="#befa90" opacity=".5" style="isolation:isolate"/><circle data-name="Ellipse 73" cx="1774.6" cy="892.71" r="6" fill="#befa90" opacity=".5" style="isolation:isolate"/><circle data-name="Ellipse 73" cx="1224.1" cy="200.64" r="6" fill="#befa90" opacity=".5" style="isolation:isolate"/><circle data-name="Ellipse 71" cx="718.1" cy="1056.71" r="6" fill="#befa90" opacity=".5" style="isolation:isolate"/><circle data-name="Ellipse 71" cx="181.7" cy="776.35" r="6" fill="#befa90" opacity=".5" style="isolation:isolate"/><circle data-name="Ellipse 69" cx="668.1" cy="153.71" r="6" fill="#ed7891" opacity=".5" style="isolation:isolate"/><circle data-name="Ellipse 70" cx="1230.1" cy="34.71" r="6" fill="#ed7891" opacity=".5" style="isolation:isolate"/><path data-name="Path 406" d="M503.66 177l2 3.67 3.67 2-3.67 2-2 3.67-2-3.67-3.67-2 3.67-2z" fill="#5ed0cd"/><path data-name="Path 406" d="M1301.1 420l2 3.67 3.67 2-3.67 2-2 3.67-2-3.67-3.67-2 3.67-2z" fill="#dadada"/><path data-name="Path 406" d="M80 116.81l2 3.67 3.67 2-3.67 2-2 3.67-2-3.67-3.67-2 3.67-2z" fill="#5ed0cd"/><path data-name="Path 412" d="M1150.66 759l2 3.67 3.67 2-3.67 2-2 3.67-2-3.67-3.67-2 3.67-2zM1750.1 601.6l2 3.67 3.67 2-3.67 2-2 3.67-2-3.67-3.67-2 3.67-2z" fill="#5ed0cd"/><path data-name="Path 411" d="M348.66 0l2 3.67 3.67 2-3.67 2-2 3.67-2-3.67-3.67-2 3.67-2z" fill="#5ed0cd"/><path data-name="Path 407" d="M215.8 366.1l1.2 4 3.17 2.72-4 1.2-2.73 3.17-1.2-4-3.17-2.73 4-1.2z" fill="#5ed0cd"/><path data-name="Path 413" d="M1259.8 599.1l1.2 4 3.17 2.72-4 1.2-2.73 3.17-1.2-4-3.17-2.73 4-1.2zM1414.62 47.66l1.2 4 3.17 2.72-4 1.2-2.73 3.17-1.2-4-3.17-2.75 4-1.2zM52.49 360.66l1.2 4 3.17 2.72-4 1.2-2.72 3.17-1.2-4-3.19-2.75 4-1.2zM578.64 310l1.2 4 3.17 2.73-4 1.2-2.72 3.17-1.2-4-3.17-2.72 4-1.2z" fill="#8a5ef5"/><path data-name="Path 408" d="M1545.48 978.08l2.73 3.17 4 1.2-3.17 2.73-1.2 4-2.73-3.18-4-1.2 3.17-2.72z" fill="#5ed0cd"/><path data-name="Path 409" d="M672.61 384.52l3.45 4 5.06 1.51-4 3.45-1.52 5.06-3.44-4-5.08-1.54 4-3.44z" fill="#ed7891" opacity=".5" style="isolation:isolate"/><path data-name="Path 410" d="M408 981.09l2.73 3.17 4 1.2-3.17 2.72-1.2 4-2.71-3.18-4-1.2 3.17-2.73z" fill="#5ed0cd"/></g></g></svg>